<?xml version="1.0" encoding="UTF-8"?><svg xmlns="http://www.w3.org/2000/svg" xmlns:xlink="http://www.w3.org/1999/xlink" height="392.7" preserveAspectRatio="xMidYMid meet" version="1.0" viewBox="-0.2 -0.3 463.3 392.7" width="463.3" zoomAndPan="magnify"><g id="change1_1"><path d="M96.1,50.28c8.31,0.43,16.28,0.53,24.24-0.1c9.74-0.77,19.21-2.89,28.53-5.77 c11.29-3.49,21.81-8.76,32.36-13.98c13.86-6.86,27.74-13.71,42.15-19.37c13.24-5.2,26.88-9,41.06-10.48 c7.66-0.8,15.36-0.84,23.01,0.33c6.88,1.05,13.16,3.68,18.96,7.53c4.49,2.98,8.76,6.24,12.86,9.71 c15.29,12.95,33.1,20.1,52.71,23.29c9.33,1.52,18.74,2.29,28.13,3.3c15.36,1.65,29.49,6.46,41.46,16.5 c9.05,7.59,15.89,16.8,19.29,28.29c1.75,5.93,2.19,12.03,1.78,18.16c-0.84,12.66-2.25,25.27-3.04,37.93 c-0.9,14.35-1.12,28.71-0.37,43.06c0.8,15.35,1.86,30.69,2.45,46.05c0.42,11.02,0.1,22.03-0.77,33.04 c-1.12,14.12-2.83,28.2-3.09,42.38c-0.14,7.51,0.43,15,0.88,22.48c0.46,7.86,1.1,15.72-0.74,23.52 c-2.48,10.54-8.18,18.74-17.51,24.33c-8.82,5.29-18.46,8.02-28.62,9.15c-3.98,0.44-7.95,0.32-11.93,0.18 c-10.75-0.38-21.5-0.42-32.25-0.11c-8.15,0.24-16.29,0.69-24.44,0.55c-6.68-0.12-13.27-1.18-19.92-1.73 c-10.25-0.84-20.49-1.78-30.78-1.71c-10.1,0.07-20.17,0.72-30.24,1.46c-6.28,0.47-12.56,0.87-18.85,1.25 c-8.23,0.5-16.45,0.97-24.68,1.43c-23.05,1.29-46.12,1.52-69.19,1.21c-23.45-0.32-46.89-0.26-70.34-0.32 c-8.99-0.02-17.97-0.27-26.91-1.23c-7.41-0.79-14.6-2.43-21.4-5.6c-6.32-2.95-11.63-7.21-16.21-12.42 c-1.23-1.39-2.27-2.93-3.12-4.59c-3.9-7.61-7.2-15.45-9.34-23.75c-1.23-4.78-1.74-9.67-1.61-14.6c0.2-7.97,0.58-15.95,2.28-23.76 c1.35-6.17,1.43-12.3,0.47-18.5c-0.48-3.11-0.86-6.24-1.34-9.36c-0.48-3.12-0.7-6.24-0.65-9.41c0.22-12.98-0.56-25.93-1.03-38.9 c-0.46-12.6-0.57-25.2,0.32-37.79c0.77-10.9,1.48-21.8,2.39-32.69c1.24-14.77,2.79-29.5,6.64-43.88 c4.21-15.7,10.96-30.1,21.97-42.25c5.75-6.34,12.03-12.08,19.51-16.38c7.05-4.05,14.67-6.07,22.76-6.5 C81.43,49.85,88.94,50.44,96.1,50.28z" fill="#FBF7D5"/></g></svg>