<?xml version="1.0" encoding="UTF-8"?><!DOCTYPE svg PUBLIC "-//W3C//DTD SVG 1.0//EN" "http://www.w3.org/TR/2001/REC-SVG-20010904/DTD/svg10.dtd" []><svg xmlns="http://www.w3.org/2000/svg" xmlns:xlink="http://www.w3.org/1999/xlink" height="623.9" preserveAspectRatio="xMidYMid meet" version="1.0" viewBox="-1.9 -9.1 802.2 623.9" width="802.2" zoomAndPan="magnify"><g><g><path d="M704.25,574.52c-20.15,10.68-42.62,16.66-65.06,20.89c-26.57,5.01-53.34,8.68-80.3,11.02 c-0.38,0.03-64.36,5.33-81.92,5.93c-71.2,2.43-220.28-3.77-223.42-4.3c-1.95-0.33-4.37-0.58-7.28-0.76 c-28.39-1.77-58.06-5.67-89.01-11.7c-22.26-4.33-45.95-10.04-66.19-21.15c-16.59-9.75-28.54-23-35.84-39.75 c-8.5-19.5-9.63-43.72,1.64-62.42c0.17-0.28,0.1-0.48-0.2-0.61c-13.11-5.54-19.15-15.58-18.12-30.13c0.04-0.71-0.49-1.31-1.2-1.36 c-0.02,0-0.05,0-0.07,0c-14.99-0.12-30.17-11.29-29.81-27.49c0.23-10.14,6.68-18.73,16.18-22.06c6.91-2.42,17.55-1.84,25.8-1.83 c0.33,0,0.45-0.16,0.36-0.49c-3.98-13.26-3.48-26.35,1.49-39.26c0.15-0.4,0.02-0.56-0.4-0.48c-11.78,2.21-23.48,4.73-35.11,7.54 c-1.7,0.41-4.2,0.11-7.5-0.9c-9.31-2.85-9.44-11.92-6.82-19.79c5.21-15.67,15.18-27.13,29.91-34.37c0.16-0.07,0.23-0.25,0.16-0.41 c-0.04-0.1-0.13-0.17-0.24-0.18c-18.35-3.08-33.25-21.9-20.07-39.33c9.03-11.96,24.38-9.64,37.22-8.76 c0.37,0.02,0.54-0.16,0.51-0.53c-0.64-7.47,1.23-14.23,5.62-20.28c0.19-0.26,0.22-0.54,0.07-0.83 c-8.12-16.32-6.25-37.29-0.99-54.51c12.37-40.53,41.2-73.65,75.11-98.42C179.1,41.03,238.72,20.01,299.86,9.04 C401.2-9.14,510.71-0.63,605.6,41.25c52.41,23.12,103.62,61.7,129,114.52c11.35,23.62,16.43,51.43,6.58,76.5 c-0.12,0.31-0.09,0.6,0.08,0.87c13.54,22.26-0.36,44.49-23.76,49.6c-0.44,0.09-0.53,0.32-0.26,0.68l1.73,2.3 c0.18,0.24,0.47,0.36,0.77,0.33c3.73-0.37,6.34-0.41,7.82-0.11c37.34,7.62,67.06,38.25,68.92,77.07c0.14,3-0.28,5.44-1.26,7.33 c-3.66,7-9.93,6.8-17.3,5.24c-10.56-2.22-21.2-4.59-31.92-7.1c-0.12-0.03-0.24,0.03-0.27,0.15c-0.01,0.04-0.01,0.08,0,0.11 c3.51,13.52,1.79,26.31-5.18,38.38c-0.14,0.23-0.06,0.53,0.17,0.67c0.07,0.04,0.15,0.07,0.24,0.07c13.16,0.52,24.94,1.8,36.89,9.1 c9.17,5.61,16.37,14.35,18.69,24.81c3.67,16.49-8.25,33.87-24.54,37c-12.54,2.42-21.98-1.97-31.83-9.09 c-0.53-0.38-1.26-0.27-1.65,0.26c-0.28,0.38-0.3,0.88-0.07,1.28C759.63,508.58,738.52,553.64,704.25,574.52z" fill="#181510"/></g><g><g><path d="M344.27,264.94c-0.22,0-0.42-0.15-0.48-0.37c-0.07-0.27,0.09-0.54,0.36-0.61c0.79-0.21,1.5-0.48,2.18-0.74 c1.26-0.48,2.45-0.94,4.01-1.01c107.88-5.16,208.9-21.3,300.25-47.98c19.48-5.69,40.02-12.15,58.15-23.12 c6.37-3.85,12.17-8.94,17.24-15.11c0.18-0.21,0.49-0.24,0.7-0.07c0.21,0.18,0.24,0.49,0.07,0.7 c-5.15,6.26-11.03,11.42-17.5,15.33c-18.24,11.03-38.84,17.52-58.39,23.22c-91.43,26.7-192.53,42.86-300.49,48.02 c-1.4,0.07-2.52,0.5-3.7,0.95c-0.71,0.27-1.44,0.55-2.28,0.78C344.35,264.93,344.31,264.94,344.27,264.94z" fill="#f18810"/></g><g><path d="M264.05,285.71c-1.11,0-2.25-0.12-3.4-0.35c-4.22-0.88-7.16-3.28-7.87-6.42c-0.63-2.81,0.9-5.19,4.57-7.06 c0.25-0.12,0.55-0.03,0.67,0.22c0.13,0.25,0.03,0.55-0.22,0.67c-3.25,1.66-4.58,3.6-4.05,5.94c0.62,2.75,3.27,4.86,7.1,5.66 c4.55,0.95,9.22-0.24,11.12-2.82c1.44-1.95,1.29-4.61-0.43-7.7c-0.13-0.24-0.05-0.55,0.19-0.68c0.24-0.13,0.55-0.05,0.68,0.19 c2.43,4.36,1.54,7.18,0.36,8.78C271.13,284.41,267.78,285.71,264.05,285.71z" fill="#7e3914"/></g><g><path d="M499.45,285.12c-3.81,0-6.7-0.81-8.63-2.44c-1.76-1.48-2.69-3.62-2.77-6.37 c-0.01-0.28,0.21-0.51,0.49-0.51c0,0,0.01,0,0.01,0c0.27,0,0.49,0.21,0.5,0.49c0.07,2.45,0.88,4.35,2.41,5.63 c2.49,2.09,6.85,2.7,12.97,1.8c2.36-0.35,4.04-1.21,5.01-2.56c1.02-1.42,1.29-3.46,0.82-6.06c-0.05-0.27,0.13-0.53,0.4-0.58 c0.26-0.04,0.53,0.13,0.58,0.4c0.52,2.88,0.19,5.17-0.99,6.82c-1.13,1.58-3.04,2.57-5.68,2.96 C502.72,284.99,501.01,285.12,499.45,285.12z" fill="#7e3914"/></g><g><path d="M533.59,323.67c-0.25,0-0.47-0.19-0.5-0.45c-0.03-0.28,0.18-0.52,0.45-0.54c0.19-0.02,0.34-0.07,0.45-0.16 l0.41-0.42L534,322.4c-2.03-2.57-3.39-5.49-4.03-8.68c-0.04-0.24-0.15-0.41-0.33-0.56l-3.45-2.76c-0.22-0.17-0.25-0.49-0.08-0.7 c0.17-0.21,0.49-0.25,0.7-0.08l3.45,2.76c0.37,0.3,0.6,0.68,0.69,1.15c0.61,3.03,1.9,5.81,3.83,8.25 c0.4,0.52,0.34,1.09-0.17,1.51c-0.26,0.22-0.6,0.34-0.99,0.38C533.62,323.67,533.6,323.67,533.59,323.67z" fill="#8dd506"/></g><g><path d="M352.4,325.29C352.39,325.29,352.39,325.29,352.4,325.29c-0.29-0.01-0.5-0.23-0.5-0.51 c0.09-4.46-0.35-8.96-1.31-13.37c-0.06-0.27,0.11-0.54,0.38-0.59c0.27-0.06,0.54,0.11,0.59,0.38c0.97,4.48,1.42,9.06,1.33,13.6 C352.89,325.07,352.67,325.29,352.4,325.29z" fill="#d3e518"/></g><g><path d="M780.41,344.99c-0.04,0-0.07,0-0.11-0.01c-4.47-0.96-8.89-2.02-13.13-3.16c-0.41-0.11-0.85-0.13-1.33-0.15 c-1.05-0.05-2.25-0.11-3.19-1.23c-0.12-0.14-0.28-0.19-0.47-0.19c-1.77,0-3.5-0.32-5.14-0.95c-0.24-0.09-0.49-0.12-0.73-0.08 c-2.82,0.43-5.38-0.28-7.63-0.9c-0.89-0.24-1.72-0.47-2.47-0.6c-8.38-1.41-16.89-2.68-25.31-3.8c-4.33-0.57-8.21-1.66-11.96-2.72 c-1.98-0.56-4.02-1.13-6.1-1.62c-0.32-0.08-0.58-0.27-0.75-0.54c-0.17-0.27-0.22-0.6-0.14-0.91c0.07-0.28,0.24-0.53,0.47-0.69 c0.08-0.06,0.15-0.17,0.21-0.32c0.09-0.26,0.38-0.4,0.64-0.3c0.26,0.09,0.4,0.38,0.3,0.64c-0.13,0.36-0.32,0.63-0.58,0.81 c-0.03,0.02-0.06,0.06-0.07,0.11c-0.02,0.09,0.06,0.22,0.15,0.24c2.1,0.49,4.15,1.07,6.14,1.63c3.71,1.04,7.55,2.12,11.82,2.69 c8.43,1.12,16.96,2.4,25.35,3.8c0.79,0.13,1.66,0.37,2.57,0.62c2.16,0.6,4.61,1.27,7.22,0.88c0.42-0.07,0.85-0.02,1.25,0.14 c1.54,0.59,3.12,0.89,4.83,0.89c0.46,0,0.87,0.19,1.18,0.54c0.67,0.79,1.51,0.83,2.48,0.88c0.5,0.02,1.03,0.05,1.54,0.19 c4.22,1.13,8.62,2.19,13.08,3.14c0.27,0.06,0.44,0.32,0.38,0.59C780.84,344.83,780.64,344.99,780.41,344.99z" fill="#ffbd23"/></g><g><path d="M137.22,381.76c-0.15,0-0.27-0.04-0.36-0.08c-0.17-0.08-0.38-0.27-0.47-0.69 c-1.06-5.07-2.17-9.55-3.3-13.33c-7.65-25.49-30.67-44.36-58.65-48.07c-5.25-0.69-10.94-1.06-16.99-1.04 c-7.62,0.01-32.41,2.62-35.67,7.3c-0.26,0.37-0.66,0.62-1.1,0.69c-0.9,0.13-1.28-0.31-1.43-0.59c-0.13-0.24-0.04-0.55,0.21-0.68 c0.24-0.13,0.54-0.04,0.68,0.21c0.01,0.03,0.06,0.12,0.4,0.07c0.17-0.03,0.33-0.13,0.43-0.27c3.89-5.6,31.21-7.73,36.49-7.73 c6.08-0.04,11.84,0.34,17.13,1.04c28.37,3.76,51.71,22.91,59.47,48.77c1.13,3.78,2.24,8.26,3.3,13.32 c21.42-10.05,43.69-18.59,66.26-25.41c36.91-11.15,76.41-17.36,117.39-18.47c8.55-0.23,15.07-0.08,19.39,0.46 c5.68,0.72,12.76,0.42,21.02-0.89c0.27-0.04,0.53,0.14,0.57,0.42c0.04,0.27-0.14,0.53-0.42,0.57c-8.36,1.32-15.52,1.62-21.3,0.89 c-4.26-0.53-10.74-0.69-19.23-0.46c-40.9,1.11-80.3,7.31-117.13,18.43c-22.57,6.82-44.85,15.37-66.2,25.4 C137.52,381.73,137.36,381.76,137.22,381.76z" fill="#ffbd23"/></g><g><path d="M111.31,377.58c-0.15,0-0.31-0.07-0.4-0.21c-6.04-8.28-13.44-17.27-22.63-21.12 c-4.6-1.93-10.01-1.77-16.54,0.49c-1.64,0.56-3.21,1.53-4.87,2.56c-1.11,0.68-2.25,1.39-3.44,1.98 c-0.25,0.12-0.55,0.02-0.67-0.22c-0.12-0.25-0.02-0.55,0.22-0.67c1.15-0.57,2.27-1.26,3.36-1.93c1.64-1.01,3.33-2.05,5.07-2.65 c6.78-2.34,12.42-2.49,17.26-0.47c9.41,3.95,16.93,13.06,23.05,21.46c0.16,0.22,0.11,0.54-0.11,0.7 C111.51,377.55,111.41,377.58,111.31,377.58z" fill="#cf0b01"/></g><g><path d="M613.8,378.45c-0.25,0-0.47-0.19-0.5-0.45c-0.03-0.28,0.17-0.52,0.45-0.55 c27.96-2.78,55.62-8.28,82.2-16.33c0.26-0.08,0.54,0.07,0.62,0.33c0.08,0.26-0.07,0.54-0.33,0.62 c-26.64,8.07-54.36,13.58-82.38,16.37C613.84,378.45,613.82,378.45,613.8,378.45z" fill="#b19383"/></g><g><path d="M602.33,387.92c-0.26,0-0.47-0.2-0.5-0.46c-0.02-0.27,0.18-0.52,0.45-0.54 c22.72-2.02,46.82-5.84,71.62-11.35c14.01-3.12,26.9-7.5,38.29-13.03c0.25-0.12,0.55-0.02,0.67,0.23 c0.12,0.25,0.02,0.55-0.23,0.67c-11.46,5.57-24.42,9.98-38.51,13.11c-24.85,5.52-48.99,9.34-71.75,11.37 C602.36,387.92,602.34,387.92,602.33,387.92z" fill="#d27b7b"/></g><g><path d="M612.89,435.14c-0.08,0-0.17-0.02-0.25-0.06c-0.24-0.14-0.33-0.44-0.19-0.68 c3.97-7.02,7.48-12.52,10.43-16.36c10.63-13.86,24.14-24.45,40.14-31.47c24.02-10.54,46.6-16.58,67.12-17.94 c0.27-0.02,0.51,0.19,0.53,0.47c0.02,0.28-0.19,0.51-0.47,0.53c-20.41,1.35-42.87,7.36-66.78,17.86 c-15.85,6.96-29.22,17.45-39.75,31.17c-2.92,3.8-6.41,9.26-10.35,16.24C613.23,435.05,613.06,435.14,612.89,435.14z" fill="#cf0b01"/></g><g><path d="M397.08,379.52C397.08,379.52,397.08,379.52,397.08,379.52c-42.21-0.17-84.94-2.21-127.01-6.08 c-0.27-0.03-0.48-0.27-0.45-0.54c0.03-0.28,0.28-0.47,0.54-0.45c42.04,3.87,84.74,5.91,126.92,6.08c0.28,0,0.5,0.23,0.5,0.5 C397.58,379.3,397.35,379.52,397.08,379.52z" fill="#b19383"/></g><g><path d="M407.57,386.65c-45.21,0-90.17-1.83-133.91-5.47c-8.97-0.74-19.32-1.97-30.75-3.65 c-0.27-0.04-0.46-0.29-0.42-0.57c0.04-0.27,0.3-0.45,0.57-0.42c11.42,1.68,21.74,2.9,30.69,3.65c49.18,4.09,99.91,5.9,150.8,5.38 c0.24-0.03,0.5,0.22,0.5,0.5s-0.22,0.5-0.5,0.5C418.89,386.62,413.22,386.65,407.57,386.65z" fill="#d27b7b"/></g><g><path d="M495.01,441.15c-0.09,0-0.18-0.02-0.26-0.08c-0.24-0.14-0.31-0.45-0.16-0.69 c0.08-0.12,0.13-0.21-0.14-0.42c-1.55-1.21-3.1-2.42-4.65-3.63c-11.4-8.93-23.19-18.17-35.98-25.17 c-12.58-6.89-26.05-11.54-40.04-13.83c-4.19-0.69-10.87-1.29-19.85-1.78c-7.75-0.43-15.51-0.81-23.27-1.2 c-16.18-0.8-32.91-1.63-49.34-2.84c-16.75-1.23-33.78-2.42-50.62-3.52c-40.86-2.68-84.18,15.07-121.15,32.77 c-0.25,0.12-0.55,0.01-0.67-0.24c-0.12-0.25-0.01-0.55,0.24-0.67c37.09-17.76,80.56-35.55,121.65-32.87 c16.84,1.1,33.87,2.29,50.62,3.52c16.41,1.21,33.14,2.04,49.31,2.84c7.76,0.39,15.52,0.77,23.28,1.2 c9.02,0.5,15.73,1.1,19.95,1.8c14.1,2.3,27.68,6.99,40.36,13.93c12.86,7.04,24.69,16.3,36.12,25.26 c1.55,1.21,3.09,2.42,4.64,3.63c0.62,0.47,0.76,1.12,0.38,1.74C495.35,441.07,495.18,441.15,495.01,441.15z" fill="#cf0b01"/></g><g><path d="M234.67,458.36c-0.04,0-0.07,0-0.11-0.01c-12.62-2.77-26.75-11.4-40.14-20.31 c-0.79-0.53-2.29-0.97-4.44-1.3c-0.59-0.09-0.94-0.51-0.93-1.11c0.01-0.39-0.14-0.54-0.29-0.62c-0.24-0.14-0.32-0.45-0.17-0.68 c0.14-0.24,0.45-0.32,0.68-0.17c0.36,0.21,0.79,0.65,0.78,1.5c0,0,0.09,0.11,0.09,0.11c2.33,0.36,3.91,0.84,4.84,1.46 c13.31,8.86,27.34,17.44,39.8,20.17c0.27,0.06,0.44,0.33,0.38,0.6C235.1,458.2,234.9,458.36,234.67,458.36z" fill="#8dd506"/></g><g><path d="M701.33,453.17c-1.35,0-2.88-0.27-4.58-0.82l0,0.23c0.01,0.28-0.21,0.51-0.49,0.51 c-0.27,0.01-0.5-0.21-0.51-0.49l-0.01-0.38c-0.01-0.45,0.17-0.68,0.33-0.79c0.16-0.11,0.42-0.22,0.85-0.08 c2.37,0.78,4.37,1,5.93,0.67c18.49-4.01,28.11-15.78,28.61-34.98c0.01-0.28,0.27-0.51,0.51-0.49c0.28,0.01,0.49,0.24,0.49,0.51 c-0.5,19.73-10.39,31.82-29.39,35.94C702.53,453.11,701.95,453.17,701.33,453.17z" fill="#8dd506"/></g><g><path d="M677.05,481.96c-1.3,0-2.5-0.15-3.5-0.52c-2.62-0.96-4.56-3.47-5.07-6.54c-0.47-2.87,0.42-5.53,2.38-7.12 c1.64-1.32,4.29-2.05,6.85-2.75c0.26-0.07,0.51-0.14,0.76-0.21c-0.73-0.01-1.46-0.13-2.24-0.38 c-15.47-4.91-30.02-12.42-43.23-22.31c-0.22-0.17-0.27-0.48-0.1-0.7c0.17-0.22,0.48-0.26,0.7-0.1 c13.12,9.82,27.56,17.27,42.93,22.15c1.54,0.49,2.83,0.38,4.43,0.05c0.36-0.11,0.78,0.12,0.89,0.52c0.06,0.19,0.04,0.4-0.06,0.57 c-0.1,0.18-0.25,0.3-0.45,0.36c-1.02,0.36-2.21,0.69-3.36,1.01c-2.46,0.68-5.01,1.37-6.48,2.56c-1.68,1.36-2.44,3.67-2.03,6.18 c0.45,2.72,2.14,4.93,4.42,5.76c4.47,1.65,13.99-1.47,18.91-3.57c0.17-0.07,0.26-0.18,0.3-0.36l0.94-3.93 c0.12-0.56,0.66-0.92,1.24-0.82l13.71,2.48c0.27,0.05,0.45,0.31,0.4,0.58c-0.05,0.27-0.32,0.44-0.58,0.4l-13.71-2.48 c0,0-0.08,0.06-0.08,0.06l-0.94,3.93c-0.12,0.49-0.42,0.85-0.88,1.04C692.05,478.34,683.34,481.96,677.05,481.96z M681.2,464.51 c-0.01,0-0.02,0-0.04,0.01C681.18,464.52,681.19,464.51,681.2,464.51z M681.04,464.04c-0.01,0-0.01,0-0.02,0.01 C681.03,464.04,681.03,464.04,681.04,464.04z" fill="#7e3914"/></g><g><path d="M237.08,488.77c-1.06,0-2.12-0.22-3.11-0.66c-2.79-1.24-4.55-4.03-4.83-7.65 c-16.63,0.84-33.85-5.19-48.69-10.91c-0.18-0.07-0.33-0.06-0.49,0.03c-6.89,4.07-13.31,7.46-19.08,10.06 c-18.37,8.29-39.13,5.68-56.94-7.17c-4.12-2.97-9.33-2.61-14.27,0.99c-0.22,0.16-0.54,0.11-0.7-0.11 c-0.16-0.22-0.11-0.54,0.11-0.7c5.31-3.87,10.95-4.23,15.45-0.99c17.51,12.64,37.9,15.22,55.94,7.07 c5.74-2.58,12.12-5.95,18.98-10c0.43-0.25,0.9-0.29,1.36-0.1c14.74,5.68,31.85,11.67,48.26,10.83c0.63-0.02,1.02,0.34,1.06,0.94 c0.34,4.44,2.8,6.18,4.24,6.81c2.2,0.97,4.82,0.68,6.68-0.76c1.97-1.53,2.78-4.03,2.29-7.04c-0.1-0.59,0.18-1.05,0.77-1.22 c3.97-1.11,8.04-0.98,12.11,0.38c16.03,5.33,34.16,3.29,55.45-6.24c1.06-0.48,2.13-0.25,3.08-0.05l0.32,0.07 c0.38,0.08,0.72,0.24,1.03,0.45c12.94,9.4,27.27,12.85,42.59,10.25c16.59-2.81,32.56-9.63,47.44-20.28 c6.12-4.38,12.43-9.01,18.76-13.76c0.22-0.17,0.53-0.12,0.7,0.1c0.17,0.22,0.12,0.53-0.1,0.7c-6.33,4.76-12.65,9.4-18.78,13.78 c-15.01,10.74-31.11,17.62-47.86,20.46c-15.59,2.64-30.17-0.87-43.34-10.43c-0.19-0.14-0.41-0.23-0.65-0.29l-0.32-0.07 c-0.87-0.19-1.69-0.36-2.46-0.02c-21.53,9.64-39.9,11.69-56.17,6.28c-3.88-1.3-7.75-1.42-11.52-0.36c0,0-0.06,0.09-0.06,0.1 c0.55,3.34-0.42,6.26-2.66,7.99C240.36,488.25,238.73,488.77,237.08,488.77z" fill="#7e3914"/></g><g><path d="M574.82,471.75c-0.03,0-0.05,0-0.07,0c-4.21-0.17-8.5-0.91-12.75-2.17c-0.26-0.08-0.42-0.36-0.34-0.62 c0.08-0.26,0.35-0.41,0.62-0.34c4.17,1.24,8.38,1.96,12.51,2.13c0.34,0.04,0.61-0.18,0.72-0.48l8.82-24.03 c0.1-0.26,0.38-0.39,0.64-0.3c0.26,0.1,0.39,0.38,0.3,0.64l-8.82,24.03C576.2,471.3,575.55,471.75,574.82,471.75z" fill="#7e3914"/></g><g><path d="M284.79,595.69c-0.36,0-0.72-0.01-1.08-0.04c-0.28-0.02-0.48-0.26-0.46-0.54 c0.02-0.27,0.27-0.48,0.54-0.46c1.97,0.16,3.96-0.21,5.72-0.53c1.15-0.21,2.24-0.41,3.23-0.46c42.96-2.13,77.04-4.02,124.51-8.89 c59.79-6.13,119.81-16.04,178.39-29.44c20.58-4.71,41.84-10.44,63.2-17.03c20.22-6.24,41.51-14.12,60.28-29.43 c5.44-4.44,9.38-9.34,11.72-14.58c0.11-0.25,0.41-0.36,0.66-0.25c0.25,0.11,0.37,0.41,0.25,0.66c-2.4,5.38-6.44,10.41-12,14.94 c-18.9,15.42-40.31,23.34-60.62,29.61c-21.39,6.6-42.68,12.33-63.28,17.05c-58.62,13.42-118.68,23.33-178.51,29.46 c-47.5,4.87-81.59,6.76-124.57,8.89c-0.93,0.04-1.99,0.24-3.1,0.45C288.19,595.38,286.52,595.69,284.79,595.69z" fill="#f18810"/></g></g><g><path d="M726.37,176.31c-5.13,6.25-10.92,11.32-17.37,15.22c-17.83,10.78-37.92,17.23-58.27,23.17 c-97.62,28.51-198.9,43.15-300.37,48c-2.34,0.11-3.87,1.15-6.09,1.74c-63.57-1.83-127.3-6.77-189.99-17.69 c-27.63-4.81-54.71-11.78-81.23-20.9c-5.76-1.98-7.66-8.4-8.1-13.93c-3.89-49.42,36.61-96.09,74.18-122.76 c63.36-44.98,141.24-65.62,218.46-72.13c25.83-2.18,51.66-2.35,77.47-0.52c60.17,4.26,118.13,16.95,172.5,42.72 c39.43,18.68,77.56,46.59,102.09,83.21C716.97,153.36,722.54,164.65,726.37,176.31z" fill="#ff981f"/></g><g><path d="M109.74,155.78c-7.38-3.13-10.68-9.98-7.78-17.83c2.37-6.43,8.04-11.77,13.14-16.31 c21.67-19.3,46.23-35.32,73.66-48.05c71.7-33.27,151.16-48.43,230.5-47.8c8.68,0.07,16.17,5.17,15.42,14.39 c-0.75,9.33-9.39,12.4-17.55,12.83c-99.16,5.2-207.14,30.69-284.89,96.51C126.4,154.47,117.3,158.99,109.74,155.78z" fill="#fefdef"/></g><g><path d="M394.45,74.88c-3.97-2.56-3.28-8.13,0.76-9.92c4.41-1.94,15.44-0.36,18.73,0.19 c8.14,1.37,6.69,12.76-1.93,12.2C407.39,77.05,398.45,77.44,394.45,74.88z" fill="#f7f6f5"/></g><g><circle cx="453.69" cy="72.92" fill="#f7f6f5" r="8.85"/></g><g><path d="M555.48,78.49l13.32-4.25c3.16-1.01,6.53,0.73,7.54,3.89l0.16,0.51c1.01,3.16-0.73,6.53-3.89,7.54 l-13.32,4.25c-3.16,1.01-6.53-0.73-7.54-3.89l-0.16-0.51C550.58,82.87,552.32,79.5,555.48,78.49z" fill="#f7f6f5"/></g><g><path d="M433.77,104.08c-9.22-2.06-7.44-13.38,1.48-12.47c4.23,0.43,8.67,1.47,13.32,3.12 c8.86,3.14,5.03,12.9-3.2,11.57C441.47,105.67,437.61,104.93,433.77,104.08z" fill="#f7f6f5"/></g><g><circle cx="263.71" cy="103.85" fill="#f7f6f5" r="8.79"/></g><g><path d="M308.86,97l0.41,0.35c2.55,2.19,2.83,6.03,0.64,8.57l-8.84,10.28c-2.19,2.55-6.03,2.83-8.57,0.64 l-0.41-0.35c-2.55-2.19-2.83-6.03-0.64-8.57l8.84-10.28C302.47,95.1,306.31,94.81,308.86,97z" fill="#f7f6f5"/></g><g><path d="M575.26,97.11l11.9,3.89c3.7,1.21,5.71,5.18,4.5,8.88l-0.23,0.7c-1.21,3.7-5.18,5.71-8.88,4.5l-11.9-3.89 c-3.7-1.21-5.71-5.18-4.5-8.88l0.23-0.7C567.59,97.92,571.56,95.9,575.26,97.11z" fill="#181510"/></g><g><circle cx="471.27" cy="119.37" fill="#f7f6f5" r="8.76"/></g><g><path d="M616.15,136.56c-5.04,3.03-13.85-0.58-10.65-7.25c1.74-3.63,12.56-9.17,15.01-10.01 c3.98-1.37,8.06,1.18,9.01,5.14C630.87,130.14,621.04,133.6,616.15,136.56z" fill="#f7f6f5"/></g><g><path d="M421.96,121.52l10.83,6.82c3.22,2.03,4.19,6.29,2.16,9.52l-0.34,0.54c-2.03,3.22-6.29,4.19-9.52,2.16 l-10.83-6.82c-3.22-2.03-4.19-6.29-2.16-9.52l0.34-0.54C414.47,120.46,418.73,119.49,421.96,121.52z" fill="#181510"/></g><g><path d="M253.9,128.33l0.7,0.24c3.64,1.23,5.6,5.17,4.38,8.82l-3.96,11.75c-1.23,3.64-5.17,5.6-8.82,4.38l-0.7-0.24 c-3.64-1.23-5.6-5.17-4.38-8.82l3.96-11.75C246.31,129.06,250.26,127.1,253.9,128.33z" fill="#181510"/></g><g><path d="M534.13,130.01l0.58-0.23c3.15-1.25,6.71,0.3,7.96,3.44l4.54,11.45c1.25,3.15-0.3,6.71-3.44,7.96 l-0.58,0.23c-3.15,1.25-6.71-0.3-7.96-3.44l-4.54-11.45C529.44,134.81,530.99,131.25,534.13,130.01z" fill="#f7f6f5"/></g><g><path d="M319.68,145.91c-3.21-2.03-4.42-6.49-1.76-9.35c2.4-2.6,9.62-3.35,13.14-3.73c4.9-0.53,7.71-1.4,10.81,1.15 c2.8,2.3,3.2,6.48,0.44,8.92C338.91,145.9,322.92,147.95,319.68,145.91z" fill="#f7f6f5"/></g><g><circle cx="389.14" cy="142.24" fill="#f7f6f5" r="8.99"/></g><g><path d="M638.36,168.88c-4.57,5.62-13.18,1.85-10.9-5.61c1.54-5.01,3.84-9.65,6.91-13.91 c4.42-6.12,12.83-0.52,10.57,5.93C642.68,161.73,640.49,166.26,638.36,168.88z" fill="#f7f6f5"/></g><g><path d="M203.18,148l13.97,3.87c3.23,0.89,5.11,4.23,4.22,7.46l-0.15,0.56c-0.89,3.23-4.23,5.11-7.46,4.22 l-13.97-3.87c-3.23-0.89-5.11-4.23-4.22-7.46l0.15-0.56C196.61,149,199.95,147.11,203.18,148z" fill="#f7f6f5"/></g><g><circle cx="276.28" cy="157.51" fill="#f7f6f5" r="8.99"/></g><g><path d="M500.06,157.41l0.45,0.43c2.81,2.7,2.9,7.17,0.19,9.98l-8.56,8.89c-2.7,2.81-7.17,2.9-9.98,0.19l-0.45-0.43 c-2.81-2.7-2.9-7.17-0.19-9.98l8.56-8.89C492.78,154.79,497.25,154.71,500.06,157.41z" fill="#181510"/></g><g><path d="M142,160.96l13.33,0.96c3.75,0.27,6.57,3.53,6.31,7.28l-0.06,0.78c-0.27,3.75-3.53,6.57-7.28,6.31 l-13.33-0.96c-3.75-0.27-6.57-3.53-6.31-7.28l0.06-0.78C134.99,163.51,138.25,160.69,142,160.96z" fill="#181510"/></g><g><circle cx="587.23" cy="173.47" fill="#f7f6f5" r="8.85"/></g><g><path d="M726.37,176.31c3.71,10.59,10.81,44.98-2.95,50.33c-26.82,10.43-54.9,16.99-84.26,21.82 c-97.11,15.95-196.65,19.67-294.89,15.98c2.22-0.59,3.75-1.63,6.09-1.74c101.47-4.85,202.75-19.49,300.37-48 c20.35-5.94,40.44-12.39,58.27-23.17C715.44,187.63,721.23,182.56,726.37,176.31z" fill="#e27700"/></g><g><path d="M181.56,202.58c-4.75,1.3-9.1-2.89-7.59-7.85c1.43-4.71,3.41-9.22,5.94-13.53 c4.52-7.69,15.19-1.98,11.16,7.16C189.21,192.58,185.83,201.41,181.56,202.58z" fill="#f7f6f5"/></g><g><circle cx="345.87" cy="188.32" fill="#f7f6f5" r="8.84"/></g><g><path d="M418.87,181.64l0.42,0.4c2.5,2.39,2.58,6.36,0.19,8.85l-8.82,9.2c-2.39,2.5-6.36,2.58-8.85,0.19l-0.42-0.4 c-2.5-2.39-2.58-6.36-0.19-8.85l8.82-9.2C412.41,179.33,416.37,179.25,418.87,181.64z" fill="#f7f6f5"/></g><g><path d="M287.87,190.58l12.87,2.83c3.73,0.82,6.08,4.51,5.26,8.23l-0.16,0.74c-0.82,3.73-4.51,6.08-8.23,5.26 l-12.87-2.83c-3.73-0.82-6.08-4.51-5.26-8.23l0.16-0.74C280.45,192.12,284.14,189.76,287.87,190.58z" fill="#181510"/></g><g><circle cx="531.93" cy="201.87" fill="#f7f6f5" r="8.86"/></g><g><circle cx="207.71" cy="212.17" fill="#f7f6f5" r="8.69"/></g><g><circle cx="483.2" cy="219.54" fill="#f7f6f5" r="8.86"/></g><g><path d="M257.59,272.33c-3.45,1.76-4.89,3.93-4.31,6.5c2.22,9.83,26.31,8.44,18.71-5.21 c72.82,4.82,143.88,6.53,216.57,2.68c0.24,8.86,9.59,8.85,15.95,7.92c5.15-0.76,7.23-3.83,6.25-9.2 c70.31-4.46,138.12-11.95,204.65-32.37c4.71-1.45,8.03-2.06,9.96-1.84c7.99,0.93,9.38,11.47,6.93,17.87 c-3.04,7.94-11.66,12.61-19.54,15.11c-48.19,15.3-100.27,22.01-149.31,25.9c-75.76,6-158.66,6.55-231.43,3.1 c-46.15-2.19-92.13-6.19-137.96-12.01c-17.51-2.23-34.92-5.05-52.24-8.47c-22.5-4.45-45.65-9.96-66.64-19.36 c-3.13-1.4-5.92-3.24-8.37-5.52c-6.06-5.62-5.15-13.89,2.45-17.85c1.78-0.93,3.71-1.05,5.79-0.35 c22.28,7.52,46.83,13.83,73.65,18.93C187.47,265.53,220.92,268.53,257.59,272.33z" fill="#904218"/></g><g><path d="M183.71,311.37c-13.15-1.12-23.9,6.05-36.93,7.17c-7.9,0.68-16.98,0.85-23.41-4.63 c-5.01-4.27-4.14-11.83-9.37-16.12c-2.92-2.39-6.27-3.61-10.05-3.66c-22.67-0.35-39.15-0.95-49.43-1.78 c-9.01-0.74-42.84-4.47-36.35-21.13c2.49-6.39,9.01-8.24,15.36-8.16c7.59,0.1,15.19,0.2,22.79,0.31c0.33,0,0.64,0.1,0.91,0.29 c11.21,7.83,24.22,12.46,37.55,16.12c47.35,13.01,96.4,19.69,145.17,24.08c0.2,0.03,0.34,0.21,0.31,0.4 c-0.01,0.11-0.08,0.21-0.18,0.27c-11.97,6.33-24.49,9.1-37.56,8.31C199.04,312.63,192.77,312.14,183.71,311.37z" fill="#a7e909"/></g><g><path d="M633.96,281c-9.85-2.57-8.07-14.71,1.56-15.96c6.77-0.87,18.92-1.08,17.51,9.51 C651.96,282.53,639.63,282.48,633.96,281z" fill="#6b3010"/></g><g><path d="M684.45,268.2c8.45,12.05-20.48,15.33-21.46,4.6c-0.49-5.41,2.76-7.39,7.79-7.64 C675.29,264.94,681.5,263.99,684.45,268.2z" fill="#6b3010"/></g><g><ellipse cx="169.38" cy="274.44" fill="#6b3010" rx="7.12" ry="7.38" transform="rotate(-88.298 169.376 274.43)"/></g><g><path d="M198.23,270.07l18.2,0.83c4.02,0.18,7.12,3.59,6.94,7.6l-0.04,0.78c-0.18,4.02-3.59,7.12-7.6,6.94 l-18.2-0.83c-4.02-0.18-7.12-3.59-6.94-7.6l0.04-0.78C190.81,273,194.22,269.89,198.23,270.07z" fill="#6b3010"/></g><g><path d="M257.59,272.33c4.69-0.07,9.49,0.36,14.4,1.29c7.6,13.65-16.49,15.04-18.71,5.21 C252.7,276.26,254.13,274.09,257.59,272.33z" fill="#6b3010"/></g><g><path d="M580.8,275.5l17.39-3.1c3.91-0.7,7.65,1.91,8.35,5.83l0.15,0.87c0.7,3.91-1.91,7.65-5.83,8.35l-17.39,3.1 c-3.91,0.7-7.65-1.91-8.35-5.83l-0.15-0.87C574.28,279.93,576.89,276.19,580.8,275.5z" fill="#6b3010"/></g><g><path d="M510.76,275.02c0.98,5.37-1.1,8.44-6.25,9.2c-6.36,0.93-15.71,0.94-15.95-7.92L510.76,275.02z" fill="#6b3010"/></g><g><path d="M390.82,281.07l17.51,1.81c3.95,0.41,6.82,3.94,6.41,7.89l-0.1,0.95c-0.41,3.95-3.94,6.82-7.89,6.41 l-17.51-1.81c-3.95-0.41-6.82-3.94-6.41-7.89l0.1-0.95C383.34,283.53,386.87,280.66,390.82,281.07z" fill="#6b3010"/></g><g><ellipse cx="453.78" cy="289.94" fill="#6b3010" rx="7.1" ry="7.37" transform="rotate(-87.501 453.792 289.955)"/></g><g><path d="M533.59,323.17c0.29-0.03,0.53-0.12,0.72-0.27c0.29-0.24,0.32-0.51,0.09-0.81 c-1.99-2.52-3.3-5.34-3.93-8.47c-0.07-0.35-0.24-0.63-0.51-0.85l-3.45-2.76c26.23-1.45,52.41-3.64,78.52-6.59 c34.01-3.84,68.62-9.17,101.45-18.72c1.03-0.3,2.13,0.13,2.69,1.05c9.06,14.89-2.15,29.56-17.06,33.35 c-8.19,2.09-16.39,1.46-24.61-1.88c-15.51-6.29-22.52-10.53-38.22-2.31c-14.76,7.73-29.5,7.38-44.22-1.07 c-2.08-1.19-3.7-1.81-4.86-1.85c-4.61-0.17-9.15,7.46-11.66,10.81c-4.27,5.69-9.46,6.79-16.54,5.21 C545.78,326.62,539.65,325.01,533.59,323.17z" fill="#73c002"/></g><g><path d="M780.41,344.49c-4.49-0.96-8.85-2.01-13.1-3.15c-1.42-0.38-3.08,0.19-4.27-1.22 c-0.21-0.25-0.48-0.37-0.8-0.37c-1.73,0.01-3.4-0.3-5.01-0.92c-0.31-0.12-0.66-0.16-0.99-0.11c-3.84,0.58-7.32-1.06-9.94-1.5 c-8.42-1.41-16.86-2.68-25.33-3.8c-6.58-0.87-11.98-2.91-18.01-4.33c-0.38-0.09-0.61-0.47-0.51-0.85c0.04-0.16,0.14-0.31,0.27-0.4 c0.17-0.11,0.3-0.3,0.39-0.56c12.43-6.28,18.97-16.24,19.61-29.88c0.02-0.35,0.2-0.5,0.54-0.44 C749.42,301.64,771.57,319.1,780.41,344.49z" fill="#ffe127"/></g><g><path d="M361.49,336.88c-8.35,1.32-15.4,1.62-21.16,0.89c-4.31-0.54-10.74-0.69-19.31-0.46 c-41.13,1.11-80.22,7.26-117.26,18.45c-22.71,6.86-44.8,15.34-66.27,25.43c-0.33,0.15-0.53,0.05-0.6-0.3 c-1.07-5.11-2.17-9.56-3.31-13.37c-8.04-26.79-31.83-44.81-59.06-48.42c-5.29-0.7-10.98-1.05-17.06-1.04 c-6.98,0.01-32.59,2.5-36.08,7.52c-0.18,0.26-0.46,0.43-0.77,0.48c-0.45,0.07-0.76-0.04-0.91-0.33 c14.26-18.7,37.13-22.07,59.14-22.36c12.94-0.18,21.75-0.13,26.43,0.15c4.36,0.25,5.53,8.63,7.12,11.68 c7.7,14.74,30.08,14.61,43.63,10.77c9.08-2.58,17.39-6.54,27.49-5.33c15.74,1.9,27.65,2.37,42.57-0.83 c0.35-0.08,0.62,0.04,0.81,0.35c4.78,7.76,6.62,7.76,15.53,8.93C283.44,334.49,321.55,335.16,361.49,336.88z" fill="#ffe127"/></g><g><path d="M351.08,311.31c0.97,4.47,1.41,8.96,1.32,13.48c-38.23-0.43-76.21-3.13-113.92-8.1 c-0.36-0.05-0.61-0.37-0.56-0.73c0.02-0.19,0.13-0.36,0.29-0.46c5.07-3.32,9.85-5.95,14.57-9.91c0.26-0.22,0.56-0.31,0.9-0.28 C286.04,308.37,318.5,310.37,351.08,311.31z" fill="#ffe127"/></g><g><path d="M526.51,310.01l3.45,2.76c0.27,0.22,0.44,0.5,0.51,0.85c0.63,3.13,1.94,5.95,3.93,8.47 c0.23,0.3,0.2,0.57-0.09,0.81c-0.19,0.15-0.43,0.24-0.72,0.27c-8.29-1.4-15.65-1.18-22.06,0.66c-9.8,2.81-17.83,5.53-29.01,5.32 c-12.94-0.25-25.94-2.21-39-5.86c-6.98-1.95-14.61-2.38-21.44,0.68c-4.57,2.04-9.1,4.24-13.93,5.23 c-7.68,1.56-15.43,2.08-23.24,1.56c-5.78-0.38-10.58-2.73-15.81-5.06c-4.13-1.85-12.14-0.85-16.7-0.91 c0.09-4.52-0.35-9.01-1.32-13.48C403.85,312.79,472.55,312.56,526.51,310.01z" fill="#a7e909"/></g><g><path d="M361.49,336.88c0.47-0.33,1.26-0.48,2.37-0.45c3.73,0.11,9.6,4.05,13.58,4.96 c7.59,1.75,15.36,1.26,23.44,0.64c5.74-0.43,11.3-1.72,16.69-3.85c4.28-1.7,11.82-7.53,16.48-5.99 c20.78,6.84,43.67,10.9,65.15,6.8c9.2-1.76,17.92-5.83,27.47-5.03c1.69,0.14,5.33,0.98,10.93,2.51 c19.64,5.36,31.27,7.11,43.38-11.89c0.19-0.29,0.43-0.35,0.74-0.19c17.46,9.37,34.69,9.65,51.7,0.86 c6.57-3.4,10.76-4.95,17.28-2.62c6.26,2.24,13.96,6.16,20.35,7.66c10.97,2.58,21.66,1.58,32.06-3.01 c-0.09,0.26-0.22,0.45-0.39,0.56c-0.31,0.22-0.39,0.66-0.16,0.98c0.1,0.14,0.24,0.23,0.4,0.27c6.03,1.42,11.43,3.46,18.01,4.33 c8.47,1.12,16.91,2.39,25.33,3.8c2.62,0.44,6.1,2.08,9.94,1.5c0.33-0.05,0.68-0.01,0.99,0.11c1.61,0.62,3.28,0.93,5.01,0.92 c0.32,0,0.59,0.12,0.8,0.37c1.19,1.41,2.85,0.84,4.27,1.22c4.25,1.14,8.61,2.19,13.1,3.15c1.81,5.35,2.84,10.94,3.09,16.76 c0.01,0.37-0.27,0.68-0.63,0.7c-0.06,0-0.12,0-0.18-0.02c-29.59-7.07-59.41-12.42-89.48-16.06 c-48.32-5.85-90.54,7.26-115.09,52.07c-8.35,15.25-15.02,31.72-21.21,47.71c-0.25,0.65-0.65,0.76-1.2,0.33 c-8.37-6.54-16.59-12.86-24.64-18.97c-38.72-29.35-81.6-51.53-129.55-62.95c-32.29-7.69-64.67-11.59-96.99-9.84 c-51.22,2.77-100.66,14.37-148.32,34.8c-11.13,4.77-19.54,8.48-25.23,11.14c-0.24,0.11-0.53,0.01-0.64-0.23 c-0.01-0.03-0.02-0.06-0.03-0.09c-7.43-31.68-16.92-55.41-51.9-63.51c-20.55-4.76-41.25-0.49-61.05,4.92 c-1.35,0.37-2.73,0.53-4.14,0.46c-0.27-0.01-0.48-0.24-0.47-0.51c0-0.03,0.01-0.06,0.01-0.09c1.29-5.55,3.6-10.68,6.94-15.38 c0.15,0.29,0.46,0.4,0.91,0.33c0.31-0.05,0.59-0.22,0.77-0.48c3.49-5.02,29.1-7.51,36.08-7.52c6.08-0.01,11.77,0.34,17.06,1.04 c27.23,3.61,51.02,21.63,59.06,48.42c1.14,3.81,2.24,8.26,3.31,13.37c0.07,0.35,0.27,0.45,0.6,0.3 c21.47-10.09,43.56-18.57,66.27-25.43c37.04-11.19,76.13-17.34,117.26-18.45c8.57-0.23,15-0.08,19.31,0.46 C346.09,338.5,353.14,338.2,361.49,336.88z" fill="#ff981f"/></g><g><path d="M561.18,408.83c-2.86,5.38-4.92,10.24-6.31,16.19c-0.13,0.54-0.67,0.88-1.21,0.76 c-0.16-0.04-0.3-0.11-0.43-0.22c-35.18-30.1-77.32-54.21-121.01-69.57c-0.18-0.06-0.28-0.26-0.22-0.44 c0.04-0.13,0.16-0.22,0.3-0.24c2.45-0.23,4.76-0.88,6.95-1.97c0.34-0.17,0.73-0.21,1.09-0.11c30.73,8.12,59.95,6.52,90.44-0.68 c1.51-0.35,3.01-0.37,4.49-0.04c20.24,4.49,38.23,10.46,55.19-6.15c0.24-0.23,0.53-0.33,0.86-0.3c4.81,0.5,9.87,2.03,14.68,1.23 c0.23-0.03,0.44,0.12,0.48,0.35c0.03,0.19-0.07,0.37-0.25,0.45c-3.98,1.65-9.8,7.94-13.07,11.02c-3.01,2.84-5.81,6.41-8.77,9.61 c-2.73,2.95-4.94,6.56-7.67,9.73c-0.21,0.24-0.36,0.51-0.47,0.81c-0.51,1.45-1.31,2.71-2.42,3.78c-0.25,0.24-0.31,0.52-0.18,0.84 c0.17,0.45,0.01,0.84-0.5,1.15c-0.3,0.18-0.54,0.41-0.73,0.7c-3.03,4.59-4.49,9.4-7.23,14.16c-1.09,1.9-2.01,3.88-2.75,5.93 c-0.1,0.29-0.31,0.53-0.57,0.67c-0.59,0.31-0.79,0.81-0.6,1.5C561.35,408.28,561.32,408.56,561.18,408.83z" fill="#ffe127"/></g><g><path d="M111.31,377.08c-6.15-8.44-13.64-17.43-22.84-21.29c-5.54-2.32-11.43-1.41-16.9,0.48 c-2.82,0.97-5.46,3.11-8.37,4.56c0.44-3.59,2.28-12.1,6.33-11.68c7.71,0.81,15.04,3.21,21.99,7.19c1.43,0.82,3.15,1.5,5.14,2.04 c0.3,0.09,0.57,0.25,0.79,0.47C102.71,364.37,108.19,369.98,111.31,377.08z" fill="#ad0001"/></g><g><path d="M111.31,377.08c0.85,1.57,1.94,3.33,2.49,5.04c3.58,11.14,7.41,22.14,11.48,32.99 c0.08,0.21-0.02,0.45-0.23,0.53c-0.08,0.03-0.16,0.04-0.24,0.02c-16.79-3.92-45.19-9.87-56.8-24.3 c-6.48-8.06-7.05-20.8-4.81-30.53c2.91-1.45,5.55-3.59,8.37-4.56c5.47-1.89,11.36-2.8,16.9-0.48 C97.67,359.65,105.16,368.64,111.31,377.08z" fill="#f01500"/></g><g><path d="M696.1,361.6c-26.73,8.1-54.16,13.55-82.29,16.35c0.17-0.2,0.08-0.55-0.25-1.06 c-0.2-0.3-0.16-0.56,0.13-0.77c20.16-14.73,40.65-16.44,64.92-17.42c5.25-0.21,10.4,1.4,16.08,1.42 C695.73,360.12,696.2,360.61,696.1,361.6z" fill="#6b3010"/></g><g><path d="M712.42,362.99c-11.48,5.57-24.28,9.93-38.4,13.07c-24.95,5.54-48.84,9.33-71.69,11.36 c3.44-4.89,7.27-8.04,11.48-9.47c28.13-2.8,55.56-8.25,82.29-16.35C701.3,361.43,706.74,361.9,712.42,362.99z" fill="#f7f6f5"/></g><g><path d="M712.42,362.99l15.29,2.14c0.36,0.05,0.62,0.24,0.78,0.57l1.69,3.42c-22.94,1.52-46.02,8.71-66.95,17.9 c-16,7.03-29.32,17.47-39.95,31.32c-2.95,3.84-6.42,9.27-10.39,16.3c-12.45,1.61-25.49,2.73-39.12,3.35 c-0.4,0.02-0.52-0.15-0.37-0.52c6.79-16.05,15.8-36.45,28.93-50.05c22.85-2.03,46.74-5.82,71.69-11.36 C688.14,372.92,700.94,368.56,712.42,362.99z" fill="#ad0001"/></g><g><path d="M397.08,379.02c-42.39-0.17-84.71-2.19-126.96-6.08l0.63-1.01c0.18-0.3,0.44-0.46,0.79-0.49 c6.23-0.52,12.46-1.04,18.68-1.56c31.69-2.65,63.12-0.92,94.3,5.2c3.95,0.77,7.91,1.48,11.89,2.12c0.31,0.05,0.55,0.27,0.64,0.57 C397.15,378.14,397.16,378.56,397.08,379.02z" fill="#6b3010"/></g><g><path d="M730.18,369.12c8.55,26.86-6.54,41.31-29.67,49.4c-10.1,3.54-23.43,6.8-40,9.77 c-12.91,2.32-28.78,4.44-47.62,6.35c3.97-7.03,7.44-12.46,10.39-16.3c10.63-13.85,23.95-24.29,39.95-31.32 C684.16,377.83,707.24,370.64,730.18,369.12z" fill="#f01500"/></g><g><path d="M270.12,372.94c42.25,3.89,84.57,5.91,126.96,6.08c9.27,1.11,18.43,3.46,27.47,7.04 c-51.14,0.52-101.42-1.27-150.85-5.38c-9-0.75-19.24-1.96-30.72-3.65C252.36,374.54,261.4,373.18,270.12,372.94z" fill="#f7f6f5"/></g><g><path d="M242.98,377.03c11.48,1.69,21.72,2.9,30.72,3.65c49.43,4.11,99.71,5.9,150.85,5.38 c0.31-0.04,0.61-0.01,0.89,0.09c16.29,5.72,32.1,12.53,47.43,20.44c0.93,0.47,1.93,1.13,2.99,1.97c1.42,1.13,2.45,1.75,3.08,1.86 c2.19,0.4,3.62,1.92,5.02,2.74c9.79,5.77,19.36,11.86,28.72,18.29c2.77,1.9,7.35,5.99,11.72,8.05c0.2,0.1,0.29,0.34,0.19,0.55 c-0.07,0.14-0.21,0.23-0.36,0.23l-29.21,0.37c0.25-0.4,0.16-0.76-0.26-1.08c-13.06-10.17-26.14-20.88-40.69-28.84 c-12.69-6.95-26.09-11.57-40.2-13.88c-4.23-0.69-10.86-1.29-19.9-1.79c-24.19-1.33-48.44-2.26-72.6-4.04 c-16.87-1.24-33.74-2.41-50.62-3.52c-40.99-2.68-84.48,15.14-121.4,32.82l-20.29-3.57c-0.17-0.03-0.3-0.19-0.27-0.36 c0.02-0.11,0.09-0.2,0.19-0.25c32.3-14.42,64.13-27.11,98.79-36.07C233.51,378.59,238.58,377.58,242.98,377.03z" fill="#ad0001"/></g><g><path d="M495.02,440.65c-53.54,0.48-107.07-0.22-160.58-2.11c-0.26-0.01-1.69-0.21-4.28-0.58 c-1.96-0.29-4.08,0.16-5.85,0.08c-22.28-1.09-36.46-1.92-42.54-2.48c-13.84-1.27-24.14-2.11-30.9-2.54 c-21.05-1.33-42.24-3.54-62.82-6.83c-5.35-0.85-10.73-1.07-15.96-2.16c-5.02-1.04-8.5-1.04-12.44-1.8 c-3.43-0.66-6.73-1.1-10.3-1.91c36.92-17.68,80.41-35.5,121.4-32.82c16.88,1.11,33.75,2.28,50.62,3.52 c24.16,1.78,48.41,2.71,72.6,4.04c9.04,0.5,15.67,1.1,19.9,1.79c14.11,2.31,27.51,6.93,40.2,13.88 c14.55,7.96,27.63,18.67,40.69,28.84C495.18,439.89,495.26,440.25,495.02,440.65z" fill="#f01500"/></g><g><path d="M189.02,434.57c0.36,0.21,0.54,0.57,0.53,1.06c-0.01,0.35,0.16,0.56,0.51,0.61 c2.23,0.35,3.78,0.81,4.64,1.38c11.34,7.55,26.65,17.32,39.97,20.24c-16.37,3.32-33.72-1.4-47.66-7.06 c-17.05-6.92-26.23,10.17-41.36,14.32c-13.66,3.74-26.07,0.66-37.23-9.24c-12.64-11.21-23.89,2.98-36.91,5.43 c-8.58,1.61-15.47-0.83-20.67-7.32c-5.11-6.38,0.82-16.09-6.36-21.61c-3.96-3.05-9.86-2.51-14.61-4.31 c-7.47-2.81-13.41-9.8-12.06-18.05c1.1-6.69,6.53-10.6,13.23-11.03c8.03-0.5,16.09-0.7,24.18-0.59c0.33,0,0.65,0.12,0.89,0.35 c7.61,6.82,15.92,11.68,24.91,14.58C114.97,424.27,156.43,430.38,189.02,434.57z" fill="#a7e909"/></g><g><path d="M731.97,417.05c-0.5,19.56-10.17,31.38-29,35.46c-1.66,0.36-3.73,0.13-6.2-0.68 c-0.35-0.12-0.53,0.01-0.52,0.38l0.01,0.38c-13.49-3.39-26.51-8.12-39.06-14.19c-0.46-0.22-0.44-0.37,0.07-0.45 c23.96-3.77,49.94-7.96,70.54-20.85C728.81,416.47,730.2,416.45,731.97,417.05z" fill="#73c002"/></g><g><path d="M731.97,417.05c17.47,1.31,42.67,2.32,51.45,20.81c8.03,16.91-8.17,34.92-25.39,28.36 c-5.58-2.12-10.53-7.7-16.32-9.64c-7.14-2.4-11.41,0.6-17.25,4.08c-0.29,0.17-0.59,0.21-0.91,0.12l-27.29-8.19l-0.01-0.38 c-0.01-0.37,0.17-0.5,0.52-0.38c2.47,0.81,4.54,1.04,6.2,0.68C721.8,448.43,731.47,436.61,731.97,417.05z" fill="#a7e909"/></g><g><path d="M189.02,434.57c66.6,8.53,136.76,12.19,203.47,12.98c0.39,0.01,0.44,0.15,0.17,0.42 c-1.41,1.39-2.55,2.34-3.42,2.85c-11.34,6.67-23.38,11.54-36.11,14.61c-13.3,3.21-22.05-0.5-32.46-8.17 c-6.18-4.55-11.14-7.14-18.15-3.7c-11.5,5.65-20.47,8.9-32.72,7.89c-6.24-0.51-12.14-3.48-18-6.05 c-4.54-1.99-12.43,1.49-17.13,2.46c-13.32-2.92-28.63-12.69-39.97-20.24c-0.86-0.57-2.41-1.03-4.64-1.38 c-0.35-0.05-0.52-0.26-0.51-0.61C189.55,435.14,189.38,434.78,189.02,434.57z" fill="#73c002"/></g><g><path d="M708.91,474.8l-13.71-2.48c-0.3-0.06-0.59,0.14-0.66,0.44l-0.94,3.93c-0.08,0.33-0.28,0.57-0.59,0.7 c-4.62,1.97-14.47,5.35-19.28,3.58c-5.07-1.86-6.6-9.52-2.54-12.8c2.28-1.84,6.79-2.51,10.02-3.66c0.13-0.04,0.21-0.18,0.17-0.31 c-0.04-0.13-0.18-0.21-0.31-0.17c-1.62,0.34-3.02,0.47-4.68-0.06c-15.49-4.92-29.85-12.33-43.08-22.23 c3.76-1.03,6.49-1.1,8.19-0.22c9.27,4.77,18.75,9.03,28.44,12.78c12.17,4.71,26.33,8.17,39.61,11.91 c2.77,0.79,5.47,1.77,8.09,2.96c0.38,0.17,0.39,0.36,0.03,0.57L708.91,474.8z" fill="#6b3010"/></g><g><path d="M633.31,441.74c13.23,9.9,27.59,17.31,43.08,22.23c1.66,0.53,3.06,0.4,4.68,0.06 c0.13-0.04,0.27,0.04,0.31,0.17c0.04,0.13-0.04,0.27-0.17,0.31c-3.23,1.15-7.74,1.82-10.02,3.66c-4.06,3.28-2.53,10.94,2.54,12.8 c4.81,1.77,14.66-1.61,19.28-3.58c0.31-0.13,0.51-0.37,0.59-0.7l0.94-3.93c0.07-0.3,0.36-0.5,0.66-0.44l13.71,2.48 c-21.75,10.81-45.96,16.37-71.33,20.83c-67.79,11.91-134.38,15.93-201.87,16.76c-95.74,1.17-193.33-1.39-287.9-20.32 c-19.94-3.99-40.59-9.45-58.42-19.01c4.59-3.34,10.08-4.43,14.86-0.99c16.7,12.05,37.26,15.78,56.44,7.12 c5.79-2.61,12.13-5.95,19.03-10.03c0.29-0.17,0.6-0.2,0.92-0.07c15.91,6.13,32.32,11.69,48.47,10.86 c0.33-0.01,0.51,0.15,0.54,0.48c0.87,11.39,16,9.82,14.19-1.1c-0.06-0.34,0.08-0.56,0.42-0.66c3.88-1.09,7.82-0.96,11.81,0.37 c18.94,6.3,38.19,1.63,55.81-6.26c1.02-0.46,2.06-0.16,3.09,0.05c0.31,0.07,0.59,0.19,0.84,0.37 c13.11,9.53,27.43,12.97,42.96,10.34c16.75-2.83,32.63-9.62,47.65-20.37c6.14-4.39,12.4-8.98,18.77-13.77 c35.64,0.43,71.42,0.19,107.33-0.71c1.51-0.04,3.32,0,4.76,1.09c7.27,5.47,14.42,11.07,21.47,16.82c0.95,0.77,2.46,1.35,3.39,2.5 c4.23,1.26,8.44,1.98,12.63,2.15c0.54,0.02,1.03-0.3,1.21-0.81l8.82-24.03L633.31,441.74z" fill="#904218"/></g><g><path d="M584.8,446.41l-8.82,24.03c-0.18,0.51-0.67,0.83-1.21,0.81c-4.19-0.17-8.4-0.89-12.63-2.15l7.23-20.7 c0.18-0.51,0.64-0.86,1.17-0.9L584.8,446.41z" fill="#6b3010"/></g><g><path d="M425.19,449.4c-6.37,4.79-12.63,9.38-18.77,13.77c-15.02,10.75-30.9,17.54-47.65,20.37 c-15.53,2.63-29.85-0.81-42.96-10.34c-0.25-0.18-0.53-0.3-0.84-0.37c-1.03-0.21-2.07-0.51-3.09-0.05 c-17.62,7.89-36.87,12.56-55.81,6.26c-3.99-1.33-7.93-1.46-11.81-0.37c-0.34,0.1-0.48,0.32-0.42,0.66 c1.81,10.92-13.32,12.49-14.19,1.1c-0.03-0.33-0.21-0.49-0.54-0.48c-16.15,0.83-32.56-4.73-48.47-10.86 c-0.32-0.13-0.63-0.1-0.92,0.07c-6.9,4.08-13.24,7.42-19.03,10.03c-19.18,8.66-39.74,4.93-56.44-7.12 c-4.78-3.44-10.27-2.35-14.86,0.99l-8.03-4.88c-0.35-0.21-0.35-0.42,0.01-0.62c4.38-2.45,15.13-9.05,19.7-4.99 c25.07,22.23,49.28,13.96,73.91-3.8c0.86-0.63,1.97-0.79,2.98-0.43c16.11,5.69,31.24,11.27,48.76,10.33 c5.41-0.29,11.34-1.82,16.92-3c7.34-1.56,14.27,3.74,19.64,4.66c17.08,2.91,30.01-1.94,44.93-9.38c0.81-0.4,1.78-0.3,2.5,0.26 c13.87,10.86,23.85,17.48,42.46,13.81c20.13-3.97,38.3-12.38,54.51-25.24c0.26-0.2,0.58-0.33,0.91-0.36 C413.99,448.9,419.53,448.89,425.19,449.4z" fill="#6b3010"/></g><g><circle cx="530.68" cy="467.93" fill="#ff981f" r="8.52"/></g><g><path d="M484.29,463.07l8.36-0.04c3.36-0.02,6.1,2.69,6.12,6.06l0,0.82c0.02,3.36-2.69,6.1-6.06,6.12l-8.36,0.04 c-3.36,0.02-6.1-2.69-6.12-6.06l0-0.82C478.22,465.83,480.93,463.09,484.29,463.07z" fill="#6b3010"/></g><g><circle cx="608.99" cy="474.11" fill="#ff981f" r="8.59"/></g><g><circle cx="427.64" cy="480.07" fill="#ff981f" r="8.51"/></g><g><path d="M283,482.15l17.75,0.68c3.89,0.15,6.91,3.42,6.76,7.31l-0.04,1c-0.15,3.89-3.42,6.91-7.31,6.76l-17.75-0.68 c-3.89-0.15-6.91-3.42-6.76-7.31l0.04-1C275.85,485.03,279.12,482,283,482.15z" fill="#6b3010"/></g><g><path d="M491.11,484.05l17.94-0.34c3.77-0.07,6.89,2.93,6.96,6.7l0.03,1.38c0.07,3.77-2.93,6.89-6.7,6.96 l-17.94,0.34c-3.77,0.07-6.89-2.93-6.96-6.7l-0.03-1.38C484.34,487.24,487.34,484.13,491.11,484.05z" fill="#6b3010"/></g><g><path d="M731.32,494.5c-2.38,5.33-6.33,10.25-11.86,14.76c-18.17,14.82-38.35,22.7-60.45,29.52 c-21.48,6.63-42.56,12.31-63.24,17.04c-58.88,13.47-118.36,23.29-178.45,29.45c-48.27,4.95-82.86,6.82-124.54,8.89 c-2.51,0.12-5.71,1.26-9.02,0.99c-48.83-2.77-98.66-7.87-146.2-19.74c-35.2-8.79-67.31-25.53-72.98-65.33 c-1.46-10.28-0.66-24.5,9.47-29.71c2.4-1.23,3.39-0.23,5.32,0.81c13.5,7.33,27.71,12.89,42.64,16.7 c29.87,7.62,60.11,13.25,90.74,16.89c39.77,4.73,79.68,7.78,119.71,9.16c73.63,2.54,147.64,1.36,221.05-5.16 c47.5-4.22,97.9-10.86,143.54-26.39c6.51-2.21,15.18-5.81,19.94-9.05C724.94,477.93,730.22,487.91,731.32,494.5z" fill="#ff981f"/></g><g><path d="M731.32,494.5c1.07,7.62,0.68,14.92-1.18,21.89c-12.08,45.19-53.56,55.69-93.38,63.92 c-5.52,1.14-12.08,2.31-19.69,3.5c-39.55,6.22-79.33,10.32-119.32,12.31c-70.4,3.5-143.45,4.02-213.99-0.97 c3.31,0.27,6.51-0.87,9.02-0.99c41.68-2.07,76.27-3.94,124.54-8.89c60.09-6.16,119.57-15.98,178.45-29.45 c20.68-4.73,41.76-10.41,63.24-17.04c22.1-6.82,42.28-14.7,60.45-29.52C724.98,504.75,728.94,499.83,731.32,494.5z" fill="#e27700"/></g></g></svg>