<?xml version="1.0" encoding="UTF-8"?><svg xmlns="http://www.w3.org/2000/svg" xmlns:xlink="http://www.w3.org/1999/xlink" height="501.3" preserveAspectRatio="xMidYMid meet" version="1.0" viewBox="-8.0 -1.3 302.5 501.3" width="302.5" zoomAndPan="magnify"><g id="change1_1"><path d="M36.591,287.016c-44.594,44.594-21.481,162.678,70.144,192.47c48.692,15.834,106.615-0.779,138.385-40.931 s34.258-101.374,4.681-143.166C220.221,253.598,119.853,203.754,36.591,287.016" fill="#EB8D96"/></g><g id="change2_1"><path d="M175.261,390.469c-8.204-2.587-16.123,1.415-24.199,2.564c-0.248,0.038-0.44,0.067-0.656,0.102 c-0.499,0.053-0.995,0.128-1.493,0.169c-3.742,0.42-7.525,0.519-11.284,0.254c-4.334-0.84-8.598-2.027-12.696-3.663 c0.481,0.201,0.965,0.405,1.447,0.61c-0.697-0.295-1.391-0.595-2.1-0.866c-0.292-0.096-0.574-0.219-0.863-0.324 c-2.558-1.257-5.017-2.707-7.382-4.299c-1.77-1.56-3.439-3.232-5.019-4.981c-1.598-2.497-3.077-5.063-4.419-7.706 c-0.417-1.05-0.849-2.097-1.26-3.153c-2.82-7.391-4.885-15.91-12.454-19.894c-15.816-9.552-36.046,5.967-30.904,23.755 c4.305,12.524,7.029,26.039,14.443,37.189c17.412,25.258,50.244,37.067,80.031,31.312c11.949-2.324,26.622-3.996,33.24-15.598 C197.785,412.778,190.12,394.4,175.261,390.469" fill="#FFFAF2"/></g><g id="change3_1"><path d="M261.705,286.964c-20.315-28.701-67.672-59.593-123.644-59.593c-9.768,0-19.408,0.986-28.867,2.911 C83.34,162.929,76.494,88.301,90.673,17.446c1.581-7.898-3.54-15.582-11.438-17.16c-7.895-1.58-15.579,3.541-17.16,11.436 c-15.131,75.61-8.027,155.213,19.212,227.217c-19.67,8.294-38.205,20.962-55.007,37.766c-23.794,23.794-32.228,65.022-22.011,107.6 c12.582,52.43,49.201,93.197,97.957,109.05c13.562,4.409,27.904,6.645,42.629,6.645c0.002,0,0,0,0.001,0 c43.98,0,85.739-19.587,111.701-52.397C292.318,402.405,294.531,333.347,261.705,286.964z M233.684,429.506 c-20.172,25.492-54.21,41.331-88.83,41.328c-11.657,0-22.965-1.754-33.61-5.215c-39.031-12.692-68.42-45.634-78.615-88.121 c-7.747-32.285-2.145-63.752,14.274-80.172c14.248-14.248,29.497-24.794,45.618-31.591c6.847,14.832,14.586,29.258,23.203,43.164 c2.76,4.455,7.528,6.904,12.41,6.904c2.62,0,5.275-0.706,7.666-2.191c6.846-4.241,8.956-13.23,4.714-20.077 c-7.161-11.557-13.648-23.511-19.495-35.765c5.596-0.815,11.277-1.233,17.041-1.233c43.112,0,83.616,24.358,99.838,47.277 C263.532,340.035,261.72,394.071,233.684,429.506z" fill="#BB7953"/></g></svg>