<?xml version="1.0" encoding="UTF-8"?><svg xmlns="http://www.w3.org/2000/svg" xmlns:xlink="http://www.w3.org/1999/xlink" height="413.6" preserveAspectRatio="xMidYMid meet" version="1.0" viewBox="-7.0 -5.4 511.3 413.6" width="511.3" zoomAndPan="magnify"><g id="change1_1"><path d="M470.983,108.884c-24.759-20.748-66.631-14.211-88.862,7.433c0.271,7.634,0.042,17.966-0.072,27.677 c-0.461-31.54-4.052-62.437-10.627-90.725l-1.035,0.024c-2.345-7.444-8.803-14.598-20.532-20.646 C276.096-5.391,113.068-1.072,50.62,27.512C28.603,37.59,17.922,49.418,17.17,61.361l-0.051,0.001 c-19.36,65.799-14.682,141.014,9.865,205.059c24.547,64.044,64.005,110.23,131.16,124.174 c67.155,13.943,153.093,0.93,184.656-59.964c4.538-8.755,8.645-17.919,12.375-27.38c-0.935,3.533-1.796,6.517-2.471,8.047 c5.584,2.06,57.482-7.491,84.096-25.799c26.613-18.307,45.703-47.55,53.532-78.89C498.16,175.27,495.741,129.632,470.983,108.884z M463.751,199.058c-5.019,22.471-20.767,41.374-39.437,54.847c-18.177,13.119-39.127,21.737-61.322,27.3 c12.18-38.525,18.399-80.934,19.066-122.749c0.017,0.756,0.037,1.497,0.062,2.208c10.174-20.653,40.495-35.362,59.745-22.732 C461.115,150.565,468.769,176.588,463.751,199.058z" fill="#FFF4ED"/></g><g id="change2_1"><path d="M330.111,70.686C266.114,11.655,63.338,46.781,36.449,106.841c-20.103,44.903,5.731,162.02,46.89,211.012 s163.002,90.336,226.569,10.866C361.157,264.65,380.87,117.508,330.111,70.686z M83.924,86.26c2.782-4.776,7.792-7.347,12.701-9.453 c10.222-4.53,21.3-7.27,32.486-7.691c6.284-0.368,12.555,0.153,18.829,0.444c13.043,0.029,18.935,0.165,30.234-3.92 c5.997-2.577,11.428-5.281,20.549-8.769c6.783-3.058,13.997-4.976,21.429-5.496c2.951-0.502,13.681,0.198,21.807,1.629 c6.875,1.15,13.864,1.99,20.504,4.194c8.778,2.908,16.982,7.453,24.361,13.006c4.025,3.094,3.088,10.28-1.68,12.089 c-2.961,1.67-6.568,0.345-8.816-1.922c-0.67-0.545-1.36-1.06-2.058-1.567c-0.653-0.445-1.782-1.211-2.411-1.592 c-10.036-6.147-12.803-7.027-24.282-9.322c-15.513-3.101-26.986-3.91-34.954-2.634c-3.489,0.668-6.795,2.022-10.118,3.24 c-5.779,2.072-11.533,4.207-17.157,6.675c-10.389,4.563-21.897,5.843-33.155,5.66c-5.89-0.01-11.75-0.812-17.644-0.722 c-10.259,0.153-13.707,0.744-22.154,2.617c-8.671,2.117-10.969,2.577-17.683,7.019c-1.826,1.818-0.963,0.97-3.378,4.794 c-2.123,4.172-8.61,3.547-9.895-0.953C80.475,90.816,82.473,88.433,83.924,86.26z M239.725,102.185 c-0.629-0.015-1.24-0.092-1.84-0.196c-2.912-0.081-5.827-1.056-7.78-2.859c-5.447-4.583-4.768-13.274-0.252-18.265 c1.382-1.506,3.074-2.608,4.924-3.344c2.081-1.576,4.588-2.609,7.174-2.765c6.021-0.216,11.336,3.99,14.152,8.986 C262.205,94.36,249.794,103.202,239.725,102.185z M109.789,142.242c-0.007,0.02-0.023,0.035-0.03,0.054 C109.795,142.218,109.813,142.181,109.789,142.242z M109.676,142.479c-0.054,0.11-0.084,0.173-0.105,0.217 c-0.004,0.006-0.005,0.014-0.008,0.02c-0.025,0.053-0.018,0.036,0.008-0.02c0.04-0.071,0.054-0.148,0.089-0.224 c0.028-0.06,0.074-0.115,0.099-0.177C109.737,142.341,109.717,142.386,109.676,142.479z M102.771,155.052 c-10.123,4.136-21.628-3.567-14.828-13.712c2.668-3.979,9.364-6.748,14.813-4.994C111.282,139.087,111.799,151.362,102.771,155.052z M78.317,177.681c-6.591-2.709-6.51-15.046,1.421-11.304c15.99,7.542,32.3-8.874,52.27,1.984c0.682,0.388,1.359,0.792,2.022,1.22 c-1.701-1.022-0.132-0.164,0.65,0.336c1.662,0.997,3.269,2.112,4.818,3.318c0.113,0.071,0.227,0.138,0.337,0.216 c7.17,5.97,10.206,11.054,21.527,19.205c0.508,0.281,1.016,0.558,1.529,0.827c8.709,4.071,9.778,3.95,19.359,5.255 c9.09,1.509,18.363-3.097,23.631-5.919c9.575-6.528,17.751-15.275,27.236-21.972c4.81-3.444,9.76-6.723,15.054-9.157 c5.856-2.539,12.038-4.145,18.287-4.848c8.944-1.31,18.101,0.1,26.923-2.233c0.089-0.069,1.424-0.211,5.759-2.517 c0.74-0.41,1.462-0.856,2.182-1.305c0.029-0.02,0.059-0.037,0.088-0.056c1.871-1.323,3.669-2.775,5.426-4.281 c1.209-0.927,3.955-3.786,4.1-3.847c0.199-0.224,0.391-0.453,0.592-0.674c0.403-0.51,0.799-1.024,1.203-1.532 c0.002-0.002,0.003-0.004,0.005-0.006c0.141-0.177,0.283-0.356,0.428-0.528c1.667-2.031,3.07-4.319,4.339-6.678 c0.195-0.411,0.417-0.868,0.629-1.297c1.799-3.734,3.165-7.707,4.276-11.758c0.366-1.99,1.306-3.693,2.705-5.059 c3.904-3.726,10.822-1.416,11.882,4.294c0.659,1.745,0.25,3.646-0.061,5.436c-0.535,2.988-1.209,5.941-1.95,8.872 c-2.212,8.182-6.335,16.138-12.453,21.4c-7.708,6.207-16.266,11.561-25.662,13.683c-17.361,2.415-21.167-0.88-36.27,1.795 c-5.796,0.748-13.225,5.23-16.593,7.732c-7.057,4.995-13.861,10.418-20.42,16.199c-3.742,3.218-7.6,6.279-11.7,8.906 c-0.204,0.135-0.411,0.265-0.616,0.397c-5.674,3.902-11.863,6.873-18.306,8.771c-3.678,1.18-7.533,1.375-11.339,1.377 c-3.17,0.127-6.333-0.232-9.382-1.227c-13.192-3.891-24.03-13.688-33.283-24.523c-0.443-0.549-0.958-1.027-1.342-1.618 c-0.254-0.217-1.328-1.678-1.98-2.394c-0.374-0.473-1.266-1.482-1.761-2.045c-0.308-0.307-0.599-0.629-0.857-0.982 c-0.018-0.018-0.024-0.025-0.044-0.047c-3.708-3.795-3.895-3.818-7.337-5.635c-3.766-1.761-9.33-2.443-18.028-0.431 C98.026,177.402,87.701,181.538,78.317,177.681z M245.815,286.588c-7.345,3.368-14.689,6.736-21.01,9.318 c-8.428-19.408-5.203-43.368,8.055-59.855c13.259-16.49,35.969-24.783,56.606-20.075c1.959,7.257,3.918,14.516,5.823,22.157 c-13.19-1.857-27.135,2.73-36.647,12.054C249.129,259.509,244.263,273.36,245.815,286.588z M260.062,182.985 c3.052-4.664,10.716-7.909,16.952-5.853c9.756,3.215,10.348,17.6,0.018,21.923C265.446,203.904,252.28,194.873,260.062,182.985z M284.813,184.577c-0.004,0.006-0.005,0.015-0.009,0.023C284.775,184.661,284.783,184.642,284.813,184.577z M284.813,184.576 c0.045-0.085,0.062-0.175,0.102-0.261c0.03-0.071,0.084-0.136,0.112-0.208c-0.024,0.054-0.047,0.106-0.095,0.214 C284.872,184.451,284.836,184.524,284.813,184.576z M285.027,184.106c0.042-0.092,0.062-0.133,0.035-0.063 C285.054,184.065,285.036,184.085,285.027,184.106z M87.423,251.949c-0.106,0.009-0.213,0.019,0.594-0.281 c-4.584-13.486-1.59-29.28,7.613-40.152c9.202-10.873,24.283-16.437,38.257-13.622c5.418,7.37,10.837,14.743,15.593,21.932 c-22.125,3.266-40.731,22.949-42.75,45.222C100.133,260.943,93.534,256.838,87.423,251.949z M147.51,276.901 c-8.244,12.263-9.717,28.787-3.772,42.314c-5.634,2.356-12.172,5.111-18.711,7.866c-14.957-18.968-16.829-46.959-4.976-68.002 c11.853-21.043,36.761-33.948,60.787-31.496c1.179,9.933,2.805,19.893,4.432,29.851C170.499,257.035,155.753,264.637,147.51,276.901 z M203.332,362.915c-0.534,0.049-0.748,0.069-0.962,0.088c-23.366-0.858-42.089-23.143-41.314-46.388 c0.773-23.244,20.936-44.235,44.131-45.943c0.953,7.586,1.26,15.644,1.566,23.698c-14.628,0.935-25.08,16.562-22.13,30.805 c2.952,14.245,18.752,24.432,32.944,21.241C213.297,354.025,208.315,358.469,203.332,362.915z M215.365,334.046 c-0.853-5.325-1.706-10.649-2.559-15.974c25.748-2.215,48.706-24.42,51.132-50.141c6.249-4.881,13.609-9.4,20.969-13.917 c7.168,20.208,2.638,44.117-11.425,60.302S236.376,338.324,215.365,334.046z M291.261,328.482 c-1.981-5.132-4.084-10.436-6.186-15.741c19.749-18.107,29.367-46.763,24.298-73.071c6.587-3.264,14.521-8.941,22.453-14.62 C340.035,263.413,323.361,305.929,291.261,328.482z M337.698,188.374c-7.666,0.168-12.083-8.488-7.13-14.467 c5.448-6.576,15.523-1.628,15.629,5.492C346.513,182.453,343.977,187.97,337.698,188.374z" fill="#F7E8B7"/></g><g id="change3_1"><path d="M184.623,325.175c-2.95-14.243,7.502-29.87,22.13-30.805c-0.306-8.054-0.613-16.112-1.566-23.698 c-23.195,1.708-43.358,22.699-44.131,45.943c-0.775,23.245,17.948,45.53,41.314,46.388c0.214-0.019,0.428-0.039,0.962-0.088 c4.983-4.446,9.965-8.89,14.235-16.499C203.375,349.607,187.575,339.42,184.623,325.175z M206.4,354.66 c-0.319,1.364-1.518,2.59-2.945,2.709c-1.222,0.31-2.406-0.391-3.565-0.706c-4.957-1.567-9.638-3.904-13.844-6.96 c-3.621-2.482-6.941-5.533-9.344-9.228c-3.179-6.036-4.179-12.986-4.671-19.716c-0.628-9.742,1.991-18.464,6.125-25.353 c4.669-7.988,13.352-12.989,22.365-14.385c3.084-0.99,5.361,3.224,2.808,5.198c-0.538,0.579-1.358,0.649-2.091,0.811 c-1.311,0.274-2.626,0.553-3.885,1.022c-4.507,1.764-8.986,4.708-12.737,9.41c-3.74,4.965-7.741,13.837-7.272,21.683 c0.33,6.065,0.643,8.735,2.45,14.427c1.438,4.166,1.824,4.77,5.065,7.765c2.897,2.478,7.22,5.036,12.307,7.072 c1.297,0.474,2.622,0.869,3.954,1.232C203.992,350.279,206.995,350.944,206.4,354.66z M273.482,314.316 c-14.063,16.185-37.106,24.008-58.117,19.73c-0.853-5.325-1.706-10.649-2.559-15.974c25.748-2.215,48.706-24.42,51.132-50.141 c6.249-4.881,13.609-9.4,20.969-13.917C292.075,274.222,287.545,298.131,273.482,314.316z M245.815,286.588 c-1.552-13.228,3.314-27.079,12.827-36.401c9.512-9.324,23.457-13.911,36.647-12.054c-1.905-7.641-3.864-14.9-5.823-22.157 c-20.637-4.708-43.347,3.585-56.606,20.075c-13.258,16.487-16.483,40.447-8.055,59.855 C231.126,293.324,238.47,289.956,245.815,286.588z M237.742,252.764c2.265-5.22,5.535-9.97,9.538-14.009 c2.798-3.079,5.902-5.928,9.521-8.019c8.075-4.535,17.272-7.823,26.65-6.742c3.204-0.162,4.314,4.543,1.337,5.751 c-0.813,0.503-1.785,0.205-2.681,0.181c-2.19-0.081-4.402-0.14-6.58,0.133c-4.898,0.45-16.308,5.513-19.644,9.031 c-4.614,4.55-6.553,6.945-9.1,11.615c-0.853,1.655-1.59,3.365-2.376,5.052c-0.544,1.453-1.231,2.898-2.844,3.367 c-1.859,0.605-4.043-0.549-4.573-2.432C236.503,255.319,237.19,253.997,237.742,252.764z M233.337,272.3 c0.189-1.495,0.385-2.991,0.611-4.482c0.638-3.138,5.176-3.903,6.802-1.146c1.143,1.77,0.2,3.914,0.145,5.854 c0.018-0.159,0.032-0.29,0.043-0.396c-0.014,0.159-0.032,0.356-0.048,0.585c-0.032,1.061,0.091,2.164-0.467,3.12 c-0.939,1.86-3.432,2.622-5.25,1.605C233.27,276.486,232.81,274.212,233.337,272.3z M240.937,272.13 C240.976,271.698,240.994,271.586,240.937,272.13L240.937,272.13z M185.27,257.434c-14.771-0.399-29.517,7.203-37.76,19.467 c-8.244,12.263-9.717,28.787-3.772,42.314c-5.634,2.356-12.172,5.111-18.711,7.866c-14.957-18.968-16.829-46.959-4.976-68.002 c11.853-21.043,36.761-33.948,60.787-31.496C182.017,237.516,183.643,247.476,185.27,257.434z M291.261,328.482 c-1.981-5.132-4.084-10.436-6.186-15.741c19.749-18.107,29.367-46.763,24.298-73.071c6.587-3.264,14.521-8.941,22.453-14.62 C340.035,263.413,323.361,305.929,291.261,328.482z M149.48,219.826c-4.756-7.189-10.175-14.562-15.593-21.932 c-13.974-2.815-29.055,2.749-38.257,13.622c-9.203,10.872-12.197,26.666-7.613,40.152c-0.807,0.3-0.7,0.29-0.594,0.281 c6.111,4.889,12.71,8.994,19.307,13.099C108.749,242.775,127.355,223.092,149.48,219.826z M131.277,209.783 c6.702,0.008,6.993,9.828,0.282,10.19C124.856,219.966,124.566,210.146,131.277,209.783z M116.667,227.424 c-0.922,0.627-2.409,2.03-4.374,4.728c-1.316,1.92-2.601,3.867-3.726,5.906c-0.652,1.205-1.272,2.429-1.792,3.698 c-0.982,2.987-1.072,4.382-1.176,6.122c0.162,2.757-3.446,4.392-5.412,2.46c-1.482-1.313-0.98-3.448-0.914-5.2 c0.713-7.633,4.368-14.87,9.249-20.693c2.133-2.429,4.822-4.288,7.584-5.928c2.226-1.519,5.709-0.018,5.968,2.697 C122.843,224.696,118.834,225.753,116.667,227.424z" fill="#FADE61"/></g><g id="change4_1"><path d="M498.754,147.723c-3.537-26.521-24.15-49.527-50.126-55.947c-22.363-5.526-46.927,1.686-63.211,17.721 c-1.554-17.495-3.951-35.063-7.865-52.197c-3.034-13.28-13.602-23.119-25.362-29.183C317.54,10.248,260.223,0,194.936,0 C135.443,0,79.331,8.767,48.499,22.879c-27.776,12.714-35.372,26.85-36.357,37.359C-7.032,125.686-3.363,201.48,22.226,268.245 c27.835,72.62,71.955,114.273,134.883,127.339c16.099,3.342,33.307,5.156,50.646,5.156c56.543-0.001,114.446-19.293,139.57-67.764 c3.194-6.162,6.192-12.585,9.029-19.199c40.311-0.132,80.161-18.427,107.245-49.425C491.148,232.823,504.29,189.224,498.754,147.723 z M385.156,195.246c0.76-8.129,1.291-16.266,1.635-24.388c0.135-0.31,0.24-0.638,0.313-0.982 c3.429-16.207,12.713-24.052,19.897-27.779c10.03-5.204,22.882-5.834,32.744-1.606c10.647,4.565,18.452,17.292,20.369,33.212 c3.367,27.959-11.352,57.23-39.372,78.302c-13.412,10.086-33.989,20.848-50.572,23.088 C377.447,250.22,382.53,223.339,385.156,195.246z M52.741,32.145c29.586-13.542,84.072-21.954,142.195-21.954 c63.715,0,119.329,9.836,152.582,26.983c8.565,4.417,18.782,11.953,18.807,22.766c0.018,7.918-5.363,16.474-14.614,23.867 c-0.072-0.082-0.127-0.173-0.205-0.251c-48.83-48.83-132.076-50.07-165.593-48.335C120.116,38.626,66.19,58.404,40.818,88.277 C28.95,80.2,22.384,71.469,22.218,63.046C22.004,52.226,32.844,41.252,52.741,32.145z M343.153,89.647 c-1.159,0.679-2.35,1.342-3.58,1.984c-38.718,20.193-92.786,31.774-148.339,31.774c-46.634-0.001-90.488-7.888-126.82-22.809 c-5.397-2.217-10.324-4.55-14.765-6.967c24-27.072,74.668-45.016,136.791-48.23C218.336,43.752,297.049,44.816,343.153,89.647z M348.756,305.476c-0.601,0.739-0.991,1.645-1.096,2.649c-2.923,6.976-6.044,13.719-9.383,20.161 c-23.109,44.585-77.08,62.308-130.183,62.306c-16.719,0-33.36-1.758-48.913-4.987c-59.26-12.304-100.945-51.886-127.438-121.008 C9.093,205.504,4.151,139.161,17.588,79.851c7.405,11.212,22.043,21.586,42.954,30.174c37.549,15.421,82.742,23.573,130.692,23.573 c0.003,0,0.001,0,0.004,0c57.137,0,112.924-12.003,153.049-32.93c12.17-6.348,21.374-14.396,26.77-23.063 C383.865,153.996,375.384,240.174,348.756,305.476z M455.925,257.646c-24.225,27.726-59.4,44.522-95.36,45.853 c2.256-5.814,4.383-11.771,6.368-17.869c19.388-1.071,43.769-13.324,59.933-25.481c30.961-23.282,47.172-56.054,43.366-87.665 c-2.35-19.519-12.493-35.367-26.47-41.361c-12.747-5.465-28.631-4.727-41.454,1.926c-4.8,2.491-10.329,6.401-15.115,12.463 c-0.077-7.246-0.314-14.459-0.722-21.622c0.016-0.022,0.036-0.038,0.052-0.06c12.912-18.193,38.002-27.514,59.659-22.161 c21.659,5.353,39.52,25.288,42.47,47.401C493.806,187.706,481.571,228.295,455.925,257.646z M62.026,245.33 c-0.003-0.004-0.008-0.014-0.011-0.02c0.002,0.003,0.003,0.005,0.005,0.007L62.026,245.33z M62.015,245.31 c-0.042-0.066-0.094-0.178-0.15-0.305C61.917,245.105,61.956,245.213,62.015,245.31z M64.114,247.314 c-0.864-0.461-1.58-1.165-2.094-1.997c-0.064-0.132-0.117-0.238-0.175-0.355c0.007,0.016,0.013,0.028,0.02,0.043 c-0.09-0.172-0.187-0.341-0.259-0.524c-1.39-2.784-0.424-0.656-2.056-4.749c-4.145-9.423-5.196-19.743-7.484-29.693 c-5.31-23.714-7.349-48.21-4.668-72.411c0.067-8.737,12.697-9.032,13.196-0.366c-1.335,16.864-0.189,33.813,2.068,50.551 c1.38,10.384,10.027,48.436,9.409,55.9C71.305,247.133,67.182,249.032,64.114,247.314z M86.138,274.358 c4.139,6.511-3.159,14.382-9.96,10.757c-3.227-1.657-3.912-5.305-5.347-8.325c-2.122-4.584-3.972-9.286-5.874-13.964 c-1.89-5.882,4.681-11.292,10.083-8.312c1.636,0.869,2.911,2.396,3.443,4.176c0.037,0.082,0.063,0.138,0.096,0.211 C80.943,264.13,83.79,269.122,86.138,274.358z" fill="#BB7953"/></g></svg>