<?xml version="1.0" encoding="UTF-8"?><svg xmlns="http://www.w3.org/2000/svg" xmlns:xlink="http://www.w3.org/1999/xlink" height="505.9" preserveAspectRatio="xMidYMid meet" version="1.0" viewBox="-6.2 -4.6 354.3 505.9" width="354.3" zoomAndPan="magnify"><g><g id="change1_1"><path d="M 177.582031 65.523438 C 179.570312 43.546875 186.691406 19.976562 206.355469 7.386719 C 221.867188 -2.550781 245.082031 -4.59375 254.28125 14.789062 C 261.929688 30.90625 251.792969 57.859375 231.703125 56.851562 C 216.839844 56.105469 207.25 37.617188 221.21875 28.222656 C 239.996094 15.597656 220.929688 49.113281 237.855469 45.253906 C 258.394531 40.570312 245.503906 1.898438 216.929688 13.410156 C 186.242188 25.773438 192.878906 59.660156 186.625 84.5625 C 178.785156 115.777344 176.09375 81.988281 177.582031 65.523438 Z M 130.878906 32.902344 C 129.089844 19.796875 144.117188 6.78125 156.65625 11.921875 C 172.820312 18.542969 171.753906 40.652344 170.171875 54.824219 C 167.535156 78.46875 165.226562 94.234375 172.394531 117.414062 C 175.425781 127.199219 176.753906 133.21875 168.179688 119.671875 C 163.835938 112.804688 161.339844 102.308594 160.402344 94.363281 C 158.238281 76.085938 165.605469 58.480469 164.605469 40.300781 C 163.960938 28.605469 151.722656 5.125 139.925781 23.644531 C 137.371094 27.652344 135.742188 35.121094 140.535156 38.433594 C 150.121094 45.066406 146.359375 31.164062 151.007812 30.65625 C 159.695312 29.707031 152.253906 44.226562 147.535156 45.695312 C 138.890625 48.390625 131.945312 40.691406 130.878906 32.902344 Z M 42.660156 357.039062 C 33.429688 337.746094 25.238281 299.847656 41.210938 282.347656 C 55.5 266.695312 65.875 273.183594 69.964844 287.957031 C 77.746094 316.097656 74.886719 352.074219 77.144531 381.441406 C 65.148438 376.800781 48.738281 369.730469 42.660156 357.039062 Z M 204.519531 147.769531 C 125.960938 147.769531 63.582031 176.351562 63.582031 204.867188 C 63.582031 205.824219 63.65625 206.773438 63.800781 207.71875 C 64.699219 219.429688 65.597656 231.140625 66.496094 242.851562 C 49.183594 237.945312 31.734375 243.074219 19.128906 256.503906 C -6.199219 283.484375 -5.21875 342.644531 15.265625 372.390625 C 29.105469 392.484375 52.308594 398.621094 70.347656 412.644531 C 83.191406 422.632812 80.742188 428.304688 82.15625 446.726562 C 85.730469 493.21875 155.199219 497.710938 189.417969 499.519531 C 223.65625 501.328125 316.8125 500.308594 333.84375 454.441406 C 337.964844 443.347656 337.699219 426.664062 338.128906 414.988281 C 339.214844 385.3125 340.304688 355.640625 341.390625 325.964844 C 342.75 288.886719 348.070312 208.242188 348.070312 204.867188 C 348.070312 176.351562 283.078125 147.769531 204.519531 147.769531" fill="#d4c389"/></g><g id="change2_1"><path d="M 332.101562 428.136719 C 332.878906 429.019531 332.914062 430.296875 332.265625 431.214844 C 330.605469 433.5625 328.820312 435.417969 326.902344 437.316406 C 325.910156 438.203125 324.9375 439.117188 323.910156 439.964844 C 322.859375 440.777344 321.847656 441.652344 320.746094 442.402344 C 318.601562 443.988281 316.3125 445.355469 314.003906 446.691406 L 310.4375 448.5 C 309.230469 449.070312 307.996094 449.578125 306.761719 450.085938 C 301.796875 452.011719 296.640625 453.53125 291.359375 454.160156 C 288.746094 454.632812 286.082031 454.660156 283.449219 454.78125 C 282.136719 454.863281 280.8125 454.738281 279.5 454.671875 C 278.1875 454.59375 276.878906 454.492188 275.574219 454.378906 C 274.457031 454.28125 273.628906 453.296875 273.726562 452.175781 C 273.8125 451.214844 274.550781 450.46875 275.464844 450.339844 L 275.640625 450.316406 C 276.882812 450.140625 278.113281 449.976562 279.34375 449.835938 C 280.570312 449.664062 281.800781 449.632812 283.007812 449.347656 C 285.429688 448.902344 287.847656 448.570312 290.207031 447.929688 C 294.96875 446.882812 299.566406 445.292969 304.027344 443.4375 C 308.503906 441.601562 312.769531 439.285156 316.871094 436.707031 C 318.925781 435.414062 320.914062 434.027344 322.871094 432.585938 C 324.792969 431.148438 326.746094 429.539062 328.433594 428.054688 L 328.59375 427.914062 C 329.621094 427.007812 331.195312 427.105469 332.101562 428.136719 Z M 280.625 423.714844 C 274.847656 424.882812 269.019531 425.820312 263.136719 426.421875 C 257.25 426.992188 251.332031 427.414062 245.371094 427.28125 C 239.417969 427.148438 233.414062 426.65625 227.550781 425.238281 C 226.453125 424.972656 225.78125 423.871094 226.046875 422.777344 C 226.28125 421.8125 227.15625 421.179688 228.109375 421.21875 L 228.160156 421.222656 C 233.84375 421.449219 239.527344 421.285156 245.222656 420.945312 C 250.917969 420.582031 256.625 419.964844 262.320312 419.28125 C 263.746094 419.082031 265.175781 418.921875 266.601562 418.75 L 270.875 418.152344 C 273.726562 417.773438 276.578125 417.351562 279.429688 416.929688 L 296.5625 414.410156 L 296.59375 414.40625 C 297.953125 414.207031 299.222656 415.148438 299.421875 416.511719 C 299.597656 417.722656 298.871094 418.855469 297.75 419.234375 C 292.101562 421.136719 286.40625 422.53125 280.625 423.714844 Z M 334.011719 400.792969 C 334.25 401.65625 334.003906 402.554688 333.449219 403.183594 C 332.117188 404.679688 330.65625 405.847656 329.085938 406.921875 C 327.523438 408.003906 325.871094 408.929688 324.136719 409.726562 C 322.394531 410.519531 320.605469 411.230469 318.695312 411.699219 C 316.796875 412.1875 314.804688 412.53125 312.722656 412.402344 C 311.5625 412.332031 310.679688 411.335938 310.746094 410.171875 C 310.789062 409.46875 311.175781 408.863281 311.730469 408.515625 L 311.871094 408.429688 C 313.367188 407.507812 314.851562 406.65625 316.359375 405.808594 C 317.863281 404.949219 319.390625 404.097656 320.9375 403.28125 C 322.488281 402.464844 324.058594 401.644531 325.6875 400.925781 C 327.300781 400.191406 328.992188 399.492188 330.742188 399.015625 L 330.855469 398.988281 C 332.222656 398.613281 333.640625 399.421875 334.011719 400.792969 Z M 334.484375 372.199219 C 335.230469 373.097656 335.230469 374.367188 334.566406 375.265625 C 332.839844 377.585938 331.007812 379.339844 329.019531 381.132812 C 327.019531 382.839844 324.9375 384.46875 322.710938 385.863281 C 318.304688 388.726562 313.546875 391.011719 308.617188 392.773438 C 307.378906 393.191406 306.125 393.554688 304.878906 393.945312 C 304.253906 394.132812 303.632812 394.339844 303.003906 394.507812 L 301.09375 394.9375 C 299.820312 395.214844 298.554688 395.519531 297.277344 395.769531 C 295.996094 395.976562 294.703125 396.136719 293.421875 396.316406 L 291.496094 396.582031 C 290.851562 396.640625 290.199219 396.667969 289.554688 396.703125 L 285.683594 396.910156 C 283.105469 396.945312 280.523438 396.804688 277.96875 396.644531 C 276.847656 396.578125 275.996094 395.613281 276.0625 394.492188 C 276.121094 393.539062 276.828125 392.777344 277.726562 392.613281 L 277.90625 392.582031 C 280.347656 392.136719 282.78125 391.890625 285.1875 391.480469 L 288.777344 390.8125 L 290.570312 390.496094 L 292.335938 390.074219 C 293.515625 389.800781 294.6875 389.503906 295.863281 389.257812 C 297.027344 388.953125 298.179688 388.59375 299.335938 388.265625 C 300.492188 387.9375 301.644531 387.609375 302.769531 387.195312 C 303.902344 386.800781 305.042969 386.4375 306.164062 386.019531 C 307.265625 385.554688 308.382812 385.128906 309.496094 384.691406 C 310.617188 384.273438 311.667969 383.710938 312.761719 383.230469 C 313.863281 382.761719 314.921875 382.21875 315.980469 381.671875 L 317.570312 380.855469 L 320.6875 379.105469 L 322.203125 378.160156 C 323.238281 377.566406 324.210938 376.886719 325.203125 376.226562 C 326.183594 375.5625 327.167969 374.878906 328.101562 374.160156 C 328.578125 373.808594 329.054688 373.453125 329.5 373.082031 C 329.953125 372.738281 330.4375 372.328125 330.796875 372.03125 L 330.988281 371.871094 C 332.042969 370.996094 333.609375 371.144531 334.484375 372.199219 Z M 295.382812 355.046875 C 295.484375 354.597656 295.710938 354.210938 296.015625 353.910156 C 296.875 353.0625 297.8125 352.476562 298.757812 351.933594 C 299.714844 351.417969 300.695312 350.996094 301.699219 350.65625 C 302.703125 350.316406 303.734375 350.058594 304.796875 349.925781 C 305.863281 349.792969 306.953125 349.75 308.121094 349.980469 C 309.632812 350.28125 310.617188 351.75 310.316406 353.261719 C 310.199219 353.855469 309.898438 354.371094 309.484375 354.757812 C 308.613281 355.570312 307.667969 356.109375 306.695312 356.5625 C 305.71875 357.011719 304.710938 357.335938 303.675781 357.574219 C 302.644531 357.816406 301.589844 357.980469 300.503906 358.046875 C 299.414062 358.085938 298.3125 358.085938 297.132812 357.816406 C 295.882812 357.535156 295.101562 356.292969 295.382812 355.046875 Z M 336.875 338.324219 C 337.25 339.09375 337.199219 339.96875 336.824219 340.667969 C 335.859375 342.445312 334.707031 343.820312 333.359375 345.121094 C 332.039062 346.421875 330.539062 347.539062 328.929688 348.507812 C 327.316406 349.472656 325.5625 350.265625 323.71875 350.8125 C 321.867188 351.355469 319.886719 351.636719 317.914062 351.453125 C 316.753906 351.347656 315.898438 350.320312 316.007812 349.164062 C 316.070312 348.480469 316.453125 347.898438 316.996094 347.5625 L 317.164062 347.460938 L 321.191406 344.996094 C 322.484375 344.136719 323.785156 343.316406 325.078125 342.429688 C 326.371094 341.542969 327.664062 340.640625 329.019531 339.773438 C 330.34375 338.898438 331.765625 337.980469 333.195312 337.28125 L 333.453125 337.152344 C 334.722656 336.53125 336.253906 337.058594 336.875 338.324219 Z M 340.632812 283.613281 C 341.464844 284.382812 341.652344 285.585938 341.175781 286.550781 C 340.210938 288.507812 339.140625 290.175781 337.949219 291.855469 C 336.761719 293.515625 335.46875 295.101562 334.09375 296.613281 C 331.34375 299.644531 328.222656 302.359375 324.820312 304.714844 C 321.4375 307.09375 317.648438 308.957031 313.714844 310.328125 C 312.714844 310.636719 311.722656 310.960938 310.71875 311.238281 C 309.703125 311.480469 308.664062 311.648438 307.640625 311.835938 L 306.101562 312.089844 C 305.585938 312.136719 305.058594 312.160156 304.539062 312.183594 C 303.496094 312.234375 302.460938 312.261719 301.433594 312.273438 C 300.3125 312.285156 299.394531 311.386719 299.378906 310.265625 C 299.371094 309.351562 299.960938 308.570312 300.785156 308.304688 L 301.03125 308.230469 C 301.929688 307.9375 302.816406 307.664062 303.703125 307.417969 L 305.023438 307.046875 L 306.3125 306.546875 C 307.164062 306.210938 308.03125 305.945312 308.867188 305.589844 C 309.6875 305.1875 310.523438 304.824219 311.347656 304.453125 C 314.585938 302.8125 317.761719 301.050781 320.683594 298.835938 C 323.636719 296.679688 326.464844 294.3125 329.179688 291.785156 C 331.863281 289.269531 334.542969 286.519531 336.996094 283.867188 L 337.105469 283.75 C 338.039062 282.738281 339.621094 282.675781 340.632812 283.613281 Z M 74.746094 396.617188 C 74.121094 397.660156 72.851562 398.078125 71.75 397.671875 C 63.386719 394.601562 55.472656 390.699219 47.824219 386.101562 C 44.007812 383.792969 40.292969 381.277344 36.726562 378.421875 C 34.964844 376.964844 33.226562 375.4375 31.589844 373.695312 C 29.902344 371.941406 28.429688 370.050781 27.136719 368.082031 C 24.570312 364.128906 22.644531 359.917969 21.15625 355.617188 C 19.667969 351.3125 18.558594 346.933594 17.753906 342.523438 C 16.183594 333.695312 15.582031 324.796875 15.746094 315.953125 C 15.769531 314.832031 16.695312 313.9375 17.816406 313.957031 C 18.886719 313.980469 19.75 314.820312 19.808594 315.875 L 19.808594 315.890625 C 20.277344 324.515625 21.167969 333.113281 23.117188 341.417969 C 24.0625 345.570312 25.242188 349.652344 26.765625 353.554688 C 28.292969 357.449219 30.117188 361.203125 32.417969 364.519531 C 33.574219 366.171875 34.84375 367.703125 36.226562 369.0625 C 37.6875 370.40625 39.304688 371.695312 40.988281 372.921875 C 44.34375 375.40625 47.957031 377.683594 51.585938 379.945312 C 58.882812 384.421875 66.4375 388.710938 73.847656 393.171875 L 73.894531 393.195312 C 75.074219 393.90625 75.457031 395.4375 74.746094 396.617188 Z M 15.726562 299.605469 C 15.472656 295.164062 15.96875 290.582031 17.4375 286.128906 C 18.113281 283.890625 19.1875 281.730469 20.414062 279.660156 C 21.691406 277.613281 23.285156 275.714844 25.109375 274.078125 C 28.773438 270.785156 33.398438 268.6875 38.035156 267.910156 C 40.351562 267.488281 42.6875 267.390625 44.980469 267.492188 C 47.300781 267.632812 49.476562 267.9375 51.8125 268.660156 C 52.886719 268.992188 53.488281 270.132812 53.15625 271.207031 C 52.882812 272.089844 52.066406 272.648438 51.191406 272.640625 L 50.984375 272.640625 C 49.136719 272.617188 47.050781 272.6875 45.128906 272.941406 C 43.179688 273.171875 41.277344 273.5625 39.453125 274.085938 C 35.8125 275.167969 32.542969 276.914062 29.953125 279.390625 C 27.328125 281.828125 25.351562 284.972656 23.90625 288.5 C 22.441406 292.027344 21.484375 295.902344 20.679688 299.929688 L 20.675781 299.953125 C 20.40625 301.308594 19.089844 302.1875 17.734375 301.917969 C 16.59375 301.6875 15.789062 300.714844 15.726562 299.605469 Z M 341.992188 255.390625 C 340.957031 257.304688 339.878906 258.953125 338.671875 260.613281 C 337.480469 262.261719 336.226562 263.855469 334.917969 265.414062 C 332.265625 268.484375 329.382812 271.363281 326.28125 274.003906 C 320.097656 279.289062 313.121094 283.703125 305.632812 286.980469 C 298.164062 290.289062 290.207031 292.503906 282.144531 293.550781 C 274.085938 294.605469 265.921875 294.605469 257.964844 293.511719 C 256.601562 293.320312 255.648438 292.066406 255.835938 290.703125 C 256.007812 289.457031 257.074219 288.554688 258.296875 288.554688 L 258.3125 288.554688 C 266.015625 288.542969 273.636719 288.019531 281.105469 286.742188 C 282.042969 286.609375 282.964844 286.390625 283.890625 286.207031 C 284.8125 286.011719 285.746094 285.847656 286.664062 285.632812 C 288.492188 285.160156 290.335938 284.746094 292.132812 284.175781 C 295.769531 283.179688 299.304688 281.851562 302.769531 280.390625 C 309.722656 277.484375 316.246094 273.605469 322.304688 269.070312 C 325.316406 266.78125 328.21875 264.328125 330.949219 261.6875 C 332.320312 260.371094 333.652344 259.011719 334.925781 257.605469 C 336.171875 256.203125 337.449219 254.703125 338.507812 253.296875 L 338.585938 253.199219 C 339.261719 252.304688 340.535156 252.125 341.429688 252.800781 C 342.242188 253.414062 342.464844 254.519531 341.992188 255.390625 Z M 243.796875 210.445312 C 243.796875 210.445312 231.464844 213.6875 226.273438 200.164062 C 226.273438 200.164062 231.785156 185.550781 241.394531 187.300781 C 241.394531 187.300781 252.3125 194.941406 243.796875 210.445312 Z M 203.589844 229.398438 C 204.875 215.59375 217.832031 211.46875 224.578125 212.414062 C 236.261719 214.050781 236.917969 226.9375 236.917969 226.9375 C 236.917969 226.9375 217.046875 232.066406 203.589844 229.398438 Z M 247.53125 185.640625 C 220.199219 181.558594 200.300781 181.183594 184.117188 182.527344 C 193.421875 186.527344 193.875 191.570312 193.75 193.191406 C 193.730469 193.480469 193.660156 193.753906 193.5625 194.023438 L 187.777344 209.449219 C 187.402344 210.445312 186.546875 211.191406 185.503906 211.414062 C 180.390625 212.492188 164.675781 215.039062 153.0625 208.546875 C 151.804688 207.847656 151.199219 206.359375 151.582031 204.972656 L 156.601562 186.722656 C 154.816406 187.097656 153.050781 187.484375 151.308594 187.875 C 128.820312 192.902344 101.625 205.191406 100.578125 214.132812 C 99.535156 223.070312 163.859375 242.066406 209.355469 240.390625 C 254.855469 238.714844 288.324219 230.894531 307.675781 218.042969 C 307.675781 218.042969 296.167969 192.902344 247.53125 185.640625" fill="#c3631d"/></g><g id="change3_1"><path d="M 82.066406 393.058594 C 81.761719 390.253906 81.355469 387.449219 80.667969 384.664062 C 80.425781 383.691406 79.613281 382.910156 78.558594 382.765625 C 77.175781 382.570312 75.898438 383.539062 75.707031 384.921875 C 75.3125 387.765625 75.195312 390.59375 75.183594 393.414062 C 75.164062 396.238281 75.277344 399.054688 75.472656 401.867188 C 75.683594 404.679688 75.933594 407.488281 76.332031 410.289062 C 76.71875 413.09375 77.183594 415.890625 77.90625 418.675781 C 78.109375 419.453125 78.757812 420.078125 79.601562 420.207031 C 80.734375 420.378906 81.792969 419.597656 81.964844 418.464844 C 82.394531 415.621094 82.566406 412.789062 82.660156 409.960938 C 82.769531 407.136719 82.730469 404.3125 82.648438 401.496094 C 82.550781 398.679688 82.375 395.863281 82.066406 393.058594 Z M 71.722656 253.828125 C 71.375 250.832031 70.917969 247.839844 70.183594 244.863281 C 69.933594 243.871094 69.09375 243.085938 68.019531 242.964844 C 66.632812 242.804688 65.382812 243.800781 65.226562 245.1875 C 64.878906 248.230469 64.8125 251.253906 64.847656 254.273438 C 64.878906 257.292969 65.039062 260.304688 65.285156 263.3125 C 65.542969 266.316406 65.84375 269.316406 66.289062 272.308594 C 66.722656 275.304688 67.238281 278.289062 68.007812 281.261719 C 68.214844 282.058594 68.886719 282.6875 69.753906 282.796875 C 70.886719 282.9375 71.921875 282.136719 72.0625 281 C 72.441406 277.957031 72.570312 274.925781 72.613281 271.902344 C 72.671875 268.878906 72.585938 265.859375 72.457031 262.847656 C 72.308594 259.835938 72.082031 256.828125 71.722656 253.828125 Z M 187.800781 254.667969 C 176.574219 253.496094 165.410156 252.042969 154.351562 250.179688 C 148.828125 249.214844 143.328125 248.160156 137.890625 246.890625 C 132.4375 245.667969 127.058594 244.214844 121.753906 242.570312 C 111.179688 239.261719 100.855469 235.019531 91.863281 228.921875 C 87.398438 225.851562 83.289062 222.308594 79.917969 218.15625 C 76.503906 214.042969 73.949219 209.269531 72.351562 204.113281 L 72.347656 204.09375 C 72.042969 203.113281 71.046875 202.5 70.019531 202.695312 C 68.917969 202.90625 68.195312 203.976562 68.40625 205.078125 C 69.53125 210.949219 72.132812 216.539062 75.582031 221.445312 C 79.070312 226.34375 83.425781 230.542969 88.175781 234.074219 C 97.710938 241.167969 108.585938 245.832031 119.574219 249.421875 C 130.613281 252.964844 141.921875 255.351562 153.28125 256.984375 C 164.644531 258.628906 176.082031 259.445312 187.511719 259.625 C 188.78125 259.640625 189.890625 258.679688 190.019531 257.394531 C 190.160156 256.027344 189.167969 254.808594 187.800781 254.667969 Z M 224.5 255.074219 L 224.40625 255.035156 C 223.152344 254.519531 221.917969 254.285156 220.683594 254.144531 C 219.449219 254.003906 218.21875 253.992188 216.992188 254.070312 C 215.765625 254.144531 214.535156 254.304688 213.308594 254.5625 C 212.082031 254.847656 210.851562 255.179688 209.617188 255.78125 L 209.542969 255.820312 C 209.089844 256.042969 208.710938 256.414062 208.492188 256.910156 C 207.992188 258.03125 208.496094 259.347656 209.617188 259.847656 C 210.863281 260.402344 212.117188 260.683594 213.371094 260.921875 C 214.625 261.128906 215.878906 261.238281 217.132812 261.265625 C 218.386719 261.292969 219.636719 261.230469 220.886719 261.042969 C 222.132812 260.851562 223.375 260.566406 224.601562 260 C 225.191406 259.726562 225.6875 259.234375 225.957031 258.589844 C 226.523438 257.214844 225.871094 255.644531 224.5 255.074219 Z M 343.019531 202.859375 C 341.921875 202.605469 340.828125 203.292969 340.578125 204.386719 L 340.574219 204.402344 C 339.445312 209.355469 337.4375 214.015625 334.53125 218.078125 C 331.679688 222.179688 328.058594 225.722656 324.035156 228.789062 C 315.929688 234.894531 306.351562 239.136719 296.492188 242.429688 C 291.550781 244.0625 286.519531 245.507812 281.414062 246.71875 C 276.324219 247.980469 271.167969 249.023438 265.984375 249.984375 C 255.609375 251.855469 245.121094 253.300781 234.570312 254.507812 C 233.3125 254.652344 232.335938 255.734375 232.359375 257.023438 C 232.386719 258.398438 233.523438 259.488281 234.894531 259.460938 C 245.652344 259.25 256.425781 258.4375 267.117188 256.78125 C 277.8125 255.148438 288.449219 252.78125 298.804688 249.234375 C 309.105469 245.644531 319.296875 240.941406 327.980469 233.75 C 332.304688 230.171875 336.175781 225.914062 339.109375 221.027344 C 342.007812 216.136719 343.984375 210.65625 344.585938 205.058594 C 344.695312 204.046875 344.035156 203.089844 343.019531 202.859375 Z M 260.539062 174.996094 C 251.113281 173.125 241.574219 171.734375 231.972656 170.929688 C 222.367188 170.128906 212.707031 169.878906 203.050781 170.03125 C 193.410156 170.21875 183.679688 170.636719 174.054688 171.445312 C 164.414062 172.199219 154.820312 173.34375 145.375 175.039062 C 135.949219 176.761719 126.609375 179.089844 118 182.847656 C 113.695312 184.699219 109.59375 186.941406 105.964844 189.734375 C 102.335938 192.539062 99.289062 195.910156 96.839844 199.84375 L 96.832031 199.851562 C 96.105469 201.015625 94.574219 201.371094 93.410156 200.644531 C 92.28125 199.941406 91.917969 198.476562 92.554688 197.328125 C 93.800781 195.089844 95.242188 192.898438 96.894531 190.871094 C 98.566406 188.863281 100.433594 187.019531 102.417969 185.347656 C 106.410156 182.019531 110.851562 179.375 115.433594 177.195312 C 124.65625 172.929688 134.359375 170.3125 144.078125 168.304688 C 153.8125 166.308594 163.640625 165.148438 173.457031 164.261719 C 183.296875 163.453125 193.085938 162.953125 202.972656 162.851562 C 222.699219 162.789062 242.5625 164.316406 261.902344 168.835938 C 271.550781 171.144531 281.078125 174.078125 290.214844 178.0625 C 294.769531 180.070312 299.230469 182.308594 303.527344 184.863281 C 305.675781 186.144531 307.78125 187.503906 309.828125 188.96875 C 310.847656 189.703125 311.851562 190.460938 312.835938 191.265625 C 313.832031 192.082031 314.753906 192.855469 315.769531 193.859375 C 316.566406 194.648438 316.570312 195.933594 315.785156 196.730469 C 315.027344 197.496094 313.808594 197.53125 313.007812 196.835938 L 312.914062 196.753906 C 312.152344 196.085938 311.164062 195.328125 310.230469 194.65625 C 309.28125 193.964844 308.296875 193.308594 307.300781 192.671875 C 305.304688 191.390625 303.253906 190.179688 301.152344 189.050781 C 296.953125 186.792969 292.578125 184.835938 288.121094 183.097656 C 283.664062 181.351562 279.125 179.800781 274.519531 178.453125 C 269.910156 177.117188 265.238281 175.996094 260.539062 174.996094" fill="#17292f"/></g><g id="change4_1"><path d="M 191.296875 194.148438 C 192.746094 193.734375 194.308594 193.652344 194.332031 192.320312 C 194.550781 180.746094 167.144531 174.304688 158.382812 183.015625 C 147.636719 193.699219 179.804688 197.421875 191.296875 194.148438 Z M 188.859375 216.078125 C 188.035156 217.183594 188.183594 218.734375 189.152344 219.714844 C 191.949219 222.546875 198.007812 228.109375 203.589844 229.398438 C 211.160156 231.144531 236.589844 226.71875 236.589844 226.71875 C 236.589844 226.71875 234.515625 219.328125 230.148438 214.378906 C 225.78125 209.429688 212.675781 206.625 208.308594 206.625 C 204.277344 206.625 194.382812 208.671875 188.859375 216.078125 Z M 237.628906 209.898438 C 243.757812 211.210938 261.21875 208.980469 267.652344 208.085938 C 269.042969 207.890625 270.070312 206.699219 270.070312 205.296875 L 270.070312 203.300781 C 270.070312 202.351562 269.59375 201.464844 268.800781 200.945312 C 264.703125 198.269531 251.609375 189.984375 243.035156 187.730469 C 234.675781 185.527344 228.820312 195.144531 226.929688 198.804688 C 226.480469 199.679688 226.53125 200.71875 227.042969 201.558594 C 228.503906 203.949219 232.03125 208.699219 237.628906 209.898438 Z M 332.464844 190.453125 C 332.464844 191.265625 332.40625 192.066406 332.339844 192.863281 C 332.167969 194.453125 331.867188 196.019531 331.457031 197.546875 C 330.628906 200.609375 329.316406 203.515625 327.679688 206.1875 C 326.035156 208.863281 324.097656 211.324219 321.964844 213.585938 C 319.785156 215.785156 317.484375 217.871094 315.003906 219.675781 C 310.066406 223.34375 304.660156 226.222656 299.128906 228.652344 C 293.589844 231.109375 287.863281 232.992188 282.089844 234.613281 C 270.527344 237.847656 258.707031 239.75 246.882812 240.984375 C 240.964844 241.570312 235.039062 242.054688 229.113281 242.34375 C 226.148438 242.554688 223.1875 242.585938 220.222656 242.65625 L 211.335938 242.859375 C 205.410156 243.128906 199.472656 242.769531 193.539062 242.648438 C 187.601562 242.609375 181.675781 242.019531 175.742188 241.582031 L 171.296875 241.226562 C 169.816406 241.078125 168.34375 240.847656 166.867188 240.65625 L 158.007812 239.46875 C 157.269531 239.363281 156.527344 239.28125 155.792969 239.15625 L 149.195312 237.890625 L 144.796875 237.03125 C 144.066406 236.882812 143.332031 236.753906 142.605469 236.585938 L 140.429688 236.019531 L 131.742188 233.746094 C 128.871094 232.886719 126.035156 231.882812 123.183594 230.957031 L 121.050781 230.25 C 120.34375 229.992188 119.652344 229.6875 118.953125 229.410156 L 114.773438 227.707031 C 111.953125 226.652344 109.28125 225.226562 106.566406 223.90625 L 104.539062 222.898438 C 103.867188 222.550781 103.230469 222.136719 102.574219 221.757812 L 98.667969 219.4375 C 98.011719 219.066406 97.378906 218.644531 96.761719 218.199219 L 94.890625 216.894531 C 93.652344 216.011719 92.375 215.199219 91.214844 214.199219 C 90.035156 213.230469 88.832031 212.296875 87.679688 211.300781 L 84.332031 208.164062 C 83.296875 207.027344 82.214844 205.945312 81.230469 204.769531 L 79.761719 203.007812 L 78.386719 201.242188 L 78.375 201.230469 C 77.53125 200.144531 77.726562 198.585938 78.808594 197.742188 C 79.867188 196.914062 81.390625 197.089844 82.246094 198.113281 C 85.925781 202.550781 89.984375 206.378906 94.628906 209.699219 C 95.726562 210.59375 96.960938 211.316406 98.144531 212.105469 L 99.929688 213.265625 C 100.519531 213.664062 101.121094 214.042969 101.757812 214.371094 L 105.507812 216.433594 C 106.136719 216.769531 106.746094 217.144531 107.390625 217.449219 L 109.339844 218.351562 C 111.941406 219.550781 114.484375 220.859375 117.203125 221.8125 L 121.222656 223.363281 C 121.894531 223.617188 122.558594 223.894531 123.234375 224.128906 L 125.300781 224.769531 C 128.058594 225.605469 130.789062 226.515625 133.566406 227.292969 L 141.988281 229.328125 L 144.09375 229.839844 C 144.800781 229.988281 145.519531 230.097656 146.230469 230.230469 L 150.503906 231.003906 L 154.773438 231.789062 L 156.910156 232.183594 C 157.625 232.300781 158.347656 232.371094 159.066406 232.46875 L 167.703125 233.558594 C 169.144531 233.730469 170.578125 233.945312 172.023438 234.078125 L 176.375 234.398438 C 182.175781 234.820312 187.964844 235.402344 193.800781 235.4375 C 199.625 235.558594 205.441406 235.871094 211.28125 235.691406 C 234.601562 235.691406 258.042969 234.09375 280.460938 228.53125 C 286.042969 227.105469 291.5625 225.429688 296.832031 223.230469 C 302.117188 221.070312 307.195312 218.460938 311.816406 215.257812 C 314.15625 213.691406 316.289062 211.882812 318.316406 209.980469 C 320.296875 208.03125 322.085938 205.914062 323.609375 203.628906 C 325.128906 201.34375 326.34375 198.867188 327.15625 196.28125 C 327.570312 194.988281 327.890625 193.671875 328.097656 192.34375 C 328.183594 191.679688 328.265625 191.015625 328.296875 190.355469 C 328.328125 189.730469 328.328125 188.972656 328.285156 188.519531 L 328.269531 188.386719 C 328.160156 187.269531 328.976562 186.277344 330.09375 186.167969 C 331.171875 186.0625 332.140625 186.824219 332.300781 187.886719 C 332.449219 188.894531 332.457031 189.609375 332.464844 190.453125" fill="#fff"/></g></g></svg>