<svg xmlns="http://www.w3.org/2000/svg" xmlns:xlink="http://www.w3.org/1999/xlink" preserveAspectRatio="xMidYMid meet" version="1.0" viewBox="132.5 101.1 231.9 299.6" zoomAndPan="magnify" style="fill: rgb(0, 0, 0);" original_string_length="4099"><g id="__id6_s4p2h8gsa5" style="fill: rgb(242, 107, 121);"><path d="M 163.3125 176.117188 C 162.835938 165.898438 163.34375 152.28125 149.050781 154.609375 C 137.273438 156.527344 132.464844 167.714844 137.839844 180.375 C 138.355469 181.589844 138.40625 183 138.664062 184.320312 C 138.664062 184.335938 138.667969 184.347656 138.671875 184.359375 C 149.363281 189.027344 159.453125 191.882812 163.3125 176.117188" style="fill: inherit;"/><path d="M 248.128906 209.808594 C 247.652344 199.59375 248.160156 185.976562 233.867188 188.300781 C 222.09375 190.21875 217.28125 201.40625 222.65625 214.066406 C 223.171875 215.28125 223.222656 216.691406 223.480469 218.011719 C 223.480469 218.027344 223.484375 218.039062 223.488281 218.054688 C 234.179688 222.71875 244.269531 225.574219 248.128906 209.808594" style="fill: inherit;"/><path d="M 336.6875 159.273438 C 336.214844 149.054688 336.71875 135.4375 322.425781 137.761719 C 310.652344 139.679688 305.84375 150.867188 311.21875 163.527344 C 311.730469 164.742188 311.78125 166.152344 312.039062 167.476562 C 312.042969 167.488281 312.042969 167.503906 312.046875 167.515625 C 322.738281 172.179688 332.828125 175.035156 336.6875 159.273438" style="fill: inherit;"/><path d="M 364.351562 257.808594 C 363.875 247.589844 364.382812 233.976562 350.089844 236.300781 C 338.3125 238.21875 333.503906 249.40625 338.878906 262.066406 C 339.394531 263.277344 339.441406 264.6875 339.699219 266.011719 C 339.703125 266.023438 339.703125 266.039062 339.707031 266.054688 C 350.402344 270.71875 360.488281 273.570312 364.351562 257.808594" style="fill: inherit;"/><path d="M 283.273438 309.0625 C 282.800781 298.847656 283.304688 285.230469 269.011719 287.554688 C 257.238281 289.472656 252.429688 300.660156 257.804688 313.320312 C 258.316406 314.535156 258.367188 315.945312 258.625 317.265625 C 258.628906 317.28125 258.628906 317.292969 258.632812 317.308594 C 269.328125 321.972656 279.414062 324.828125 283.273438 309.0625" style="fill: inherit;"/><path d="M 190.972656 342.757812 C 190.5 332.539062 191.003906 318.921875 176.710938 321.246094 C 164.9375 323.164062 160.128906 334.351562 165.503906 347.011719 C 166.019531 348.226562 166.066406 349.636719 166.324219 350.960938 C 166.328125 350.972656 166.328125 350.988281 166.332031 351 C 177.027344 355.664062 187.113281 358.519531 190.972656 342.757812" style="fill: inherit;"/><path d="M 163.3125 280.519531 C 162.835938 270.300781 163.34375 256.6875 149.050781 259.011719 C 137.273438 260.929688 132.464844 272.117188 137.839844 284.777344 C 138.355469 285.988281 138.40625 287.402344 138.664062 288.722656 C 138.664062 288.734375 138.667969 288.75 138.671875 288.765625 C 149.363281 293.429688 159.453125 296.28125 163.3125 280.519531" style="fill: inherit;"/><path d="M 269.445312 384.921875 C 268.96875 374.703125 269.476562 361.089844 255.183594 363.414062 C 243.40625 365.332031 238.597656 376.519531 243.972656 389.179688 C 244.488281 390.394531 244.535156 391.804688 244.796875 393.125 C 244.796875 393.140625 244.800781 393.152344 244.800781 393.167969 C 255.496094 397.832031 265.585938 400.6875 269.445312 384.921875" style="fill: inherit;"/><path d="M 364.351562 359.601562 C 363.875 349.386719 364.382812 335.769531 350.089844 338.09375 C 338.3125 340.011719 333.503906 351.199219 338.878906 363.859375 C 339.394531 365.074219 339.441406 366.484375 339.699219 367.804688 C 339.703125 367.820312 339.703125 367.832031 339.707031 367.847656 C 350.402344 372.511719 360.488281 375.367188 364.351562 359.601562" style="fill: inherit;"/><path d="M 234.296875 124.925781 C 233.824219 114.710938 234.328125 101.09375 220.035156 103.417969 C 208.261719 105.335938 203.453125 116.523438 208.828125 129.183594 C 209.34375 130.398438 209.390625 131.808594 209.648438 133.128906 C 209.652344 133.144531 209.652344 133.15625 209.65625 133.171875 C 220.351562 137.835938 230.4375 140.691406 234.296875 124.925781" style="fill: inherit;"/></g></svg>
