<?xml version="1.0" encoding="UTF-8"?><svg xmlns="http://www.w3.org/2000/svg" xmlns:xlink="http://www.w3.org/1999/xlink" height="468.1" preserveAspectRatio="xMidYMid meet" version="1.0" viewBox="-5.6 0.0 517.4 468.1" width="517.4" zoomAndPan="magnify"><g id="change1_1"><path d="M250.833,361.783c-24.74,53.889-119.591,93.016-179.762,75.635C3.123,417.789,17.726,305.639,96.856,282.3 C50.48,264.857-5.599,197.134,20.973,147.551c40.748-76.036,125.881-39.814,166.79,14.532 C169.636,77.569,209.927,2.674,281.676,15.571c58.248,10.472,71.784,76.439,60.888,124.181 c20.516-36.767,75.596-46.48,109.674-21.755c34.079,24.722,43.157,76.411,22.859,113.297 c-20.298,36.888-65.51,56.878-107.229,51.198c46.655,2.465,82.803,53.663,73.13,99.363c-9.679,45.706-59.306,77.577-105.605,71.326 C289.096,446.927,250.855,406.462,250.833,361.783" fill="#D6B8E0"/></g><g id="change2_1"><path d="M347.14,468.081c-4.577,0-9.165-0.306-13.635-0.91c-40.744-5.504-75.698-34.386-89.951-70.402 c-32.194,34.29-88.2,58.942-140.605,58.942c-12.885,0-24.929-1.594-35.795-4.732c-32.894-9.502-53.392-38.58-53.497-75.886 c-0.088-32.387,16.166-71.601,51.434-93.85c-25.656-17.658-48.31-44.971-58.653-72.489c-9.245-24.598-8.523-48.068,2.09-67.873 c22.524-42.029,55.173-50.85,78.596-50.85c27.214,0,56.88,12.198,82.197,32.734c-0.088-35.056,9.551-66.894,27.873-89.562 C214.754,11.481,238.5,0,265.871,0c5.956,0,12.115,0.562,18.303,1.676c23.961,4.307,43.67,17.233,56.993,37.383 c12.747,19.279,18.044,42.266,18.818,63.848c13.924-8.159,30.531-12.703,48.112-12.703c19.262,0,37.882,5.812,52.432,16.367 c39.14,28.394,51.222,87.397,26.936,131.531c-13.684,24.868-37.557,43.681-65.505,52.987c6.088,5.391,11.63,11.627,16.442,18.59 c15.714,22.745,21.694,50.119,16.406,75.1C444.918,431.492,397.623,468.081,347.14,468.081z M250.828,347.663 c0.998,0,2.01,0.108,3.016,0.328c6.482,1.414,11.104,7.152,11.106,13.784c0.019,37.303,32.467,72.031,72.332,77.416 c3.223,0.436,6.54,0.656,9.857,0.656c37.653,0,72.814-26.757,80.047-60.917c3.686-17.421-0.692-36.815-12.013-53.204 c-10.69-15.474-26.076-25.841-42.277-28.51c-2.316-0.176-4.646-0.425-6.932-0.736c-7.5-1.02-12.86-7.778-12.149-15.314 c0.709-7.536,7.241-13.196,14.798-12.772c2.479,0.132,4.98,0.38,7.445,0.742c1.993,0.13,4.017,0.196,6.027,0.196 c33.479,0,65.885-18.022,80.642-44.842c17.363-31.552,8.763-75.083-18.78-95.065c-9.764-7.083-22.497-10.985-35.85-10.985 c-22.764,0-43.65,11.065-53.207,28.193c-3.419,6.138-10.831,8.807-17.39,6.3c-6.554-2.52-10.263-9.474-8.702-16.32 c6.708-29.384,2.319-61.565-11.184-81.979c-9.091-13.751-22.022-22.218-38.436-25.168c-24.214-4.348-45.239,3.193-60.023,21.49 C199.272,75.552,192.533,117,201.566,159.123c1.39,6.48-1.914,13.053-7.941,15.805c-6.014,2.749-13.155,0.946-17.142-4.354 c-23.55-31.284-59.461-52.306-89.358-52.306c-22.855,0-40.924,12.096-53.709,35.952c-6.753,12.598-6.937,27.606-0.549,44.602 c11.062,29.431,40.706,59.637,68.96,70.266c5.68,2.137,9.358,7.662,9.138,13.729c-0.223,6.063-4.296,11.308-10.116,13.025 c-40.623,11.98-59.039,49.441-58.956,79.175c0.033,11.818,3.325,40.237,33.098,48.837c8.319,2.404,17.727,3.623,27.959,3.623 c54.44,0,117.548-33.451,135.054-71.584C240.342,350.8,245.407,347.663,250.828,347.663z" fill="#BB7953"/></g><g id="change3_1"><path d="M249.961,210.02c-52.559,2.087-52.197,77.589,0,79.46C302.522,287.388,302.16,211.889,249.961,210.02" fill="#FFFAF2"/></g></svg>