<?xml version="1.0" encoding="UTF-8"?><svg xmlns="http://www.w3.org/2000/svg" xmlns:xlink="http://www.w3.org/1999/xlink" height="200.8" preserveAspectRatio="xMidYMid meet" version="1.0" viewBox="-0.2 -0.1 494.6 200.8" width="494.6" zoomAndPan="magnify"><g id="change1_1"><path d="M213,0.01c18.42,0.06,33.3,1.11,48.16,2.55c12.79,1.24,25.54,2.81,38.28,4.53 c12.02,1.63,24.01,3.43,36.03,5.06c10.5,1.43,21.02,2.81,31.54,4.07c15.7,1.89,31.42,3.66,47.13,5.46 c14.02,1.61,26.84,6.47,38.61,14.19c6.7,4.39,13.98,7.78,20.7,12.14c0.37,0.24,0.8,0.41,1.22,0.57 c10.73,4.31,16.34,12.37,17.66,23.74c0.5,4.29,0.22,8.64,1.07,12.89c0.92,4.58,0.74,9.13-0.2,13.66c-0.28,1.35-0.38,2.68-0.2,4.01 c0.6,4.41,0.28,8.82-0.32,13.17c-1.45,10.52-2.3,21.08-2.52,31.69c-0.07,3.25-0.4,6.46-1.26,9.6c-1.66,6.08-5.38,10.7-10.34,14.4 c-4.99,3.72-10.46,6.66-15.96,9.53c-14.1,7.34-28.81,13.01-44.49,16c-10.44,1.99-20.93,3.41-31.58,3.4 c-8.95-0.01-17.72-1.49-26.43-3.36c-10.9-2.34-21.88-3.04-32.98-2.14c-11.2,0.9-22.39,1.87-33.59,2.69 c-13.86,1.01-27.45-0.64-40.8-4.44c-7.78-2.21-15.5-4.6-23.34-6.59c-14.08-3.59-28.26-3.9-42.53-1.45 c-14.61,2.51-29.2,5.1-43.82,7.57c-8.08,1.36-16.22,2.13-24.43,1.89c-9.26-0.27-17.93-2.77-25.94-7.34 c-6.01-3.43-11.85-7.15-17.78-10.73c-7.1-4.29-14.79-6.41-23.1-6.28c-7.77,0.12-15.46-0.54-22.95-2.67 c-6.11-1.73-11.83-4.29-16.54-8.72c-5.83-5.48-8.8-12.36-9.83-20.19c-0.61-4.63-1.25-9.26-1.88-13.89 c-0.83-6.1-0.75-12.19,0.14-18.28c0.12-0.8,0.21-1.62,0.46-2.38c2.17-6.52,2.9-13.32,3.93-20.06c1.35-8.89,6.17-15.58,13.12-20.93 c6.57-5.06,13.61-9.39,21.04-13.09c3.06-1.52,6.11-3.05,8.98-4.91c1.43-0.92,2.95-1.76,4.52-2.4c9.17-3.69,17.95-8.29,27.29-11.57 c0.68-0.24,1.34-0.52,1.98-0.86c19.32-10.13,39.89-16.76,61-21.89c14.6-3.55,29.39-6.08,44.36-7.39 C197.07,0.46,206.77-0.1,213,0.01z" fill="#F5CDDE"/></g></svg>