<?xml version="1.0" encoding="UTF-8"?><svg xmlns="http://www.w3.org/2000/svg" xmlns:xlink="http://www.w3.org/1999/xlink" height="469.6" preserveAspectRatio="xMidYMid meet" version="1.0" viewBox="-3.6 -36.2 522.4 469.6" width="522.4" zoomAndPan="magnify"><g id="change1_1"><path d="M372.806,421.288C228.029,408.786,28.271,334.432,13.368,245.925 c-13.845-82.243,96.575-176.297,238.862-52.838c0.134-40.08,20.955-88.849,39.78-124.865 c54.556-104.375,180.103-44.719,193.148,31.303C504.814,214.066,408.108,376.756,372.806,421.288" fill="#EB8D96"/></g><g id="change2_1"><path d="M372.808,433.471c-0.349,0-0.698-0.014-1.049-0.045C231.088,421.278,18.239,348.239,1.354,247.947 c-4.987-29.63,3.939-60.561,24.492-84.863c22.749-26.898,55.953-41.713,93.496-41.713c39.273,0,81.347,16.442,122.732,47.781 c4.758-30.156,17.865-65.877,39.139-106.574C302.306,22.225,335.994,0,376.073,0C432.647,0,488.1,44.632,497.166,97.465 c21.636,126.074-86.811,296.068-114.813,331.392C380.032,431.786,376.508,433.471,372.808,433.471z M119.342,145.738 c-30.252,0-56.85,11.748-74.892,33.082c-15.913,18.815-22.864,42.539-19.068,65.082c12.815,76.113,192.636,150.064,341.86,164.638 c38.266-51.114,123.93-201.942,105.91-306.955c-7.06-41.137-52.423-77.22-97.079-77.22c-21.62,0-51.88,8.588-73.265,49.501 c-25.017,47.857-38.293,89.096-38.395,119.259c-0.017,4.764-2.807,9.083-7.145,11.053c-4.34,1.968-9.426,1.23-13.023-1.892 C201.609,165.293,158.419,145.738,119.342,145.738z" fill="#BB7953"/></g><g id="change3_1"><path d="M436.81,87.616c-29.045-24.408-68.857-18.316-94.709,7.013c-26.735,26.118-30.94,40.333-30.692,76.091 c0.419,15.633,24.963,15.646,25.441,0c3.15-25.982,3.228-35.136,26.805-53.886c11.62-7.227,8.455-5.587,17.441-8.433 c0.797-0.202,1.601-0.375,2.405-0.531c2.471-0.168,4.951-0.234,7.422-0.083c0.378,0.017,0.753,0.066,1.128,0.093 c1.852,0.312,3.692,0.685,5.485,1.221c0.024,0.007,0.039,0.012,0.064,0.019c2.3,1.196,4.542,2.488,6.71,3.886 c2.268,1.905,4.347,4.016,6.523,6.014c9.077,11.096,27.476,10.266,35.107-1.835C452.853,106.103,446.296,95.065,436.81,87.616 M175.834,199.753c-6.404-5.992-16.238-5.748-24.588-7.419c-21.64-3.231-45.475-1.503-64.093,10.109 c-12.673,7.907-22.795,21.937-20.414,36.586c0.002,0.102,0.005,0.183,0.01,0.365c0.628,4.232-0.01,8.884,1.827,12.836 c4.893,11.908,24.498,8.099,24.347-4.578c-0.095-1.725,0.137-6.421,0.115-7.909c0.151-0.612,0.346-1.211,0.551-1.808 c0.631-1.031,1.313-2.035,2.025-3.021c0.807-0.799,2.093-2.066,3.25-3.019c0.098-0.071,0.195-0.141,0.3-0.217 c8.845-5.682,7.71-4.147,12.602-5.782c1.557-0.395,3.143-0.675,4.727-0.941c0.022-0.002,0.039-0.005,0.058-0.007 c17.246-1.304,20.134-0.353,24.99,0.256c4.116,0.697,8.192,1.608,12.11,2.997c3.57,1.377,7.41,2.554,11.247,1.601 C180.273,228.737,186.789,209.549,175.834,199.753" fill="#FFFAF2"/></g></svg>