<?xml version="1.0" encoding="UTF-8"?><svg xmlns="http://www.w3.org/2000/svg" xmlns:xlink="http://www.w3.org/1999/xlink" height="507.7" preserveAspectRatio="xMidYMid meet" version="1.0" viewBox="-41.2 -20.9 620.1 507.7" width="620.1" zoomAndPan="magnify"><g id="change1_1"><path d="M400.588,52.927C336.707,4.15,165.523-20.902,74.995,86.702c-116.2,138.112-52.806,258.357,24.276,321.608 c89.89,73.76,229.393,78.522,308.164-1.882C436.801,376.448,578.926,189.092,400.588,52.927" fill="#F7E8B7"/></g><g id="change2_1"><path d="M259.099,476.31c-0.004,0-0.007,0-0.011,0c-60.05-0.002-120.873-21.651-166.875-59.4 C61.227,391.484,8.154,336.993,0.831,257.708c-5.53-59.874,16.558-119.819,65.65-178.169C109.633,28.248,175.881,0,253.022,0 c58.672,0,119.245,17.303,154.318,44.085c56.79,43.359,87.788,95.986,92.134,156.411c7.03,97.724-58.319,187.407-84.092,213.717 C376.15,454.256,320.648,476.31,259.099,476.31z M253.022,22.251c-40.807,0-117.093,9.305-169.513,71.612 c-45.121,53.631-65.484,108.068-60.521,161.798c6.579,71.232,55.039,120.825,83.34,144.047c42.09,34.539,97.77,54.348,152.761,54.35 c55.524,0.002,105.385-19.678,140.398-55.417c22.218-22.681,84.201-107.474,77.794-196.548 c-3.869-53.789-31.944-101.001-83.444-140.325C362.397,37.764,307.123,22.251,253.022,22.251z" fill="#BB7953"/></g><g id="change3_1"><path d="M377.267,81.612c-53.988-41.22-198.658-62.392-275.168,28.544C3.896,226.88,57.472,328.501,122.614,381.957 c75.969,62.339,193.867,66.362,260.438-1.591C407.871,355.031,527.984,196.692,377.267,81.612z M221.037,81.251 c14.59,36.667,11.208,122.579,4.911,123.184c-6.555,0.627-57.61-61.055-79.294-91.552C163.334,95.091,194.058,82.584,221.037,81.251 z M112.127,163.738c38.732,7.57,109.152,56.896,106.253,62.517c-3.017,5.854-82.516,15.42-119.895,17.153 C92.549,219.755,98.65,187.151,112.127,163.738z M92.797,266.548c36.465-15.09,122.414-12.876,123.104-6.586 c0.718,6.544-60.265,58.436-90.464,80.531C107.42,324.057,94.496,293.508,92.797,266.548z M236.554,394.615 c-24.229,2.764-55.744-7.589-77.171-24.04c12.614-37.391,70.803-100.689,75.994-97.073 C240.779,277.27,239.769,357.333,236.554,394.615z M407.173,199.675c-35.256,17.728-121.137,21.835-122.287,15.614 c-1.197-6.475,55.808-62.708,84.305-86.959C388.365,143.397,403.5,172.915,407.173,199.675z M264.469,203.215 c-5.668-3.358-10.538-83.282-10.071-120.699c23.96-4.535,56.151,3.476,78.729,18.306 C323.294,139.041,269.912,206.437,264.469,203.215z M292.892,393.897c-17.244-35.497-20.184-121.426-13.949-122.49 c6.493-1.111,61.942,56.655,85.807,85.477C349.423,375.851,319.702,390.586,292.892,393.897z M284.89,249.088 c2.579-6.059,81.158-21.439,118.311-25.914c7.659,23.15,3.967,56.119-7.752,80.456C356.265,298.928,282.411,254.909,284.89,249.088z" fill="#FFFAF2"/></g></svg>