<?xml version="1.0" encoding="UTF-8"?><svg xmlns="http://www.w3.org/2000/svg" xmlns:xlink="http://www.w3.org/1999/xlink" height="217.7" preserveAspectRatio="xMidYMid meet" version="1.0" viewBox="-2.7 -0.1 379.9 217.7" width="379.9" zoomAndPan="magnify"><g><g><path d="M188.5,0c33.7,0.2,66.6,4.9,98.4,16.3c19.4,7,37.6,16.3,53.6,29.6c9.4,7.8,17.6,16.7,23.7,27.3 c12.9,22.7,13,45.6,0.3,68.4c-8,14.4-19.6,25.6-32.8,35c-18.3,13.1-38.5,21.9-59.9,28.3c-18.9,5.7-38.2,9.2-57.9,11 c-16.3,1.5-32.6,1.7-48.9,0.6c-34.2-2.3-67.2-9.3-98.3-24.2c-15.8-7.6-30.3-17-42.6-29.6c-10-10.2-17.8-21.9-21.6-35.8 c-5.2-19.2-1.8-37.1,8.5-53.8c8.5-13.7,20.1-24.3,33.2-33.5c7.5-5.2,15.7-9.1,23.6-13.6c17.6-9.9,36.7-15.2,56.2-19.4 C145.2,2,166.8-0.1,188.5,0z" fill="#5E6D45"/></g></g><g><g><path d="M183.2,204.4c-27.4-0.3-54.3-3.9-80.5-12C85.4,187.1,69,180,54,169.9c-11.1-7.5-21-16.4-28.4-27.7 c-7.1-10.8-10.9-22.5-10.2-35.5c0.6-10.8,4.3-20.5,10.2-29.4c8.9-13.5,21.1-23.5,34.7-31.9c2.8-1.7,5.6-3.2,8.4-4.8 c20.9-12.4,43.9-18.4,67.4-22.8c22.5-4.1,45.1-5.4,67.9-4.2c27.9,1.4,55.2,6.2,81.4,16.2c18.1,6.9,35,15.8,49.4,29 c9.7,8.8,17.5,19,21.7,31.5c6,18,2.8,34.8-7.4,50.5c-7,10.7-16.1,19.3-26.5,26.6c-17.9,12.7-37.8,20.9-58.8,26.8 c-18.4,5.2-37.1,8.1-56.1,9.5C199.5,204.2,191.3,204.4,183.2,204.4z" fill="#54643C"/></g></g><g><g><path d="M276.2,135c-20.7-0.6-38.2-7.6-51.9-22.8c-6.8-7.5-11.5-16.3-13.5-26.4c-0.1-0.3-0.2-0.6-0.2-0.9 c0-0.6-0.2-1.3,0.6-1.5c0.8-0.1,1,0.6,1.1,1.2c1.8,7.4,7.1,10.8,14.1,12.3c8.6,1.8,17.3,2.5,26,2.9c7.2,0.4,14.4,0.8,21.5,1 c13,0.2,25.8-2,38.5-4.4c6.9-1.3,13.5-3.2,20.2-5.2c1.7-0.5,3.3-1.1,5.1-0.5c0.9,0.3,1.2-0.3,1.4-1c0.6-1.9,1.2-3.9,1.9-5.8 c0.3-0.8,0.3-2.3,1.6-2c1.3,0.3,0.7,1.6,0.5,2.5c-2,8.1-5.4,15.5-10.4,22.1c-12.3,16.2-28.6,25.3-48.7,27.8 C281.2,134.7,278.5,134.8,276.2,135z" fill="#E4AF68"/></g></g><g><g><g><path d="M331.8,72.6c-9.5-7.7-20.7-11.6-32.5-14.1c-9.3-1.9-18.7-2.6-28.2-2.1c-10.8,0.5-21.5,2.1-31.5,6.5 c-7.7,3.4-15.1,7.3-20.5,14.1c-2.9,3.6-4.6,7.7-5.4,12.2c1.4,4.3,4.6,7.3,7.9,10c4.6,3.8,9.9,6.4,15.4,8.4 c5.9,2.1,11.8,3.9,18.1,4.6c1.5,0.5,3.1,0.5,4.6,0.7c5.2,0.7,10.3,1.2,15.6,1c3.1,0.1,6.2-0.1,9.3-0.2c3.8-0.2,7.6-0.6,11.3-1.2 c7.5-1.3,14.8-3.1,21.8-6.1c2.4-1,5-1.7,7-3.5c0,0,0,0,0,0c0.9-0.3,1.9-0.6,2.5-1.4c4.3-2.1,7.7-5.4,10.7-9 c1.7-2.1,3.2-4.4,3.7-7.2C339.6,80,336,76,331.8,72.6z M331.9,86.5c0.2-1.1,1-2.1,2.1-1.9c0.7,0.1,2.2,0.2,2,1.4 c-0.2,1,0.3,2.8-1.7,2.7C333,88.4,331.6,88.2,331.9,86.5z M329.3,77.2c0,0.1,0,0.3,0,0.4C329.3,77.5,329.3,77.4,329.3,77.2 L329.3,77.2z M260.9,84.4c-0.1,0.2-0.2,0.3-0.3,0.4C260.7,84.7,260.8,84.6,260.9,84.4c0.5-0.1,0.8-0.3,1.2-0.6 C261.7,84.1,261.4,84.4,260.9,84.4z M259.3,85.7c0,0.1-0.1,0.1-0.2,0.1c-0.1,0.1-0.1,0.2-0.2,0.3c0.1-0.1,0.2-0.2,0.2-0.3 C259.2,85.8,259.2,85.8,259.3,85.7z M220.9,94.5c-1.2,0.3-3-1.2-2.7-2c0.4-1,0.4-2.5,2.1-2.3c1.2,0.1,1.8,0.9,2,2 C222.1,93.2,221.8,94.3,220.9,94.5z M226.4,74.3c0.1-1.1,0.9-1.9,2-1.9c1.3,0,2.6,1.3,2.5,2.2c-0.2,1.6-1.6,3-2.9,2.5 C226.9,76.7,226.3,75.5,226.4,74.3z" fill="#A25634"/></g><g><path d="M275.3,113.8c-5.2,0.2-10.4-0.2-15.6-1c-1.5-0.2-3.1-0.2-4.6-0.7c-0.2-0.4-0.3-1-0.8-1.1 c-2-0.2-3.8-0.8-5.5-1.8c-1.6-0.9-3.3-1.5-4.9-2.2c-1.5-0.7-2.8-1.7-4-2.8c-1-0.9-2.6-1.4-2.8-3.1c-0.1-0.3-1.2-0.4-0.9-1.3 c0.6,0,1.1,0.1,1.6,0.5c1.4,1.1,3.2,1.4,4.9,1.5c5.1,0.4,10.2,0.5,15.3,1.1c1.2,0.1,2.5-0.2,3.6,0c2.5,0.3,5.1,0.1,7.6,0.5 c1.9,0.3,3.8-0.1,5.7-0.1c3.8,0.1,7.7,0.1,11.4-0.1c4.6-0.3,9.2-0.6,13.8-1.3c1.6-0.2,3.5,0.3,4.9-0.4c1.8-0.9,3.7-1.2,5.5-1.7 c4.2-1.3,8.3-2.9,12.4-4.6c4.9-2.1,5-7.7,1.8-11.1c-2.2-2.3-4.8-3.8-7.7-5.1c-6.8-3.1-13.9-4.9-21.5-4.8c-1,0-1.9,0-2.9-0.1 c-2.3-0.1-4.7-0.5-7-0.2c-4.5,0.6-9,1.5-13.5,2.2c-3.3,0.6-6.7,1-9.7,2.5c-2.4,1.2-4.4,2.8-6.4,4.4c-1.4,1.1-2.3,2.8-1.4,4.8 c1,3,3.1,4.7,6.4,4.6c4.5-0.1,8.9-0.3,13.4-0.7c5.7-0.4,11.2-1.8,16.5-4.2c1.1-0.5,2.3-1.1,2.3-2.6c0.1-1.6-1.1-2.2-2.2-2.7 c-1.4-0.7-3-1-4.5-1.1c-3-0.2-6.1-0.6-8.9,1.1c-0.9,0.5-0.9,1-0.6,1.9c0.5,1.6,1.8,2,3.2,2c1,0.1,2-0.3,2.2-1.5 c0.1-0.2,0.3-0.5,0.5-0.7c0.9-0.5,5.2,0.3,6,1.2c-0.3,0.1-0.7,0.3-1,0.4c-5.5,2.4-11.3,2.8-17.2,2.9c-3.5,0.1-6.9,0-10.4,0 c-0.6-0.5-1.8-0.2-1.8-1.5c0-0.6,0.5-0.9,0.7-1.4c0.3-0.2,0.3-0.4,0.4-0.7c0.6,0,1.2-0.1,1.4-0.7c1-0.1,1.4-1.1,2.2-1.4 c3.5-1.4,7.1-2.2,10.8-2.9c8-1.6,16-1.7,24.2-1.1c4.2,0.3,8,1.6,11.9,2.6c3.8,1,7.2,3.1,10.1,5.8c1.4,1.3,1.3,2.7-0.5,3.4 c-4.7,1.9-9.4,3.8-14.4,5.1c-5.2,1.3-10.6,1.3-15.8,2.1c-3.5,0.5-7.1,0.2-10.6,0.2c-6.3-0.1-12.6-0.2-18.9-1.1 c-5.1-0.7-10.3-1.2-15.4-1.5c-4-0.2-6.9-2.5-10-4.7c0.8-1.2,1.7-2.4,0.7-4l0,0c1.8-0.1,2.2-1.4,2.2-2.9c1.2-2.2,3.4-3,5.3-4.4 c2.7-2,5.5-3.7,8.6-4.7c3.4-1.1,6.7-2.4,10.1-3.2c1.3-0.3,2.4-1.2,3.8-1.4c2.7-0.4,5.4-0.8,8-1.3c5.3-1.2,10.6-1.1,15.9-1.1 c3.6,0,7.1,0.3,10.6,0.8c3,0.4,6,0.7,8.9,1.7c2.3,0.8,4.6,1.7,6.8,2.5c2.4,0.8,4.8,1.5,7.1,2.4c1.9,0.7,3.4,2.2,5.3,2.9 c1,0.4,1.4,0.1,1.3-1c1.1,2.2,3.3,2.8,5.2,3.9c2,1.1,2.6,1,3,3.7c0.2,1.7-0.2,2.9-0.9,4.2c-1.8,3.6-3.8,7.1-6.9,9.8 c-0.9,0.8-2.3,1.2-2.5,2.6c0,0,0,0,0,0c-1.1,0.1-2.1,0.2-2.5,1.5c0,0,0,0,0,0c-0.4,0-0.9,0-1.2,0.2c-3.5,2-7.5,2.9-11.3,4.1 c-4.5,1.4-9.3,1.7-13.9,2.6c-2.4,0.5-4.7,1.3-7.1,1.8c-0.9,0.2-0.4,1.3-1.4,1.3c-2.6,0.1-5.2,0-7.8,0.5 C279.8,113.7,277.5,113.1,275.3,113.8z M334.3,88.7c2,0.1,1.5-1.7,1.7-2.7c0.3-1.3-1.2-1.4-2-1.4c-1.2-0.1-2,0.9-2.1,1.9 C331.6,88.2,333,88.4,334.3,88.7z M298.4,89.9c1.7,0.2,2-1.3,2-2.1c0-0.7-0.6-2.2-2-2c-1.2,0.1-2.2,0.8-2.3,2.1 C296.1,89.3,297.3,89.7,298.4,89.9z M297.8,104.6c-0.6,0.3-2,0.4-1.8,2c0.1,1.2,0.9,2.2,2.2,2.1c1-0.1,2.2-0.5,2-1.9 C300,105.6,299.8,104.4,297.8,104.6z M243.1,85.5c-1,0.4-2.1,1.1-2.1,2.2c0.1,0.8,0.5,2.1,1.9,2.1c1.2,0,2.1-0.5,2.2-1.8 C245.2,87.3,243.7,85.5,243.1,85.5z" fill="#A25634"/></g><g><path d="M327.1,101.3c0.2-1.4,1.6-1.9,2.5-2.6c3.2-2.7,5.1-6.2,6.9-9.8c0.6-1.3,1.1-2.6,0.9-4.2 c-0.4-2.7-1-2.5-3-3.7c-1.9-1.1-4.1-1.7-5.2-3.9c-2-2.4-4-4.7-7-5.8c-2.6-1-5.2-2.1-7.8-3.1c-1.4-0.8-3-1-4.5-1.7 c-5.4-2.3-11.2-2.6-16.9-2.9c-6.4-0.4-12.9-0.5-19.4,0.5c-7,1-13.7,2.6-20.4,4.7c-1.5,0.5-3.1,1-4.6,1.6c-2.7,1-5.2,2.4-7.9,3.6 c-4.9,2.3-8.8,5.5-11.4,10.4c-0.9,1.7-1.6,3.3-2.1,5.1c-0.4,1.8,1,2.7,1.3,4.1c0.4,2.1,2.5,2.8,3.9,3.8c1.1,0.8,2.6,1.1,3.4,2.5 c-0.4,0.9,0.8,1,0.9,1.3c0.3,1.7,1.8,2.2,2.8,3.1c1.2,1.1,2.5,2.1,4,2.8c1.6,0.8,3.4,1.4,4.9,2.2c1.7,1,3.5,1.6,5.5,1.8 c0.5,0,0.6,0.6,0.8,1.1c-6.2-0.7-12.2-2.5-18.1-4.6c-5.6-2-10.8-4.7-15.4-8.4c-3.3-2.7-6.5-5.7-7.9-10c0.8-4.5,2.5-8.5,5.4-12.2 c5.4-6.8,12.9-10.7,20.5-14.1c10-4.4,20.7-5.9,31.5-6.5c9.5-0.5,18.9,0.2,28.2,2.1c11.8,2.4,23,6.4,32.5,14.1 c4.2,3.4,7.8,7.4,9.7,12.6c-0.5,2.8-1.9,5.1-3.7,7.2C334.8,95.9,331.4,99.2,327.1,101.3z M231,74.6c0.1-0.9-1.2-2.2-2.5-2.2 c-1.1,0-2,0.8-2,1.9c-0.1,1.2,0.5,2.4,1.7,2.8C229.3,77.6,230.8,76.2,231,74.6z M222.3,92.2c-0.1-1.1-0.8-1.9-2-2 c-1.7-0.2-1.7,1.3-2.1,2.3c-0.3,0.8,1.5,2.3,2.7,2C221.8,94.3,222.1,93.2,222.3,92.2z M266.6,61.3c-0.7-0.7-0.9-2-2.3-1.8 c-1,0.2-2,0.7-1.8,1.8c0.1,1,1.3,1.7,2.2,1.7C265.5,63,266.4,62.4,266.6,61.3z" fill="#864631"/></g><g><path d="M341.6,85.1c-1.9-5.2-5.5-9.2-9.7-12.6c-9.5-7.7-20.7-11.6-32.5-14.1c-9.3-1.9-18.7-2.6-28.2-2.1 c-10.8,0.5-21.5,2.1-31.5,6.5c-7.7,3.4-15.1,7.3-20.5,14.1c-2.9,3.6-4.6,7.7-5.4,12.2c-1.1-1.3-1.2-2.9-1.4-4.5 c-1.1-8.5,3-14.5,9.3-19.5c5.7-4.5,11.9-8.1,18.8-10.3c6.1-2,12.2-3.6,18.6-4.6c6.1-0.9,12.2-1.3,18.3-1.5 c12.6-0.4,24.9,1.1,36.8,4.9c8.6,2.7,16.7,6.6,22.9,13.5C341.7,72.3,343.5,78.2,341.6,85.1z" fill="#EEBE72"/></g><g><path d="M275.3,113.8c2.2-0.7,4.5-0.2,6.7-0.6c2.6-0.5,5.2-0.4,7.8-0.5c1,0,0.5-1.2,1.4-1.3 c2.4-0.5,4.7-1.3,7.1-1.8c4.6-0.9,9.4-1.2,13.9-2.6c3.8-1.2,7.8-2,11.3-4.1c0.3-0.2,0.8-0.1,1.2-0.2c-2,1.8-4.6,2.5-7,3.5 c-7,3-14.4,4.8-21.8,6.1c-3.7,0.6-7.5,1.1-11.3,1.2C281.5,113.7,278.4,114,275.3,113.8z" fill="#864631"/></g><g><path d="M324.6,102.8c0.4-1.2,1.4-1.4,2.5-1.5C326.6,102.2,325.5,102.4,324.6,102.8z" fill="#864631"/></g><g><path d="M236,99.8c-0.8-1.3-2.3-1.6-3.4-2.5c-1.4-1-3.4-1.7-3.9-3.8c-0.3-1.4-1.8-2.4-1.3-4.1 c0.5-1.8,1.2-3.5,2.1-5.1c2.6-4.8,6.5-8.1,11.4-10.4c2.6-1.2,5.1-2.6,7.9-3.6c1.5-0.5,3.1-1.1,4.6-1.6c6.7-2.1,13.4-3.7,20.4-4.7 c6.5-0.9,13-0.8,19.4-0.5c5.7,0.3,11.5,0.6,16.9,2.9c1.4,0.6,3.1,0.9,4.5,1.7c-0.4,1-0.5,1.9,0.5,2.7c0.6,0.5,0.7,1.2,0.6,1.9 c-2.3-0.8-4.5-1.7-6.8-2.5c-2.9-1-5.9-1.3-8.9-1.7c-3.5-0.5-7-0.8-10.6-0.8c-5.3,0-10.7,0-15.9,1.1c-2.6,0.6-5.3,1-8,1.3 c-1.4,0.2-2.5,1-3.8,1.4c-3.4,0.9-6.8,2.1-10.1,3.2c-3.1,1-6,2.8-8.6,4.7c-1.9,1.3-4.1,2.2-5.3,4.4c-1.2,0.6-1.3,2-2.2,2.9 c0,0,0,0,0,0c-0.8,1.1-1.2,2.3-1.3,3.7c-0.1,0.8,0.3,0.3,0.6,0.3c3,2.2,5.9,4.5,10,4.7c5.1,0.3,10.3,0.8,15.4,1.5 c6.3,0.9,12.6,1,18.9,1.1c3.6,0,7.1,0.3,10.6-0.2c5.3-0.8,10.7-0.8,15.8-2.1c4.9-1.3,9.7-3.2,14.4-5.1c1.8-0.8,2-2.1,0.5-3.4 c-2.9-2.7-6.3-4.8-10.1-5.8c-3.9-1-7.7-2.4-11.9-2.6c-8.1-0.6-16.1-0.5-24.2,1.1c-3.7,0.7-7.3,1.5-10.8,2.9 c-0.8,0.3-1.3,1.3-2.2,1.4c-0.4-0.6-0.9-0.3-1.3,0c-0.4,0.2-0.5,0.5-0.1,0.8c0,0.3-0.1,0.6-0.4,0.7c-0.5,0-1.1,0-1.3,0.6 c-0.2,0.5,0.1,0.8,0.6,0.8c0,1.2,1.2,1,1.8,1.5c0.5,1.8-0.6,1.9-2,2.3c-1.2,0.3-1.7-0.3-1.5-0.9c0.4-2.1-1.1-1.9-2.3-2 c-0.9-2-0.1-3.6,1.4-4.8c2-1.6,4.1-3.2,6.4-4.4c3.1-1.5,6.4-2,9.7-2.5c4.5-0.8,9-1.7,13.5-2.2c2.3-0.3,4.7,0.1,7,0.2 c1,0,1.9,0.1,2.9,0.1c7.5-0.2,14.6,1.7,21.5,4.8c2.9,1.3,5.5,2.8,7.7,5.1c3.2,3.4,3.2,9-1.8,11.1c-4.1,1.7-8.2,3.2-12.4,4.6 c-1.8,0.6-3.7,0.9-5.5,1.7c-1.4,0.7-3.2,0.2-4.9,0.4c-4.6,0.7-9.2,1-13.8,1.3c-3.8,0.2-7.6,0.2-11.4,0.1c-1.9-0.1-3.8,0.4-5.7,0.1 c-2.5-0.4-5.1-0.2-7.6-0.5c-1.1-0.1-2.4,0.2-3.6,0c-5.1-0.6-10.2-0.7-15.3-1.1c-1.6-0.1-3.4-0.4-4.9-1.5 C237.1,99.9,236.6,99.8,236,99.8z" fill="#CE6C3B"/></g><g><path d="M254.4,88c1.2,0.2,2.7-0.1,2.3,2c-0.1,0.7,0.3,1.3,1.5,0.9c1.4-0.4,2.4-0.5,2-2.3c3.5,0,6.9,0,10.4,0 c5.9-0.1,11.7-0.5,17.2-2.9c0.3-0.1,0.6-0.3,1-0.4c-0.8-0.9-5.1-1.8-6-1.2c-0.2,0.1-0.5,0.4-0.5,0.7c-0.3,1.2-1.2,1.6-2.2,1.5 c-1.4-0.1-2.7-0.4-3.2-2c-0.3-0.8-0.2-1.4,0.6-1.9c2.8-1.7,5.9-1.3,8.9-1.1c1.5,0.1,3.1,0.4,4.5,1.1c1.1,0.6,2.3,1.2,2.2,2.7 c-0.1,1.5-1.2,2.1-2.3,2.6c-5.2,2.4-10.8,3.8-16.5,4.2c-4.4,0.3-8.9,0.6-13.4,0.7C257.5,92.7,255.4,91,254.4,88z" fill="#C96A3B"/></g><g><path d="M315.6,72.8c0.1-0.7,0-1.5-0.6-1.9c-0.9-0.8-0.8-1.7-0.5-2.7c2.6,1,5.2,2.1,7.8,3.1c3,1.1,5,3.5,7,5.8 c0.2,1.1-0.2,1.4-1.3,1c-1.9-0.7-3.3-2.2-5.3-2.9C320.4,74.3,318,73.6,315.6,72.8z" fill="#C96A3B"/></g><g><path d="M334.3,88.7c-1.3-0.3-2.7-0.5-2.4-2.2c0.2-1.1,1-2.1,2.1-1.9c0.7,0.1,2.2,0.2,2,1.4 C335.7,87,336.3,88.8,334.3,88.7z" fill="#C96A3B"/></g><g><path d="M298.4,89.9c-1.2-0.2-2.3-0.6-2.2-2.1c0.1-1.3,1.1-2,2.3-2.1c1.4-0.2,2,1.3,2,2 C300.4,88.6,300.1,90.1,298.4,89.9z" fill="#C96A3B"/></g><g><path d="M297.8,104.6c2-0.2,2.2,1,2.3,2.1c0.2,1.4-1,1.8-2,1.9c-1.3,0.1-2-0.8-2.2-2.1 C295.9,105,297.2,104.9,297.8,104.6z" fill="#C96A3B"/></g><g><path d="M243.1,85.5c0.6,0,2.1,1.8,2.1,2.4c-0.1,1.3-1.1,1.8-2.2,1.8c-1.4,0-1.8-1.3-1.9-2.1 C240.9,86.6,242.1,86,243.1,85.5z" fill="#CE6C3B"/></g><g><path d="M234.6,90.9c-0.3,0-0.7,0.4-0.6-0.3c0.1-1.4,0.5-2.6,1.3-3.7C236.3,88.4,235.4,89.6,234.6,90.9z" fill="#A25634"/></g><g><path d="M235.3,86.9c0.8-0.9,1-2.3,2.2-2.9C237.5,85.5,237.2,86.8,235.3,86.9z" fill="#A25634"/></g><g><path d="M259.5,85.1c-0.4-0.3-0.3-0.6,0.1-0.8c0.5-0.2,0.9-0.5,1.3,0C260.6,85,260.1,85.1,259.5,85.1z" fill="#C96A3B"/></g><g><path d="M258.3,87.2c-0.5-0.1-0.8-0.3-0.6-0.8c0.2-0.6,0.8-0.6,1.3-0.6C258.9,86.3,258.3,86.6,258.3,87.2z" fill="#C96A3B"/></g><g><path d="M231,74.6c-0.2,1.6-1.6,3-2.9,2.5c-1.1-0.4-1.8-1.6-1.7-2.8c0.1-1.1,0.9-1.9,2-1.9 C229.8,72.4,231.1,73.7,231,74.6z" fill="#CE6C3B"/></g><g><path d="M222.3,92.2c-0.2,1-0.5,2.1-1.4,2.3c-1.2,0.3-3-1.2-2.7-2c0.4-1,0.4-2.5,2.1-2.3 C221.5,90.3,222.1,91,222.3,92.2z" fill="#CE6C3B"/></g><g><path d="M266.6,61.3c-0.3,1.1-1.2,1.7-1.9,1.7c-0.9,0-2.1-0.6-2.2-1.7c-0.1-1,0.8-1.6,1.8-1.8 C265.7,59.3,266,60.6,266.6,61.3z" fill="#C96A3B"/></g></g></g><g><g><path d="M344.7,80.3c-0.1,5.7-2.6,10.6-6.5,14.8c-5.8,6.4-13.1,10.4-21,13.5c-10.1,4-20.5,6-31.3,6.9 c-13.8,1.1-27.4,0.2-40.8-3.3c-9.2-2.4-17.9-6-25.2-12.2c-5.2-4.4-9-9.7-9.4-16.8c-0.3-5.1,1.5-9.5,4.6-13.5 c3.5-4.5,7.8-8.3,12.7-10.9c7.4-4,15.1-7.7,23.4-9.5c8-1.7,16.2-2.8,24.4-3c13.2-0.4,26.2,1,38.8,5.1c9,2.9,17.5,7,24.1,14.2 C342.3,69.7,344.6,74.5,344.7,80.3z M270.3,113.4c19.6,0,33.8-2.2,47.4-7.7c7.3-3,14.1-6.9,19.3-13.1c3.9-4.8,5.9-10.1,4.4-16.4 c-1.3-5.4-4.9-9.3-9.1-12.6c-6.9-5.5-15-8.7-23.5-10.9c-12-3.1-24.2-4.1-36.6-3.4c-11.8,0.7-23.2,2.8-34.2,7 c-7.2,2.7-13.9,6.6-19.4,12.2c-7.7,7.8-8.1,17.3-1.2,25.9c4.4,5.3,10.2,8.7,16.4,11.3C247.1,111.3,261.1,113.3,270.3,113.4z" fill="#DFA456"/></g></g><g><g><path d="M182 55H184.1V57.1H182z" fill="#EFBB81"/></g><g><g><path d="M285.6,134.6c-0.7-0.6-1.5-1.1-1.7-2c-0.6-2.7-1.9-5-3-7.5c-3.6-7.7-9.2-12.8-18.1-13.1 c-1.2,0-2.4,0-3.6,0c-3.5,0-6.9,0.3-10,1.8c-3,0.9-6,1.1-9.1,0.1c-1.1-0.3-2.3-0.3-3.5-0.5c-5.1-2-9.7-1.1-14.1,2 c-3.6,2.5-4.6,5.1-3.5,9.4c0.4,1.4,0,2.3-1.2,3c-3,1.6-5.3,3.9-7.2,6.6c-0.7,1-1.1,0.9-1.9,0.1c-2.1-2.1-3.6-4.7-5.5-7.1 c-0.6-0.8-0.3-1.3,0.5-1.6c5-2.1,9-12.6,7.9-17.8c-0.3-1.4-0.4-2.7-0.3-4.1c0.2-6.4-0.7-12.8-1.4-19.1c-0.2-1.8-0.4-3.6-1.9-4.9 c-2.5-2.2-4.2-4.9-6-7.6c-1.2-1.1-2.4-2.1-3.4-3.3c-0.3-0.4-0.6-0.9-0.9-1.4c-0.5-0.6-1.1-1.2-1.5-1.9c0.5,0.7,1,1.3,1.5,1.9 c0.2,0.5,0.5,0.9,0.9,1.4c1,1.3,2.2,2.2,3.4,3.3c2.1,0.4,4.1,1.3,6.1,2.1c4.2,1.6,4.2,1.5,5.9-2.8c1.2-1.3,2.2-2.8,3.4-4.1 c3.4-3.7,7.6-6.4,11.7-9.2c0,0,0,0,0,0c1.1-0.4,2.1-0.9,3-1.7c0.5-0.1,1.1-0.2,1.4-0.8c2.6-0.5,4.8-2,7.2-2.9 c0.8-0.2,1.6-0.3,2.3-0.9c0,0,0,0,0,0c1.6-0.3,3.2-0.5,4.6-1.2c3.4-0.2,6.7-1.1,9.9-2.3c1-0.4,1.3-1,1.1-2 c-0.3-1.5-0.5-3.1-0.8-4.6c-1.1-5.5-4.3-10.2-5.3-15.7c-0.1,0-0.1,0-0.2,0c0.1,0,0.1,0,0.2,0c-0.2-1.4-0.5-2.9-0.7-4.3 c0-1.1-0.5-2.1-1-3c-2.4-3.9-6.6-5.3-10.5-7.1c-1.3-0.6-2.8-1.1-4.3-1c-0.5,0-0.9,0-1.4-0.1c-0.5,0.3-1.1,0.4-1.6,0.3 c0.5,0,1.1,0,1.6-0.3c-1-0.7-2.2-0.3-3.2-0.4c-1.7-0.1-3.3-0.2-5,0.1c-0.8-0.2-1.5-0.2-2.3,0.1c-2.3,0.7-4.4,0.5-6.4-0.9 c-1.6-1.1-3.4-1.6-5.4-1.1c-2.5-0.1-4.9,0-7,1.7c-1,0-1.8,0.4-2.5,1.1c0,0,0,0,0,0c-0.6,0.2-1.1,0.6-1.4,1.1 c-1.4,2.3-3.6,3.3-6,4.1c-1.8,0.6-3.6,1.5-5.2,2.7c-2.5,1.1-4,3.3-6.3,4.6c-3.5,2-6.3,4.6-8.4,8.1c-1.6-1.9-3.4-3.6-6.1-4 c-1.8-0.4-3.1-1.6-4.6-2.6c-0.3-1-0.9-1.7-1.9-2.1c-0.5-0.7-1.2-1-1.9-1.2c-3.5-1.2-7-2.3-10.6-3.5c-1-0.9-1.6-2.2-3-2.7 c0,0,0,0,0,0c-0.6-1.2-1.7-1.4-2.8-1.6c-3.1-0.4-6.1-0.2-9.2,0.4c-2.9,0.6-5-0.7-7-2.6c-2.8-2.8-7-3.5-10.6-1.8 c-0.9,0.1-1.5,0.6-2.2,1.1c-1.4,0.8-2.7,1.9-4.2,2.4c-3.9,1.2-6.8,4.1-10.2,6.1c-1.1,0.3-2.1,0.7-2.9,1.6c-1,0.2-1.5,0.9-2,1.6 c-1.7,2.3-2.8,5-3.7,7.8c-1,1.8-1.8,3.7-3.5,5.1c-2.7,2.3-4,5.3-3.8,8.9c-0.8,0.3-1.4-0.3-2.1-0.3c-2.8-0.9-5.6-0.7-8,1 c-2.2,1.6-4.4,3.1-6.8,4.3c-0.5,0.2-0.9,0.3-1.4,0.5c0,0.8,0,1.5,0.2,2.2c-0.1-0.7-0.2-1.4-0.2-2.2c-3.1,0.6-5.9,1.8-8.6,3.2 c-2.5,0.9-4.9,2.1-6.4,4.3c-1.2,1.8-2.3,3.7-4,5.1c-1.1,0.8-1.3,2-1.4,3.2c0,0.4-0.1,0.8-0.1,1.2c0.3,4.3,0.1,8.4-2.1,12.3 c-0.7,1.3-1.2,2.9-0.5,4.5c0,2.5,0.8,4.9,1.9,7.2c0.2,1.2,0.4,2.4,0.5,3.6c0,3.1,0.6,5.9,2.5,8.5c1.9,2.5,4.2,4.1,7.1,5.2 c-2.8,1-5.6,2.1-8.3,3.4c-3.5,1.7-5.8,4.2-7.2,7.8c-1.8,4.9-2.9,9.9-3.5,15c-0.7,5.3,0,10.4,3.5,14.8c0.1,0,0.2,0,0.2,0 c-0.1,0-0.1,0-0.2,0c2.9,4.5,6.7,8.1,11.4,10.6c1.8,1.2,3.8,2,5.8,2.8c0.5,0.6,1.2,0.8,1.9,1c6.9,2.3,14,3.3,21.3,2.7 c0.8-0.1,1.5,0,2.3,0c2.9,0.1,5.8,0.3,8.8,0c1.7,0.5,3.4,0.2,5.1-0.4c2.1-0.4,3.9-1.1,5.7-2.2c1.1-0.2,2.2-0.6,3.2-1.1 c1.5-0.1,3-0.6,4.6-0.5c4.6,0.4,8-1.7,11-4.9c0.8-0.8,1.4-1.8,2.4-2.4c0.4,1.1,0.6,2.2,1.1,3.2c1.7,4.2,4.5,7.8,6.3,11.9 c2.2,4.9,5.7,8.3,10.2,11c5.2,3.1,10.7,5.4,16.9,5.3c0,0,0,0,0,0c3.9,0.1,7.8,0.3,11.6-0.2c1.2-0.2,2.5-0.1,3.7,0.4 c1.8,0.7,3.6,0.8,5.5,0.3c1.6-0.4,3.3-0.7,4.9-1.2c4.3-1.2,8.8-1.8,12.8-3.9c3.9-2,7.4-4.4,9.5-8.4c1.4-1.7,2.8-3.4,4.2-5 c0.6,0,0.9,0.5,1.2,0.9c1.9,2.9,4.3,5.5,7.1,7.5c3.3,2.4,6.6,4.9,10.8,5.7c2.8,0.6,5.7,0.8,8.6,1c2,0.4,3.9,0.1,5.8-0.2 c1.3,0,2.6,0.1,3.9-0.2c0,0,0-0.1,0-0.1c0,0,0,0.1,0,0.1c9.3-0.5,17.2-4.7,24.9-9.4c3-1.5,5.5-3.6,7.2-6.5 c0.3-0.2,0.4-0.4,0.4-0.7c0,0,0,0,0,0c0,0,0,0,0,0c0,0,0,0,0,0c0,0,0,0,0,0c0,0,0,0,0,0c0.3-0.1,0.5-0.2,0.8-0.4 c4.7-3.8,7.8-8.6,9.5-14.5C292.6,145.2,290.9,139,285.6,134.6z M252.9,134.7L252.9,134.7c0,0.4,0,0.7-0.2,0.9 C252.9,135.4,253,135.1,252.9,134.7z M220.2,124.6c0.1,0.1,0.2,0.2,0.3,0.4c0,0.4,0,0.7,0,1.1c0-0.4,0-0.7,0-1.1 C220.4,124.8,220.3,124.7,220.2,124.6z M224.6,148.6C224.6,148.6,224.6,148.6,224.6,148.6C224.6,148.6,224.6,148.6,224.6,148.6z M236.7,131.4c0.4,0.3,0.7,0.7,1,1.1c0.3,0.4,0.5,0.8,0.8,1.2c-0.2-0.4-0.5-0.8-0.8-1.2S237.1,131.8,236.7,131.4 c-0.2-0.5-0.4-1-0.6-1.5c-0.2-0.5-0.4-1-0.6-1.6c0.2,0.5,0.4,1,0.6,1.6C236.4,130.4,236.6,130.9,236.7,131.4z M76.4,70.1 c-0.2-0.2-0.5-0.3-1-0.2c-0.5,0-1,0.2-1.3,0.5c0.3-0.3,0.7-0.5,1.3-0.5C75.9,69.8,76.2,69.9,76.4,70.1z M135.2,148 c-0.4,0-0.7,0.2-1,0.4C134.5,148.2,134.8,148,135.2,148c1.7-1.2,3.5-2.2,5.3-3.2C138.7,145.7,136.9,146.8,135.2,148z M182.2,55 C182.2,55,182.2,55,182.2,55c1.1,0.2,1.4,1,1.6,1.9c0,0,0,0,0,0c-0.5-0.1-1.1-0.2-1.6-0.3C182.1,56,182.1,55.5,182.2,55z M182.7,128.5C182.7,128.5,182.7,128.5,182.7,128.5L182.7,128.5c0.1-0.3,0.1-0.6,0.2-0.9C182.9,127.9,182.8,128.2,182.7,128.5z M181.9,133.9c-1.3,0.4-2.5,1.1-3.5,2.2c0,0.2-0.1,0.4-0.2,0.5c0.1-0.2,0.1-0.3,0.2-0.5C179.4,135,180.6,134.3,181.9,133.9z M177.2,138.6c0.2-0.5,0.5-1,0.8-1.5C177.7,137.6,177.4,138.1,177.2,138.6z M181.3,136.5c0.4-0.4,0.9-0.7,1.4-0.9 C182.2,135.8,181.7,136.1,181.3,136.5c-0.4,0.1-0.7,0.3-1,0.5C180.6,136.7,180.9,136.6,181.3,136.5z M192.6,136.3 c-0.7-0.2-1.4-0.3-2.2-0.3C191.2,136,191.9,136.1,192.6,136.3z M191.4,36.4L191.4,36.4c0.6-0.6,1.2-1.2,1.8-1.6 C192.6,35.2,192,35.8,191.4,36.4z M179.1,52.5c0.1,0.2,0.3,0.3,0.4,0.4C179.3,52.8,179.2,52.7,179.1,52.5z M165.1,118.3 c-0.1,0.3-0.4,0.6-1.1,0.6c0,0.4-0.3,0.5-0.6,0.7c0.3-0.1,0.5-0.3,0.6-0.7C164.7,118.8,165,118.6,165.1,118.3c0-0.1,0-0.2,0-0.3 C165.1,118.1,165.1,118.2,165.1,118.3z M163,155.6c0-0.5-0.1-0.9-0.7-1.2c0.5-1.8,0.6-3.6,0.9-5.5c-0.2,1.8-0.4,3.7-0.9,5.5 C162.8,154.7,162.9,155.2,163,155.6z M147.1,35.5c-0.1,0.5-0.1,1,0,1.6c0.6,0,1.2,0.1,1.8,0c-0.6,0-1.2,0-1.8,0 C147,36.5,147,36,147.1,35.5z M155.3,136.8c0,0.1,0,0.1,0,0.2h0C155.3,136.9,155.3,136.8,155.3,136.8z M155.2,134.3 c0.1,0,0.2,0,0.3-0.1C155.4,134.3,155.3,134.3,155.2,134.3z M149.3,119.2c-0.1,0.1-0.2,0.2-0.4,0.4v0 C149,119.4,149.1,119.3,149.3,119.2L149.3,119.2C149.3,119.2,149.3,119.2,149.3,119.2c0.1-0.1,0.2-0.1,0.4-0.1 C149.5,119.1,149.4,119.1,149.3,119.2z M149.3,119.2C149.3,119.2,149.3,119.2,149.3,119.2L149.3,119.2L149.3,119.2z M149.3,119.2 L149.3,119.2L149.3,119.2C149.3,119.2,149.3,119.2,149.3,119.2z M154.2,134.1c0.2,0,0.3,0,0.5-0.2l0,0 C154.5,134.1,154.3,134.1,154.2,134.1z M153.9,127.5c-0.5-0.2-1.1-0.5-1.6-0.7C152.9,127,153.4,127.2,153.9,127.5 C153.9,127.5,153.9,127.5,153.9,127.5L153.9,127.5z M163.6,145.9c-0.1,0.5-0.2,1-0.3,1.4C163.4,146.8,163.5,146.3,163.6,145.9z M165,117.4c0.1,0.2,0.1,0.4,0.1,0.6C165.1,117.8,165.1,117.6,165,117.4z M148.9,33.9c-0.6,0.2-1,0.5-1.3,0.9 C147.9,34.4,148.3,34.1,148.9,33.9c0.7-0.3,1.3-0.7,2-1.2C150.2,33.1,149.6,33.5,148.9,33.9z M126.6,85.4L126.6,85.4 c0-0.7-0.1-1.3,0-2C126.5,84,126.6,84.7,126.6,85.4z M118.7,98.4c0-0.1,0-0.3,0-0.4C118.7,98.1,118.7,98.3,118.7,98.4z M119.4,120.1c0-0.2,0-0.3,0-0.5c-0.6-0.3-1.2-0.6-1.9-0.8c-0.6-0.2-1.3-0.3-1.9-0.3c0.6,0.1,1.3,0.2,1.9,0.3 c0.6,0.2,1.2,0.4,1.9,0.8C119.4,119.7,119.4,119.9,119.4,120.1z M76.9,121.3c-0.3-0.1-0.6-0.1-0.9-0.2 C76.3,121.2,76.6,121.3,76.9,121.3c0.2-0.2,0.5-0.3,0.7-0.4C77.4,121,77.1,121.1,76.9,121.3z M76.6,137.7c0.4-0.3,0.9-0.6,1.3-0.9 C77.5,137.2,77.1,137.5,76.6,137.7c-0.9,0.5-1.8,0.9-3,0.9c0,0,0,0,0,0C74.8,138.6,75.8,138.3,76.6,137.7z M120.4,64.5 c-0.2-0.3-0.3-0.7-0.3-1.1c-0.6-0.1-0.8-0.5-1-0.9c0.2,0.4,0.4,0.8,1,0.9C120.1,63.8,120.2,64.2,120.4,64.5z M87.9,81.1 c0.1,0.2,0.3,0.4,0.3,0.6C88.1,81.5,88,81.3,87.9,81.1z M109.7,55.8c0.1,0.1,0.1,0.2,0.2,0.3C109.8,55.9,109.7,55.8,109.7,55.8z M117.9,45.4c-0.2,0-0.5,0-0.7,0C117.5,45.4,117.7,45.4,117.9,45.4c0,0,0.1-0.1,0.1-0.1C118,45.3,118,45.3,117.9,45.4z M102.5,50.2c-0.1,0-0.2,0-0.3-0.1C102.3,50.2,102.4,50.2,102.5,50.2z M108.1,57.1c-0.4,0-0.8-0.1-1.2-0.2 C107.3,57,107.7,57.1,108.1,57.1z M92.3,98.2c0,0.1,0,0.2-0.1,0.3C92.3,98.4,92.3,98.3,92.3,98.2z M105.4,95.4 c0.4,1.1,0.7,2.3,0.7,3.6c-0.1,0-0.2,0-0.2,0c0.1,0,0.2,0,0.2,0C106,97.7,105.8,96.5,105.4,95.4z M121.9,51.7 c0-0.1-0.1-0.2-0.1-0.3C121.9,51.5,121.9,51.6,121.9,51.7z M100.8,42.9c0,0.1,0.1,0.2,0.1,0.3C100.8,43.1,100.8,43,100.8,42.9z M99.6,49.7L99.6,49.7C99.6,49.7,99.6,49.7,99.6,49.7L99.6,49.7C99.6,49.7,99.6,49.7,99.6,49.7z M96.6,66.2c0.4,0,0.8-0.1,1.1-0.1 C97.3,66.1,96.9,66.1,96.6,66.2z M88.9,67c0.7-0.1,1.4-0.2,2.1-0.2C90.3,66.8,89.6,66.9,88.9,67z M92.1,98.7 C92.1,98.8,92.1,98.8,92.1,98.7C92.1,98.8,92.1,98.8,92.1,98.7z M91,99c0.3,0,0.6,0,0.8-0.1C91.5,99,91.3,99,91,99 c-0.5-0.7-1-1.4-1.5-2.2C90,97.6,90.5,98.3,91,99z M121.4,28.5C121.4,28.5,121.4,28.5,121.4,28.5 C121.4,28.5,121.4,28.5,121.4,28.5z M118.9,28.9c0.4-0.1,0.8-0.2,1.2-0.3C119.8,28.8,119.3,28.9,118.9,28.9z M103,32.5 c-0.5,0.2-1.1,0.5-1.6,0.7C102,33,102.5,32.8,103,32.5c0.8-0.4,1.6-0.7,2.4-0.9C104.6,31.8,103.8,32.2,103,32.5z M97.1,34.2 c0,0.2,0,0.5,0,0.7c0,0.1,0,0.2,0,0.3l0,0c0-0.1,0-0.2,0-0.3C97.1,34.7,97.1,34.5,97.1,34.2c0.2-0.1,0.4-0.2,0.6-0.4 C97.5,34,97.3,34.1,97.1,34.2z M71.4,103.4c-0.5-1.3-1.1-2.5-2-3.6c-0.4,0.1-0.7,0.2-0.9,0.4c0.3-0.2,0.6-0.3,0.9-0.4 C70.2,100.9,70.9,102.1,71.4,103.4z M68.4,106.5c-0.4-1.6-0.5-3.2-1.3-4.6c-0.4,0.2-0.7,0.5-1,0.8c0.3-0.3,0.6-0.6,1-0.8 C67.9,103.4,68.1,105,68.4,106.5z M88.1,118.1L88.1,118.1c-0.1,0-0.2,0-0.3,0C87.9,118.1,88,118.1,88.1,118.1z M132.4,125.8 c-0.1-0.1-0.2-0.2-0.3-0.2c0,0,0,0,0,0c-0.4-2.1-1.2-4.1-2.6-5.7c-2-4.3-5.3-7.6-8.9-10.4c-0.9-0.7-1.9-1.2-2.6-2.1 c-0.5,0-0.9-0.2-1.3-0.4c0.4,0.2,0.8,0.3,1.3,0.4c0.5-1.1,1.9-0.5,2.6-1.3c0.6-0.6,1.4-1.1,1.7-2c-0.5,0-0.7-0.2-0.9-0.4 c-0.1-0.2-0.2-0.4-0.2-0.6c0,0.2,0.1,0.4,0.2,0.6c0.2,0.2,0.4,0.4,0.9,0.4c0.8-0.5,1.2-1.3,1.5-2.2c1.6-5.4,3.1-10.8,2.9-16.5 c1.5,0,2.9,0.5,4.4,0.7c1.1,0.1,1,0.6,0.5,1.3c-2.9,3.6-4.6,7.8-5.1,12.3c-0.8,7.9,0,15.5,6.2,21.4c0.7,0.7,1.6,1.2,2.4,1.8 c0.7,0.5,0.8,0.8-0.1,1.2C134,124.7,133.2,125.3,132.4,125.8c-0.3,0.3-0.6,0.7-1,1C131.7,126.5,132,126.2,132.4,125.8z M222.2,35 c0.1-0.1,0.2-0.2,0.3-0.3C222.3,34.8,222.3,34.9,222.2,35z M246.3,22.5c0.8,0.2,1.4,0.6,1.6,1.7c0,0,0,0,0,0 C247.7,23.1,247.1,22.7,246.3,22.5z M221.8,35.5c-0.1,0.1-0.1,0.1-0.2,0.1l0,0C221.7,35.6,221.7,35.6,221.8,35.5z M143.5,28.8 c-0.6,0.1-1,0.4-1.3,0.8C142.5,29.2,142.9,28.9,143.5,28.8c1-1.5,1.8-3.2,2.6-4.8C145.3,25.6,144.5,27.3,143.5,28.8z M81.2,55.6 c0,0.1,0,0.2,0,0.2c0.4,0.2,0.3,0.7,0.5,1.3c-0.2-0.6-0.1-1.1-0.5-1.3C81.2,55.8,81.2,55.7,81.2,55.6z M68.6,95.1 c-1.1,1.5-2.3,2.9-3.6,4.3c-0.6-0.1-0.8-0.4-0.7-0.7c0,0.3,0.2,0.5,0.7,0.7C66.3,98,67.5,96.6,68.6,95.1c1.1-1.5,2.2-3,3.2-4.6 C70.8,92,69.7,93.6,68.6,95.1z M53.2,78.8c-0.2,0.1-0.4,0-0.6-0.1C52.8,78.9,53,78.9,53.2,78.8z M72.9,72.4c0.3,0,0.4-0.1,0.5-0.2 c0.1-0.1,0.2-0.3,0.2-0.6c0,0.2-0.1,0.4-0.2,0.6S73.2,72.4,72.9,72.4c-1.2,1.6-2.3,3.3-3.6,4.8C70.6,75.7,71.7,74,72.9,72.4z M63.6,67.7c-0.1,0-0.2,0-0.3,0C63.4,67.7,63.5,67.7,63.6,67.7c0.4-0.1,0.9-0.2,1.3-0.2C64.4,67.5,64,67.6,63.6,67.7z M62.7,66.7 c0-0.2,0-0.3,0.1-0.4C62.7,66.4,62.7,66.6,62.7,66.7z M201.4,77.5C201.3,77.5,201.3,77.5,201.4,77.5 C201.3,77.5,201.3,77.5,201.4,77.5c0,0,0-0.1,0-0.1C201.4,77.4,201.4,77.5,201.4,77.5z M193.8,62.9c0.5,0.6,1,1.3,1.4,2 C194.8,64.2,194.3,63.5,193.8,62.9z M223.6,42.1c1.1-0.8,2.2-1.5,3.1-2.5c0-0.2,0.1-0.4,0.2-0.5c-0.1,0.1-0.2,0.3-0.2,0.5 C225.7,40.6,224.6,41.4,223.6,42.1z M231.8,11.2c-0.3,0-0.5,0-0.8,0C231.3,11.1,231.5,11.1,231.8,11.2z M215.5,18.8 c-0.3-0.5-0.7-1-1.1-1.4C214.8,17.7,215.2,18.2,215.5,18.8c0.2,0.4,0.5,0.7,0.7,1.1C216,19.5,215.7,19.1,215.5,18.8z M191.2,25 c-1.3,0.5-2.5,1.1-3.8,1.7c-0.2,0.2-0.5,0.4-0.7,0.7c0.2-0.2,0.5-0.4,0.7-0.7C188.7,26.1,189.9,25.5,191.2,25z M173.8,37.2 c-0.1,0.9-0.1,1.8-0.1,2.6C173.7,39,173.8,38.1,173.8,37.2z M165.5,28.5c0.1-0.2,0.1-0.3,0.2-0.5 C165.6,28.1,165.5,28.3,165.5,28.5c-0.4-0.1-0.7-0.2-1.1-0.4C164.7,28.2,165.1,28.3,165.5,28.5z M139.5,26.7c0,0.1,0,0.1,0,0.2 C139.5,26.8,139.5,26.7,139.5,26.7L139.5,26.7z M64.2,66.2c1,0.2,2,0.3,3,0.3C66.2,66.5,65.2,66.4,64.2,66.2 c-0.3-0.1-0.7-0.2-1-0.3C63.1,66,63,66,63,66.1c0.1-0.1,0.2-0.1,0.3-0.2C63.5,66,63.9,66.1,64.2,66.2z M43,131.1 c-0.2,0.8-0.4,1.6-0.5,2.5C42.6,132.7,42.8,131.9,43,131.1z M41.8,141.4c0.1-0.1,0.1-0.2,0.2-0.3c-0.1-1.7-0.1-3.4,0.1-5.1 c-0.2,1.7-0.2,3.4-0.1,5.1C41.9,141.2,41.8,141.3,41.8,141.4z M125.2,146c0.3-0.4,0.5-0.8,0.8-1.2c0.4-0.5,0.9-1,1.3-1.5 c1.5-1,2.8-2.2,4.2-3.4c-1.4,1.2-2.7,2.4-4.2,3.4c-0.5,0.5-0.9,1-1.3,1.5C125.7,145.2,125.4,145.6,125.2,146z M158.1,186.4 c0,0.1,0.1,0.2,0.1,0.3C158.2,186.6,158.2,186.5,158.1,186.4z M210.9,168.2c0.2-0.3,0.5-0.6,0.7-0.9 C211.3,167.6,211.1,167.9,210.9,168.2z M247.5,179.7c0.1,0.2,0.2,0.5,0.3,0.7C247.8,180.1,247.7,179.9,247.5,179.7 c-0.3-0.3-0.4-0.7-0.4-1.1C247.1,179,247.2,179.4,247.5,179.7z M247.7,182.9c-0.2-0.6-0.4-1.2,0.2-1.8c0-0.1,0-0.3,0-0.4 c0,0.1,0,0.3,0,0.4C247.3,181.7,247.5,182.3,247.7,182.9z" fill="#F3C891"/></g><g><path d="M96.8,166.5c-1.7,0.6-3.3,0.9-5.1,0.4c-0.1-2.7-0.6-5.4-0.4-8.2c0-0.3-0.1-0.7-0.2-1 c-1.1-2.8-2.9-5.1-4.5-7.5c-0.1-0.2-0.4-0.2-0.6-0.4c-2.6-5.3-1.8-11-1.5-17c-1.8,1.3-3.9,1.6-5.3,2.9c-1.6,1.6-3.1,2.9-5.5,2.9 c-2.3-0.2-2.4-0.4-1.5-2.4c0.2-0.5,0.5-0.8,0.9-1.1c1.2-1,2.3-1.9,3.6-3.1c-0.7,0-1.1,0.1-1.5,0.1c-0.7,0.1-1.4,0.2-2.1,0.4 c-1.8,0.5-3.8,0.7-5.5,1.6c-2.4,1.4-5,2.5-7.1,4.3c-2.5,2.2-4.6,4.8-5.5,8.1c-1,3.7,0.5,7.4,0.4,11.1c0.3,2,1.7,3.5,2.1,5.4 c-2-0.8-4-1.6-5.8-2.8c-0.5-1.7-1-3.3-1.4-5c-0.7-3.3-0.7-6.7-0.9-10.1c-0.1-1.9,0.2-3.6,1-5.3c0.9-1.7,1.6-3.6,2.3-5.3 c2.7-2.7,5.7-5,9.5-5.8c2.6-0.6,5.3-1,7.9-1.8c2.8-0.9,5.7-1.4,8.5-2.1c1.3-0.3,2.7,0.1,3.9-0.7c1-0.3,2.3-0.1,3.2-1.4 c-2.5-0.3-4.8-0.8-7-1.6c-0.7-0.2-1.4-0.5-2,0.1c-0.6-0.1-1.2-0.2-1.7-0.3c-4.1-1.1-8-0.6-11.3,2c-2.6,2.1-6.2,2.4-8.6,4.8 c-0.2,0.2-0.5,0.3-0.8,0.3c-2.5,0.2-5,0.6-7.4,1.2c-1.1,0.3-1.3-0.4-1.6-1c-0.4-0.7,0.1-1.3,0.7-1.6c0.6-0.3,1.2-0.5,1.8-0.7 c3.3-1,7.1-1,9.3-4.3c0.1-0.2,0.4-0.4,0.6-0.4c2.8-0.6,5-2.4,7.6-3.4c1.4-0.5,1.1-1.2,0.5-2c-0.6-0.9-1.6-1.1-2.5-1.5 c-1.7-0.8-3.5-1.9-5.3-2.1c-2.2-0.2-4.4,0.9-6.1,2.2c-2.5,1.8-4.4,4.2-5.6,7c-2.6,6.2-4.8,12.6-4.4,19.6c-0.1,0.2-0.3,0.4-0.3,0.6 c-0.3,2.3-0.5,4.6-0.7,7c0,0.5,0,1-0.7,1c-3.5-4.4-4.2-9.5-3.5-14.8c0.7-5.1,1.7-10.1,3.5-15c1.4-3.6,3.7-6.2,7.2-7.8 c2.7-1.3,5.5-2.4,8.3-3.4c1.2-0.1,2.5-0.5,3.5-0.1c2.8,1.1,5.7,1.8,8.4,3.3c1.7,1,3.8,1.5,5.7,2.3c0.1-0.1,0.2-0.3,0.3-0.4 c-2.7-0.4-2.9-2.9-4-4.6c-1.5-2.2-1.1-5-2.3-7.3c0.3-1.1,1-1.9,2.2-2.2c1.2,1.5,1.9,3.1,2.4,5c0.6,2.3,1.2,4.7,3.8,6 c1.8,0.9,3.7,1.9,5.4,3.2c0.7,0.5,1.3,1.5,2.5,1.3c0.9,0.7,1.8,1.3,2.7,2c0.6,0.5,1.2,1,2,0.8c0.3,0.3,0.6,0.6,1,0.8 c0.9,0.3,2.4,1.1,2.7,0.6c1.1-2.2,3-4,3.1-6.7c0-1.7,0.5-3.4,1.4-5c0.9-1.8,2.1-3.4,2.9-5.3c1.3-3.2,3-4,6.3-3.4 c0.1,0.7-0.3,1.1-0.6,1.6c-1.1,2.2-2.3,4.4-2.3,7c0.3,5.2-1.6,9.5-5,13.3c-0.8,0.4-1.2,1.3-2.2,1.6c-0.4,0.1-0.9,0.8-0.9,1.2 c0.1,0.7,0.9,0.4,1.3,0.4c2.9,0.4,5.4-1.4,7.7-2.5c2.7-1.3,5.4-2.4,8.3-3c2.6-0.5,5.2-0.5,7.6,0.8c0.3,1.5-0.9,1.9-1.9,2.1 c-3.4,0.8-6.9,1.5-10.3,2.2c-1.3,0.7-2.4,1.5-3.6,2.7c3.4,0.8,6.5,1.8,9.5,3.4c2.7,1.4,4.6,3.2,6,5.8c1.2,2.1,2.3,4.3,4.3,6.3 c0-2.7,0-5.1,0-7.4c1.1-2.1,2.7-3.8,4.8-5.1c1.7-0.9,2.9-2.4,4.2-3.8c0.9-0.5,1.7-1.2,2.6-1.6c0.9-0.4,0.7-0.8,0.1-1.2 c-0.8-0.6-1.7-1.1-2.4-1.8c-6.2-6-7-13.6-6.2-21.4c0.5-4.5,2.1-8.7,5.1-12.3c0.5-0.7,0.7-1.1-0.5-1.3c-1.5-0.2-2.9-0.7-4.4-0.7 c0-0.9-0.2-1.8,0.2-2.8c0.9,0.7,2,0.7,3,0.9c1,0.2,1.8-0.1,2.4-1.1c1.8-3.1,2-6.5,1.7-9.9c-0.3-3.7-0.5-7.4,0.4-11.1 c0.6-2.4,1.1-4.9,1.9-7.2c0.7-2.2,0.2-4.5,0.9-6.6c0.6-1.8,0-2.9-1.5-3.9c-0.8-0.5-1.2-0.4-1.6,0.4c-1.8,3.3-3.8,6.4-6.1,9.4 c-2.6,3.4-4.5,7-5.6,11.1c-0.3,1.3-0.9,1-1.6,0.3c-0.4-0.4-0.6-0.9-0.6-1.4c0.4-2.4,1.4-4.6,2.5-6.7c0.8-1.6,2.4-2.8,2.5-4.8 l0.2-0.1l-0.1-0.1l-0.1,0.1c-3.1,1.1-2.5,1.2-3.6-1.1c0.6-2.1,2.6-3.2,3.7-4.9c0.2-0.3,0.6-0.5,0.4-0.9c-0.2-0.5-0.7-0.3-1.1-0.2 c-2.1,0.5-4.1,0.9-6.3,0.6c-0.1-0.2-0.2-0.2-0.4,0c-0.2,0-0.5,0-0.7,0c-0.6-1.2-1.7-0.5-2.6-0.8c-3.4-1.1-6.7-0.6-10.1-0.1 c-2.7,0.4-3,1.3-3.9-2c0.1-1.4,1.2-2,2.4-2.4c2.3-0.7,4.6-1.8,7-1.8c3.5,0,7.1-0.6,10.6,0.6c2.2,0.8,4.7,0.4,6.9-0.2 c1.3-0.3,1.3-1.3,0.4-2.2c-1.5-1.6-3.4-2.2-5.2-3.2c-2.2-1.2-4.4-2-7-2c-0.5,0-1,0-1.4-0.2c-2.6-0.8-5.2-0.5-7.7,0.1 c-3.4,0.8-6.4,2.8-9.6,4c0-0.1,0-0.2,0-0.3c0-0.2,0-0.5,0-0.7c0.2-0.1,0.4-0.2,0.6-0.4c4-5.1,9.7-5.8,15.5-5.1 c2.6,0.3,5.1,0.7,7.7-0.2c1.7-0.2,3,1.2,4.7,1.1c0.1,0.1,0.3,0.2,0.4,0.3c0,0,0.1-0.1,0.1-0.1c-0.2,0-0.3-0.1-0.5-0.1 c-0.1-0.2-0.1-0.5-0.3-0.6c-1.5-1.8-3.5-3.3-4.7-5.3c-2.4-3.7-3.6-8-5.1-12.1c0.7-0.5,1.3-1,2.2-1.1c1.3,2.5,2.5,5.1,3.9,7.6 c0.7,1.3,1.4,2.7,2.4,3.7c3.7,4.1,7.4,8.2,9.8,13.2c0.2,0.3,0.1,0.9,0.8,0.6c1.1-0.4,2.2-0.6,2.2-2.1c0-1.1,0.6-2,1.2-2.7 c0.9-0.9,1.1-1.9,1-3.1l0,0c0.7,0,0.7-0.6,0.7-1.1c0.4-0.9,0.7-1.7,1.1-2.6c1.3-3,2.6-6,6-7.3c0.2-0.1,0.3-0.5,0.5-0.7 c1.4,0.5,2,1.8,3,2.7c-0.3,0.2-0.7,0.5-1,0.7c-2.5,2.7-3.7,6.3-5.7,9.4c-1.6,0.3-1.8,2-2.7,2.9c-0.8,0.8-0.9,2.1-0.5,2.6 c0.7,0.8,1.6-0.2,2.3-0.6c2.2-1.5,4.4-3.1,6.9-4.1c4.8-1.9,9.5-4.3,14.9-4.1c1.4,1,2.8,2.2,4.6,2.6c-1,1.2-2.1,0.8-3.2,0.3 c-0.1-0.2-0.1-0.3-0.2-0.5c-0.1,0.2-0.1,0.3-0.2,0.5c-0.4-0.1-0.7-0.2-1.1-0.4c-0.1-0.9-0.8-0.7-1.4-0.7c-2.3-0.2-4.2,1.2-6.2,1.9 c-2.9,1-5.2,3.2-7.9,4.6c-1.5,0.6-2.1,1.6-1.8,3.2c-2.9,0.4-3.8,1-4,2.9c0.5,1.1,1.3,2,2.1,2.8c0.8,0.8,1.7,1.5,1.8,2.7 c0.2,2.3,1.5,3.9,3,5.3c1.6,1.6,3,3.3,4.6,5c1.1,1.1,1.8,2.5,4.1,2.4c2.1,0,3.4-0.3,4.6-2.1c1-1.7,2.5-3.2,4.7-2.8 c2,0.4,4.2,0.9,5.9,2.4c1.1,1,2.4,1.1,3.8,0.4c1.4,0.4,2.9,0.4,4.4,0.3c0.5,0.1,1.1,0.2,1.6,0.3c1.9,0.5,3.8,1.3,5.5,2.2 c0.7,0.4,1.2,1.2,2.1,1c2.5,2.2,3.9,5.2,6.1,7.6c1,2,2.7,3.2,4.3,4.7c1.8,2.7,3.5,5.4,6,7.6c1.5,1.3,1.7,3.1,1.9,4.9 c0.8,6.4,1.6,12.7,1.4,19.1c0,1.4,0.1,2.7,0.3,4.1c1.1,5.2-2.9,15.7-7.9,17.8c-0.8,0.3-1.2,0.8-0.5,1.6c1.9,2.3,3.3,5,5.5,7.1 c0.8,0.8,1.2,0.9,1.9-0.1c1.9-2.7,4.3-5,7.2-6.6c1.2-0.7,1.6-1.6,1.2-3c-1.1-4.3-0.1-6.9,3.5-9.4c4.4-3.1,9-4,14.1-2 c0.2,0.7,0.9,1,1.4,1.3c1.1,0.6,1.5,1.5,1.5,2.6c0,1.2,0.4,2.3,0.8,3.4c0.4,0.9,1.1,1.6,1,2.6c0.1,1.6,0.2,3.3,0.4,4.9 c0.4,2.9,1.9,5.4,3.4,8.3c0.4-2.2,0.5-3.9,0-5.6c-0.8-3.3-1.1-6.6,2.3-8.8c2.8-1.8,4.8-4,6-7.1c0.4-0.9,0.9-2.4,2.2-2.1 c1.4,0.3,0.6,1.8,0.8,2.8c-1.2,3.2-2.7,6.3-5.7,8.3c-0.4,0.3-0.5,0.7-0.6,1.2c-0.5,3.8-0.7,7.6-0.5,11.4c0.8,1,1.4,0.8,2.2-0.7 c0.1-0.1,0.2-0.2,0.4-0.4c0.8,0.1,1.2-0.3,1.1-1.1l0,0c0.9,0.1,1.6-0.4,2-0.9c1-1.4,2.6-1.8,4-2.4c1.5-0.6,2.9-1.3,4.3-2 c1.9-0.9,3.8-1.7,6-0.9c0.9,0.3,1.4,0.8,1.5,1.6c0.1,0.9-0.8,0.9-1.3,1.2c-1,0.5-2.3,0.6-3.3,1.3c-1.5,0.7-1.7,2.5-3,3.4 c-3.3,2.4-6.9,4.1-10.8,5.3c-0.6,0.2-1.7-0.1-1.8,0.8c-0.1,1,0.6,1.6,1.4,2.1c0.7,0.4,1.4,0.8,2.1,0.8c2.1,0.1,4,0.6,6,1 c3.2,0.5,6.4,1,9.2,2.8c1.6,1,3.7,1.5,4.8,3.2c0.7,1.2,1.6,2.1,2.6,2.9c1.1,0.8,2.1,1.8,2.8,3c0.6,1,1,0.6,1.3-0.1 c0.5-1.1,0.7-2.3,0.7-3.5c0-1.5-0.1-3.1,0.7-4.5c1.7-3,2.4-6.4,3.3-9.8c1.6-1.3,2.5-1.3,2.9,0.1c0.6,2.1,1.3,4.3,0.7,6.4 c-1,3.7-2.5,7.2-4.1,10.6c-0.9,2-1.5,4.3-3.2,5.9c-1.1,1-1.6,2.2-1.6,3.6c0,0,0,0,0,0c-0.4,0.1-0.4,0.4-0.4,0.7 c-1.7,2.9-4.2,5-7.2,6.5c-0.3-1.2,0-2.3,0.7-3.4c1.4-2.1,2.7-4.3,4.1-6.4c0.6-1,0.8-1.9,0.1-3c-0.9-1.6-2-3-3.3-4.1 c-0.7-0.6-1.4-1.6-2.6-1.5c-1.2-0.2-2.9-1-3.6-0.5c-1.9,1.4-3.7,0.4-5.2-0.2c-3.3-1.4-6.8-2.3-10.1-3.5c-2.6-0.9-5.4-1.4-6.4-4.7 c-0.5-1.7-2.9-1.9-4.1-0.7c-2.7,2.7-1.9,6.5-3.2,9.6c-0.7,1.6,1,3,1,4.6c0,1.4,0.8,2.4,1.4,3.6c2.3,4.4,5.4,8.4,5.7,13.6 c0,0.7-0.3,1.6,0.4,2.2c0.2,0.4,0.4,0.9,0.4,1.4c-0.8,0.8-0.2,1.5,0,2.3c-1.3,0.4-2.6,0.2-3.9,0.2c-0.1-0.8-0.2-1.5-0.4-2.3 c-0.5-2-0.5-4-0.9-6c-0.7-3.4-3-6.1-4.7-8.9c-3.5-5.6-4.3-11.3-1.7-17.4c0.2-0.3,0.7-0.6,0.2-1.1c-0.3-0.3-0.7-0.3-1.2-0.2 c-1.6,0.4-3.3,0.5-4.9,1.1c-1.9,0.7-3.5,1.9-4.1,4c-0.7,2.5-1.2,5.1-2,7.6c-0.8,2.5-0.3,4.6,1.2,6.7c0.4,0.6,1,1,1.4,1.6 c2,2.6,2.6,6,4.9,8.4c2,2.1,2.5,5.9,6.3,6.3c0,0,0.1,0.2,0.1,0.3c-2.9-0.2-5.8-0.4-8.6-1c-1.1-1.8-2.8-3.1-3.6-5 c-1.4-2.7-2.7-5.5-4.3-8.1c-1.1-1.8-1.6-3.5-1.5-5.5c0.6-3,1.9-5.9,2.5-8.9c0.5-2.6,2.4-4.8,1.8-7.6c1.6-2.4,3.8-4.2,5.8-6.2 c-0.6-1.1-1.8-1-2.7-1.1c-1.5-0.2-2.6-1.5-4.2-1.3c-1.4,0.2-2.7,0-4-0.2c-2.2-0.4-4.2,0.3-6.1,1.6c-0.5,0.3-0.6,0.9-0.3,1.2 c0.8,1,0.8,2.2,1.1,3.3c1.2,4,1.7,8,0.9,12.2c-0.6,3.2-1.2,6.4-3.2,9.1c-0.2,1-0.9,1.6-1.5,2.4c-1.4,1.7-2.8,3.4-4.2,5 c-0.3-2,1.2-3.1,2-4.6c1.7-3.6,4.3-6.8,4.1-11.1c-0.1-1.9-0.2-3.9-0.4-5.8c-0.1-2.6-0.3-5.2-0.8-7.8c-0.5-2.8-1.6-4.9-3.2-7 c0.3-1-0.5-1.6-1-1.8c-1.4-0.7-1.8-2.1-2.4-3.2c-2.1-3.9-5.1-6.5-9.6-7.2c-1-0.1-1.9-0.2-2.9-0.4c-2.4-0.3-5.1-2.5-7,0.9 c0,0.1-0.2,0.1-0.3,0.1c-1.5,0.2-1.8,1.3-2,2.6l0,0c-0.5,0-0.7,0.3-0.7,0.7c0,0.4-0.3,0.6-0.5,0.9c-1.1,1.7-2.5,3.2-3.1,5.2 c-1.8,1.4-2.1,3.8-3.4,5.6c0.8-0.1,2,0,1.9-0.6c-0.3-1.8,1.1-2.8,1.4-4.3c2-2.3,4.7-2.8,7.6-2.5c1.2,0.1,2.4,0.1,3.6,0 c2.1-0.1,4,0.1,5.8,1.2c1.5,0.9,3.1,1.8,4.6,2.7c0.5,0.3,0.9,0.9,0.5,1.5c-0.3,0.6-0.9,0.3-1.4,0.1c-0.8-0.3-1.7-0.7-2.5-1.1 c-2.7-1.4-5.4-2.7-8.6-1.6c-0.1,0-0.3,0-0.4,0c-2.3-1.5-4.9-1.5-6.5,0c-1.6,0.4-2.2,1.9-3.2,3c-0.7,0.8-0.5,1.3,0.6,1.3 c1.1-0.1,2.2-0.3,3.4-0.3c2.8-0.1,5.7-0.4,7.5,2.5c0.4,0.6,1.1,0.8,1.8,1.1c1.9,0.7,3.9,1.5,5.8,2.3c0.4,0.2,1,0.5,0.8,1 c-0.2,0.6-0.8,0.3-1.2,0.4c-1.5-0.7-3-1.2-4.6-1.6c-0.7-0.2-1.5,0-2.2-0.3c-1.5-0.6-2.8-1.4-4.8-1.4c-2.5,0-5.1,0.5-7.6,0.2 c-1.1-0.1-2.5,0.4-2.6,1.2c-0.1,1.3,0.1,3.1,1.6,3.7c3,1.3,5,3.3,5.8,6.4c-0.1,1.9,1.1,3.1,2.2,4.3c0,0.3,0.1,0.6,0.4,0.7 c0.2,0.4,0.3,0.9,0.5,1.3c1.1,3.2,2.3,6.3,1.7,9.8c-0.2,1.1-0.4,2.6-2.1,2.6c0.3-3.2,0.4-6.5-0.8-9.5c-1-2.6-2.4-5.1-4.2-7.4 c-1.4-1.9-2.6-3.7-5-4.6c-0.5-0.2-1-0.9-1.4-1.4c-1.2-1.6-1.1-3.5-1.6-5.2c0.2-1.4-0.5-2.7-1.5-3.2c-0.8-0.4-2.1,0.2-2.4,1.5 c-0.4,3.8-1.1,7.5-0.5,11.4c0.1,0.7-0.2,1.8-0.2,2.5c0.1,2.5-1,4.8-0.6,7.5c0.6,3.3,0.7,6.7,0.7,10.1c0,2.1-0.5,4.2-1.7,6.1 c-0.3,0.5-0.6,0.9-1.3,0.9c-0.8-0.1-0.8-0.7-0.8-1.4c1.6-3.9,1.6-7.8,0.1-11.8c-0.9-2.4-1.3-4.9-1.1-7.4c0.1-2.1,0.2-4.1,0.2-6.2 c0-0.7,0.3-1.6-0.7-2c1.1-4.1,0.6-8.5,2.8-12.4c-1-0.1-1.8-0.1-2.7,0.5c-2.2,1.4-3.8,3.5-5.9,4.9c-0.9,0.6-1.4,1.4-1.8,2.4 c-0.3,1-0.7,1.9-1,2.9c-1.1,3.3-3.2,6-4.7,9c-1.1,0.1-1.6-0.4-1.1-1.5c0.3-0.8,0.7-1.5,1.1-2.2c1.2-2,2.3-4.1,2.6-6.5 c0.4-3.1,1.2-6,3.8-8.1c0.5-0.4,1.1-0.9,1.1-1.7c0.4,0,0.7-0.1,0.9-0.6c-0.7-0.1-1.4,0-2-0.2c-2-0.6-3.4,1-5.2,1.1 c-1.3,0.1-2.6,0.1-3.8,0.5c-4,1.3-7.6,3.3-11,5.6c-0.8,0-1.1,0.8-1.8,1.1c-0.5,0.2-1.1,0.6-1.5,0.2c-0.5-0.6,0.3-0.9,0.6-1.2 c2-2.1,4.6-3.5,6.8-5.4c4.3-3.7,9.3-5.6,14.9-5.8l0.1,0.2l0.1-0.1l-0.2-0.1c0-0.2-0.1-0.5-0.4-0.5c-3.7-0.6-7.3-0.1-10.9,0.4 c-2.8,0.3-5.3,1.5-7.9,2.6c-2,0.9-3.9,1.7-5,3.8c-0.3,0.5-0.6,1.1-1.1,1.4c-1.5,0.8-2.1,2.2-2.3,3.6c-0.7,4.5-0.2,8.9,1.3,13.2 c1.7,5,4.9,9.2,8.1,13.3c3.6,4.6,8.3,7,14,7.6c1.1,0.6,2.5,0.2,3.6,0.7c0.6,0.9,1.6,1.2,2.3,1.7c0.9,0.6,2.1,0.9,2.3,2.2 c-6.2,0.1-11.7-2.2-16.9-5.3c-4.5-2.7-8-6.1-10.2-11c-1.9-4.1-4.6-7.7-6.3-11.9c-0.4-1.1-0.7-2.2-1.1-3.2c0.3-1.6-0.3-3.1-0.7-4.6 c0.3-1.5-0.4-2.9-1.2-3.7c-3-3.2-5.6-6.6-7.8-10.4c-0.2-0.3-0.4-0.5-0.7-0.7c-1.1-0.8-2.8-0.6-3.6-1.5c-2.3-2.7-5.4-3.1-8.5-3.8 c-2.1-0.5-4.4-0.5-5.9-2.5c-0.3-0.3-0.6-0.3-0.9-0.2c-2.2,0.5-2.7,1-2.7,3.4c0,0.4-0.1,0.8-0.3,1.2c-0.6,1.2-0.2,2,0.6,2.9 c0.9,0.9,2.2,1.4,3,2.4c2.5,3.3,5.5,6.2,7,10.2c0.7,2,1.8,4,2.7,6.1c0.1,3.1,0.7,6,1.1,9.1c-1,0.5-2.1,0.9-3.2,1.1 c-0.8-2-0.8-4.2-1.4-6.3c-0.8-3-1.7-6-3.3-8.7c-1.3-2.2-3.3-3.7-4.9-5.6c-0.3-0.3-0.8-0.5-1.3-0.6c-0.9-0.3-1.2,0.3-1,0.9 c0.6,1.5,0.5,3.2,1.5,4.7c1.5,2.2,1.2,5.3,3.3,7.3c0.1,0.1,0,0.2,0.1,0.3C96.3,159.8,96.7,163.1,96.8,166.5z M154,127.6 c0.9,3.2,2,4.1,5.1,4.3c0.2,0.3,0.4,0.3,0.7,0.4c0.2,0.3,0.5,0.5,0.8,0.5c0.4-0.1,0.2-0.5,0.3-0.8c0-0.1,0-0.2,0-0.4 c0.3-0.1,0.3-0.2,0-0.3c0.1-0.4,0.2-0.7,0.3-1.1c1.5-2.5,1.7-5.2,1-8.1c-0.3-1.1,0.5-1.6,1.1-2.3c0.3-0.3,0.8-0.3,0.8-0.8 c1.4,0,1.2-0.9,0.9-1.7c-0.7-2.2-1-4.5-0.9-6.9c0-2.3,0.3-4.7-0.3-6.8c-1-4.2-0.5-8.4-1-12.6c-0.3-2.4-0.4-4.9-1.8-7.2 c-1.1,1.3-1.9,2.5-2.9,3.6c-3.3,3.4-5,7.6-6.2,12c-1.3,4.8-2.1,9.7-2.4,14.7c-0.1,1.7-0.7,3.5-0.1,5.3l0,0 c-0.1,0.1-0.2,0.2-0.4,0.4c0.7,1,0.6,1.9-0.2,2.9c-1,1.2-0.5,3.2,0.7,3.4C151.2,126.1,152.5,126.9,154,127.6L154,127.6z M162.6,71.4c0,0.3,0,0.7,0.5,0.8c0,0,0.2-0.1,0.2-0.2C163.3,71.5,163,71.5,162.6,71.4c0.2-1.3-1.2-1.7-1.4-2.8 c-0.5-2.4-2.4-4-3.7-5.9c-0.9-1.3-2.1-1.5-3.5-0.7c-1.4,0.7-2.5,1.8-3.4,3c-0.4,0.5-1.3,0.8-1,1.5c0.3,0.7,1.1,0.7,1.8,0.9 c3.7,1.1,8.1,0.5,11,3.9C162.3,71.4,162.5,71.4,162.6,71.4z M154.7,134c0.3,0.3,0.7,0.6,1.2,0C155.4,134,155,134,154.7,134 c-0.5-1.4-2-2.2-2-3.8c0-1.5-1.2-2.2-2.4-2.4c-2.5-0.4-3.9-1.6-3.6-4.3c0.1-0.4-0.1-1.1-0.6-0.7c-1,0.9-2.5,0.5-3.3,1.6 c-1.4,0.5-2.8,0.8-4.1,1.4c-2.8,1.4-6.2,1.4-8.5,3.9c-2.2,0.7-3.6,2.1-4.4,4.3c-1,2.8-0.8,5.7-1,8.6c-0.1,1.7-0.7,3.4-0.7,5.6 c0.9-2.1,1.9-3.5,3.2-4.7c3-2,5.3-4.8,8.6-6.5c2.6-1.3,5.2-2.2,7.9-2.9c3-0.8,6-0.3,9-0.3C153.5,133.9,154,134.5,154.7,134z M135.6,85.5c2.2-0.9,3.6-2.9,5.3-4.3c4.1-3.4,8.4-6.2,13.9-6.3c0.4,0,0.9,0.2,1-0.4c0.1-0.8-0.6-0.5-0.9-0.5 c-2.2,0.1-4.4-0.6-6.7-0.1c-0.7,0.2-1.5,0.2-2.1-0.2c-1.1-0.8-2.1-0.6-3,0.4c-0.4,0.4-0.9,0.7-1.4,0.3c-1.7-1.2-2,0-2.3,1.2 c-0.1,0.6-0.4,1.3-0.6,1.9C137.8,80.1,136.7,82.8,135.6,85.5c-0.1,0.1-0.2,0.3-0.3,0.4c0,0,0.1,0.1,0.1,0.1 C135.5,85.8,135.6,85.6,135.6,85.5z M167.6,121.1c-0.5,0.3-1.6-0.7-1.5,0.8c0.3,3-0.3,6-0.2,9c0.1,4,1.2,7.3,5.2,9 c0.5-0.9,0.5-1.9,0.5-2.9c0.5-3,1.9-5.8,4.1-7.7c3.2-2.7,6-6.1,10.4-6.9c1.1-0.2,0.9-0.7,0.2-1.2c-1.4-1.2-3.2-1.6-4.9-1.7 C176.7,119,172.1,119.6,167.6,121.1z M220.6,125.1c0,0.4,0,0.7,0,1.1c-0.5,0.1-0.8,0.3-0.6,0.9c0.5,1.9,0.4,3.7-0.7,5.5 c4,0.2,7.9,0.4,11.4,2.1c0.2,0.1,0.5,0.2,0.7,0.1c2.1-0.8,3.6,0.4,5.2,1.6c0.7,0.6,1.5,1,2.3,1.4c0.4,0.2,1,0.7,1.4,0.1 c0.4-0.5,0.1-1.1-0.2-1.5c-1.1-1.5-1.8-3.4-3.2-4.7c-0.7-2-1.9-4.1-1.3-6.3c0.6-2.3-0.2-4.4,0-6.7c0.1-0.7-0.5-1.6-1.6-1.9 c-2-0.5-3.9-0.7-5.9-0.9c-3-0.2-5.6,0.7-7.5,3.2c-0.5,0.6-1,1.4-0.4,2c1.1,1.2,0.7,2.4,0.3,3.6 C220.3,124.8,220.4,124.9,220.6,125.1z M174.4,85.2c2.1,3.3,4.1,6.6,6.3,9.8c2.7,3.8,4.9,7.8,5.1,12.6c0.1,2.6,0.1,5.2,0.1,7.9 c0,0.5,0,1.1-0.6,1.2c-0.6,0.1-0.3-0.6-0.6-0.9c-2.3-3.1-2.4-6.8-3.1-10.3c-0.5-2.8-2.1-5.1-3.4-7.3c-1.3-2.1-2.9-4.1-4.3-6.2 c-1.7-2.5-3.2-5.1-5.1-7.5c-0.6-0.8-1.2-2.6-2.2-2.1c-0.9,0.4-0.2,2,0.1,3.1c1.7,5.1,2.1,10.4,1.8,15.7c-0.2,4.6-0.5,9.1-0.7,13.7 c-0.1,1.2,0,2.4-1.5,2.9c-0.4,0.1-0.7,0.6-0.5,1c0.3,0.5,0.7,0.1,1.1,0c2.4-0.3,4.7-1,7.1-0.7c1.5,0.2,2.9,0.2,4.4,0 c1.7-0.3,3.5-1,5.1-0.3c2.7,1.2,5-0.1,7.2-1.2c2.6-1.3,5-2.9,7.8-3.7c2.5-0.7,3.8-2.7,4.9-4.8c1.1-2.2,1.8-4.5,2.8-6.8 c3.4-7.7,2.3-14.9-2.6-21.6c-0.8-1-0.8-1-2.2-0.7c-0.2,0-0.4,0-0.5-0.1c-2.8-1.3-5.8-1.8-8.8-2.1c-4.9-0.5-9.4,0.4-13.4,3.4 c2.7,1.5,5.6,2,8.2,3.4c3.3,1.9,6.4,4.2,9.4,6.5c1.5,1.1,2.5,2.7,3.2,4.4c0.4,1,0.7,2,0.2,3.1c-0.3,0.7-0.7,1.1-1.3,0.6 c-0.7-0.5-1.5-1-2-1.7c-1.1-1.6-2.3-3.1-3.9-4.3c-0.9-0.6-1.9-1.1-2.8-1.7c-3.2-2-6.2-4.5-10.3-4.3c-1.3,0.1-2.5-0.1-3.6-0.8 C175.5,85.1,175,85,174.4,85.2z M157.1,79.3c-0.8,0.7-1.4,0.8-2,0.9c-2.4,0.4-5,0.6-7,1.9c-5.4,3.4-9.8,7.9-13.2,13.3 c-0.5,0.8-0.6,1.8-1.1,2.6c-1.8,3-2.7,6.3-3.6,9.6c-0.9,3.1,0.9,5.6,2.2,8.2c1.2,2.3,3.5,3.7,4.8,5.9c0.5,0.8,1.6,1.9,3.1,1.4 c1.5-0.5,3.1-1.1,4.6-1.5c0.6-0.2,0.8-0.4,0.7-1.1c-0.4-2-0.6-4.1-0.5-6.2c0.3-6,1.5-11.9,2.8-17.7c1.2-5.4,3.5-10,7.2-14.1 C155.7,81.7,156.7,80.9,157.1,79.3z M138.2,64.5c0.2,1.1,0.5,2.4,0.6,3.6c0.1,1.1,0.4,1.4,1.4,0.7c1.3-0.9,2.7-1.5,4.3-1.8 c0.8-0.1,1.4-0.6,1.9-1.3c1-1.6,2.4-3,3.7-4.3c0.7-0.7,2.4-0.7,2-2c-0.3-0.9-1.4-1.5-2.2-2.3c-0.4-0.3-0.8-0.5-1.2-0.8 c-2-1.8-4-3.7-4.3-6.5c-0.2-1.8-0.5-3.4-1.7-4.7c-0.3-0.3-0.5-1.2-1-0.7c-0.7,0.8-2.5,0.1-2.4,1.7c0.1,4-2.2,7.8-0.8,11.9 c0,0.1,0,0.1,0,0.2C137.4,60.2,138.7,62.3,138.2,64.5z M196.7,71.1c-1.8-0.9-2.8-2.6-3.8-4.2c-1.2-2-2.8-3.8-4.5-5.3 c-0.5-0.4-1-0.3-1.5,0c-1.1,0.8-2.5,1.1-3.4,2.2c-1.8,2.1-4,3.9-5.5,6.3c-0.9,1.4-2,2.8-3.8,3.3c-1.2,0.3-1.4,0.9-1.5,2.5 C180,70.4,188.1,69.7,196.7,71.1z M170.7,72.6c0.4-1.7,2.4-1.8,3.3-3.2c2.2-3.4,4.8-6.5,8.7-8.2c0.7-0.3,2.1-0.4,2-1.1 c-0.2-1.2-1.5-0.4-2.3-0.5c-0.2,0-0.4-0.1-0.5-0.1c-2.2-0.9-4.4-1-6.8-0.8c-1,0.1-1.2,0.4-1.4,1.1c-0.5,2.6-1.3,5.1-2,7.6 C171.1,68.9,170.5,70.7,170.7,72.6z M157.9,137c-0.4,0-0.9,0-1.3-0.1c0,0.2-0.1,0.4,0,0.5C157.1,137.8,157.5,137.3,157.9,137z M157,74.5c-0.1,0-0.2-0.1-0.3-0.1c-0.1,0-0.1,0.2-0.1,0.3c0.1,0,0.2,0.1,0.3,0.1C156.9,74.7,156.9,74.6,157,74.5z M155.3,137 c0-0.1,0-0.1,0-0.2c0,0-0.1,0-0.1,0c0,0.1,0,0.1,0,0.2C155.1,137,155.2,137,155.3,137z M171.7,76.3c0,0,0-0.1,0-0.1 c0,0-0.1,0-0.1,0c0,0.1,0,0.1,0,0.2C171.6,76.3,171.7,76.3,171.7,76.3z M201.4,77.6c0,0,0-0.1,0-0.1c-0.1,0-0.1,0-0.2,0 c0,0,0,0.1,0.1,0.1C201.3,77.7,201.3,77.6,201.4,77.6z" fill="#ECAD6F"/></g><g><path d="M66.8,50.6c0.5-0.2,0.9-0.3,1.4-0.5c0.6,2.9,2.5,4.7,4.9,6.2c0.8,0.4,1.5,1.4,1.3,2.5 c-0.4,3.4,0.8,6,3.5,8c0.3-1.4,0.8-2.7,0.5-4c-1-4.6-0.3-9.1,0.4-13.6c0.1-0.7,0.5-1.3,1.2-1.3c0.7,0,1.2,0.6,1.4,1.2 c0.1,0.4,0.1,0.8,0.2,1.2c0,0.2,0,0.5,0,0.7c0,0.1,0,0.3,0,0.4c0,0.7,0,1.4,0,2.1c-0.6,0.5-0.3,1.2-0.4,1.8c0,0.2,0,0.5,0,0.7 c-1.8,3.6,0.2,7.2,0.2,10.8c1-1.7,2.5-3.1,3.1-5.1c0.3-1.3,1-2.2,2.5-2.1c1,0,1.7-0.5,2.4-1.1c2.4-2,5.1-3.5,8.3-4.3 c3.7-0.9,7.3-0.1,10.8,1c0.8,0.2,1.7,0.7,1.6,1.8c-1.7,0.5-3.4-0.1-4.9-0.4c-2.5-0.6-5-0.6-7.2,0.2c-4.2,1.6-8.6,3.2-10.7,7.7 c-0.3,0.5-0.6,1-1.1,1.4c-0.5,0.3-1,0.7-0.7,1.3c0.3,0.5,1,0.3,1.5,0.2c2.6-0.5,5.3-0.8,8-0.6c0.7,0.7,1.7,0.9,2.6,1.3 c2.8,1.3,6.2,1.6,8.4,4.2c1.1,1.3,2.5,2.5,3.7,3.7c1.8,1.8,3.7,3.4,5.2,5.4c2.3,2.8,2.4,6.4,2.9,9.8c0.3,2.2,0.6,4.4,0.9,6.6 c0,0.5,0.1,1.2-0.2,1.6c-0.3,0.5,0.2,1.6-0.8,1.4c-0.8-0.1-1.4-0.6-1.5-1.6c-0.4-3.4-1.4-6.6-2.3-9.9c-0.8-3.2-1.7-6.4-4.6-8.5 c-2-1.4-3.4-3.4-5.1-5.1c-0.9-0.9-1.2-2.2-2.3-2.9c-2.1-1.3-4.4-2-6.9-1.8c-2.9,0.2-5.8,0.5-8.6,1.5c-0.5,0.1-1.1-0.2-1.7,0.3 c0.8,0.4,1.4,0.8,2.1,1.1l0,0c0.3,0.6,0.6,1.3,1,1.8c3.3,3.9,4,8.7,3.5,13.5c-0.3,2.8-0.3,5.4,0.9,8c0.4,1,0.4,2-1.1,1.9 c-0.5-0.7-1-1.4-1.5-2.2c-0.8-2.4-1.2-4.7-0.8-7.3c0.3-1.9,0.5-4-0.3-6c0.1-1,0-2.1-0.8-2.7c-2-1.5-3.5-3.3-4.6-5.5 c-0.3-0.6-0.7-1.7-1.6-1.3c-0.9,0.4-1.7,1.1-1.6,2.3c-0.9,0.7-0.9,1.9-1.4,2.8c-1.8,4-4.3,7.5-6.6,11.2c-2,3.2-4.2,6.2-6.7,9 c-1.1-0.3-0.7-1-0.4-1.6c0.5-0.7,0.9-1.5,1.1-2.4c2.6-2.6,4.2-5.8,5.8-9c1.9-2.4,3.6-5,5.1-7.6c1.6-2.6,1.3-5.1,0.4-7.8 c-0.3-0.8-0.7-1.2-1.5-1.1c-1.7-1.8-3.9-1.2-4.9,1.2c-0.4,1.1-0.7,2.2-1.8,2.7c-2.9,1.3-5.9,2.2-8.9,2.9c-2.1,0.5-4.4,0.7-6.3,1.9 c-0.4,0.2-0.8,0.3-1.1-0.2c0-0.5,0.2-0.8,0.6-1c3.5-1.9,7.2-3.2,11-3.9c1.7-0.3,2.5-0.9,3.1-2.3c0.4-1,1-1.9,1.4-2.9 c0.2-0.2,0.3-0.6,0.1-0.6c-1.7,0-3.4-0.6-5.1-0.2c-0.2,0-0.5,0-0.7,0c-0.2-0.6-0.5-1.3,0.3-1.8c2.6,0.9,5.3,0.6,8,0.5 c-3.4-1.8-7-3.2-10-5.7c-1.6-1.4-3-2.9-2.7-5.3c1.6,0.4,2.7,1.3,3.5,2.7c2,3.3,5.3,4.9,8.9,6.1c-1-1.2-1-2.7-0.8-4 c0.3-1.7-0.4-2.9-1.4-4.1C67.4,54.6,66.8,52.7,66.8,50.6z" fill="#ECAD6F"/></g><g><path d="M196.8,147.7c0.4-0.1,1.1,0.2,1.2-0.4c0.1-0.5-0.4-0.9-0.8-1c-1.9-0.8-3.9-1.5-5.8-2.3 c-0.7-0.3-1.4-0.4-1.8-1.1c-1.8-2.9-4.7-2.6-7.5-2.5c-1.1,0.1-2.2,0.3-3.4,0.3c-1.1,0.1-1.3-0.5-0.6-1.3c1-1.1,1.5-2.6,3.2-3 c2.2,0.2,4.3-0.6,6.5,0c0.1,0,0.3,0,0.4,0c1.5,0.7,3,1.4,4.4,2.2c1.9,1.2,4.2,1.9,5.7,3.5c1.9,2,3.6,4.1,5.4,6.1 c0.7,0.7,1.6,1.6,2.8,1.3c2.6-0.7,4.1,0.9,5.5,2.7c0.1,1.9,0.3,3.9,0.4,5.8c0.3,4.3-2.4,7.5-4.1,11.1c-0.7,1.5-2.3,2.7-2,4.6 c-2.1,4-5.6,6.4-9.5,8.4c-4,2.1-8.5,2.7-12.8,3.9c-1.6,0.4-3.3,0.7-4.9,1.2c-1.9,0.5-3.7,0.3-5.5-0.3c-1.2-0.4-2.5-0.5-3.7-0.4 c-3.9,0.5-7.8,0.3-11.6,0.2c-0.2-1.3-1.5-1.6-2.3-2.2c-0.8-0.6-1.8-0.9-2.3-1.7c1.2-0.5,2.4-0.1,3.6,0.2c4,1,8,0.5,11.9,0.3 c2.1-0.1,4.3-0.4,6.4-0.4c3.3,0,5.5-1.9,8.2-3c0.4-0.2,0.5-0.5,0.5-0.9c0-1.6,0.6-3,0.7-4.6c1.7,0,1.9-1.4,2.1-2.6 c0.7-3.4-0.6-6.6-1.7-9.8c-0.2-0.4-0.3-0.9-0.5-1.3c2.3,1.3,3.4,3.4,3.6,6c0,0.7-0.1,1.3,0.2,1.9c1.8,3.1,1.8,6.4,1,9.8 c0.3,0,0.4,0,0.6-0.1c2.9-0.3,4.6-2.6,6.6-4.3c1.4-1.2,2.9-2.3,3.9-4c1.2-2.2,2.2-4.6,3.4-6.7c1.3-2.2,2.4-4.5,4.2-6.4 c0.5-0.6,1.1-1.9,0.4-2.9c-0.8-1.1-1.8-0.2-2.7,0c-0.5,0.1-1.1,0.3-1.6,0.1C201.2,153,198.3,151.2,196.8,147.7z" fill="#EFBB81"/></g><g><path d="M65.8,95.5c-0.1,0.9-0.6,1.6-1.1,2.4c-0.4,0.6-0.8,1.3,0.4,1.6c-0.1,1.4-0.2,2.8-0.2,4.3 c1.2-0.2,1.5-1.3,2.4-1.7c1.2,2.3,0.9,5.1,2.3,7.3c1.1,1.7,1.3,4.2,4,4.6c-0.1,0.1-0.2,0.3-0.3,0.4c-1.9-0.7-3.9-1.3-5.7-2.3 c-2.6-1.5-5.6-2.2-8.4-3.3c-1-0.4-2.3,0-3.5,0.1c-2.8-1.1-5.2-2.7-7.1-5.2c-2-2.6-2.6-5.4-2.5-8.5c1.5-0.5,2.2-1.9,3-3 c2.2-3.1,5.2-5.1,8.7-6.8c3.6-1.8,7.4-3.6,10.2-6.5c1.9-1.9,3.3-4.2,4.9-6.3c0.5,0,0.7-0.3,0.7-0.8c0.1-1.1,0.7-1.7,1.8-1.7 c0.8-0.1,1.2,0.3,1.5,1.1c0.9,2.7,1.2,5.2-0.4,7.8c-1.6,2.6-3.2,5.2-5.1,7.6c-2.1,0.9-3.3,2.8-4.5,4.6 C66.3,92.4,65.4,93.8,65.8,95.5z" fill="#F8CB90"/></g><g><path d="M242.6,52.2c-0.7,0.5-1.5,0.7-2.3,0.9c-0.5-2.2-0.1-4.6-1.3-6.7c-0.8-1.4-1-3.1-1.2-4.7 c-0.3-2.5-0.7-5.3-3.6-6c-1.8-0.5-3.6-1.1-5.6-0.9c-1.4,0.1-2.5,0-1.4,1.9c0.4,0.7,0.1,1.6,0.2,2.5c-0.5,0-0.7,0.2-0.7,0.7 c-1.2,1.3-2.8,2.2-4.2,3.3c-3.7,2.8-8,4.5-11.8,7.2c-3.8,2.6-5.7,5.9-5.6,10.4c-0.1,0.9,0.3,1.8,0.7,2.6c1.5,2.9,2.5,6,4.5,8.7 c0.2,0.3,0.8,0.9,0.2,1.2c-0.5,0.3-0.8-0.2-1.1-0.6c-2.5-2.9-3.9-6.5-5.5-9.9c-0.3-0.5-0.4-1.1-0.4-1.7c0.1-3.8,1.5-7,3.8-10 c4.1-5,10.1-7.6,14.6-12.2c1.5-1.5,1.9-1.9,0.9-4.2c-0.7,0.1-0.7,0.9-1.2,1.2c-1.7,0.9-3.5,1.1-5.4,1.2c-1.8,0.2-3.3-0.6-5-0.5 c-3.3,0.2-6.6,0-9.8,0.1c-3,0-6-0.3-8.7,1.1c-2,1-4.3,1.4-5.9,3.2c-1,0.1-1.5,1.2-2.5,1.1c0.2-1.1,1-1.8,1.8-2.3 c1.8-1.1,3.6-2.1,5.4-3.1c1.2-0.2,2.2-0.9,3.4-1.1c3.7-0.5,7.4-0.7,11.1-0.7c3.3,0,6.5-0.6,9.7-1.4c1-0.2,0.7-0.5,0-0.7 c-0.8-2.2-3-1.6-4.5-1.9c-3-0.8-6.3-0.7-8.9-2.8c-3.7-2.8-7.5-2.8-11.5-0.7c-1.3,0.7-2.6,1.3-3.8,1.9c-0.3,0.2-0.7,0.4-1,0 c-0.3-0.3,0-0.7,0.2-1c0.4-0.5,0.9-0.9,1.4-1.3c1.7-0.7,3.3-1.6,5.1-2.1c3.7-1.2,7.4-1.4,10.6,1.3c0.5,0.4,1.2,1,1.9,0.8 c2.4-0.6,4.9-0.2,7.3-0.1c-0.2-0.7-0.4-1.2-0.5-1.7c0.3-0.7,0.2-1.6,0.4-2.3c0.5-1.7,0.6-3.3-1-4.7c-0.8-0.7-1.4-1.7-1.6-2.9 c-0.1-1.1-0.8-1.7-1.8-1.9c-1.7-0.3-3.2-1.5-5-0.9c-0.3,0.1-0.4-0.4-0.5-0.7c0.7-0.7,1.5-1.1,2.5-1.1c0.5,0.3,1.1,0.5,1.7,0.5 c1.9-0.1,3.6,0.9,4.2,2.4c1,2.4,3.5,3.3,4.7,5.5c0.2,0.4,0.5,0.7,0.7,1.1c0.5,1.1,0,2.4,0.8,3.5c1.3-2.7,3.7-4.3,5.3-6.6 c0.7-1,1.6-1.9,2.6-2.7c1.8-1.4,4-1.9,6.1-2.8c1.1-0.2,2.2,0.3,3.2-0.3c0.5,0,0.9,0,1.4,0.1c0.7,1.2,0.1,1.7-1.1,1.9 c-0.5,0.1-0.9,0.2-1.4,0.2c-2.8,0.2-5.4,1-7.4,2.9c-3.2,3-6.9,5.9-5.6,11.2c0.3,1.4,1.4,3.2,2.3,2.9c2-0.7,4.1-0.9,5.3-3.2 c0.4-0.8,1.2-1.7,2-2.4c2.2-1.9,4.8-2,7.4-2c2.6-0.5,5.3-0.1,7.9,0.1c1.2,0.1,2.7,0,3,1.8c-2.8,0-5.7-0.1-8.5,0 c-3.8,0.1-6.8,1.6-8.4,5.4c-2.2,1-4.4,2.2-7,2.3c0.7,1,1.3,1.8,2.5,1.7c2.4-0.3,4.8,0.2,7.1,0.4c1.9,0.2,4.4,0.4,5.1,2.3 c0.6,1.8,1.8,3.6,1.4,5.6c-0.1,0.6,0.1,1.2,0.4,1.7C241.8,46.4,242.5,49.2,242.6,52.2z" fill="#ECAD6F"/></g><g><path d="M205.1,60.6c-0.1-4.5,1.8-7.8,5.6-10.4c3.8-2.6,8.2-4.3,11.8-7.2c1.4-1.1,3-2,4.2-3.3c3,2.3,3.6,5.5,3.6,9 c-0.5,0.4-0.4,0.9-0.2,1.5c0.6,1.9,0.4,3.8-0.3,5.7c-0.3,0.9-0.6,1.8-0.9,2.7c-4.1,2.8-8.3,5.5-11.7,9.2c-1.2,1.3-2.2,2.8-3.4,4.1 c-0.6,0-1-0.3-1.1-0.9c-0.4-1.5-1.4-2.6-2.2-3.8c-1-1.5-2.6-2.6-3.2-4.5C206.9,61.9,206.6,60.4,205.1,60.6z" fill="#F8CB90"/></g><g><path d="M81.6,50.9c0-0.2,0-0.5,0-0.7c0.6-0.1,0.6-0.6,0.7-1c0.5-1.4-0.4-3,0.7-4.4c0.7,0,1.4,0.5,2.1,0.3 c0.3,0.6,0.9,1.2,1.5,0.9c0.6-0.3,0.3-1.1,0.1-1.6c-0.6-1.4,0.7-2,1.4-2.2c2.3-0.6,3.8-2.2,5.4-3.8c1.1-1.1,1.4-2.8,3-3.3l0,0 c0.1,0.1,0.2,0.2,0.4,0.3c3.3-1.3,6.2-3.3,9.6-4c2.5-0.6,5.1-0.9,7.7-0.1c0.4,0.1,0.9,0.2,1.4,0.2c2.5,0,4.7,0.8,7,2 c1.8,1,3.8,1.6,5.2,3.2c0.9,0.9,0.8,1.9-0.4,2.2c-2.3,0.6-4.8,1-6.9,0.2c-3.5-1.3-7.1-0.6-10.6-0.6c-2.4,0-4.7,1.1-7,1.8 c-1.2,0.4-2.2,0.9-2.4,2.4c-0.9,1-2,1.9-2.7,3c-0.8,1.1-1.4,2.4-2.1,3.6c1,0.6,2.2,0.1,3.2,0.6c0.1,0.1,0.3,0,0.5,0c0,0,0,0,0,0 c-0.2,1.1-1.4,0.9-2,1.1c-2,0.5-4,1.8-6.2,1.3c-4.4-0.8-7.3,0.5-9.2,4.3c-0.1,0.2-0.2,0.3-0.4,0.7c-0.2-0.6-0.1-1.1-0.5-1.3 c0-0.2,0-0.5,0-0.7c1-0.4,0.6-1.1,0.4-1.8c0-0.7,0-1.4,0-2.1c0.2-0.1,0.3-0.1,0.5-0.2C81.9,51,81.8,50.9,81.6,50.9z" fill="#F3C891"/></g><g><path d="M231,29.6c1.6-3.7,4.6-5.2,8.4-5.4c2.8-0.1,5.7,0,8.5,0c1.2,1.1,2.6,1.9,4.3,2.1c1,5.5,4.2,10.3,5.3,15.7 c0.3,1.5,0.5,3.1,0.8,4.6c0.2,0.9-0.2,1.6-1.1,2c-3.2,1.2-6.5,2.1-9.9,2.3c-0.4-0.8-0.6-1.7-0.8-2.5c-0.7-2.7-1.4-5.4-2.6-8 c-1-2.1-2.9-3.5-3.8-5.6c-0.3-0.7-0.9-1-1.4-1.5C236.3,31.6,233.7,30.7,231,29.6z" fill="#F8CB90"/></g><g><path d="M238.2,183.9c0-0.1-0.1-0.3-0.1-0.3c-3.8-0.4-4.3-4.2-6.3-6.3c-2.3-2.4-2.9-5.8-4.9-8.4 c-0.4-0.6-1-1-1.4-1.6c-1.5-2.1-2-4.2-1.2-6.7c0.8-2.5,1.3-5,2-7.6c0.6-2.2,2.2-3.3,4.1-4c1.5-0.6,3.2-0.7,4.9-1.1 c0.5-0.1,0.8,0,1.2,0.2c0.5,0.4,0,0.7-0.2,1.1c-2.6,6.1-1.9,11.8,1.7,17.4c1.8,2.8,4,5.5,4.7,8.9c0.4,2,0.4,4,0.9,6 c0.2,0.7,0.3,1.5,0.4,2.3C242,184.1,240.1,184.3,238.2,183.9z" fill="#F3C891"/></g><g><path d="M251.9,135.8c-0.1,0.1-0.2,0.2-0.4,0.4c-0.8,0-1.3,1-2.2,0.7c-0.1-3.8,0.1-7.6,0.5-11.4 c0.1-0.5,0.1-0.9,0.6-1.2c3-2,4.5-5,5.7-8.3c0.8,0.1,1.1-0.4,1.4-1c0.5-1,1-1.9,1.4-2.9c1.2,0,2.4,0,3.6,0 c0.2,0.1,0.4,0.3,0.6,0.3c3.6,1,6.9,2.6,10.1,4.5c4.1,2.4,5.4,6.8,6.9,11c0.1,0.2,0,0.5-0.2,0.6c-0.3,0.2-0.5,0-0.8-0.1 c-0.9-0.5-1.8-1.1-2.8-1.5c-4-1.7-8.1-1-12.2-0.5c-3.6,0.5-6.8,1.8-9,4.9c-0.8,1.1-1.5,2.4-2.3,3.6c0,0,0,0,0,0 C252.3,134.8,251.9,135.2,251.9,135.8z" fill="#F3C891"/></g><g><path d="M205.1,60.6c1.5-0.2,1.8,1.3,2,1.9c0.7,1.9,2.2,2.9,3.2,4.5c0.8,1.2,1.8,2.4,2.2,3.8 c0.2,0.6,0.5,0.9,1.1,0.9c-1.7,4.3-1.8,4.3-5.9,2.8c-2-0.8-3.9-1.6-6.1-2.1c-1.6-1.4-3.3-2.7-4.3-4.7c0.9,0,1.3,0.8,1.8,1.3 c0.7,0.8,1.5,1.3,2.6,1.3c0.3,0,0.7,0.3,0.9-0.2c0.1-0.4-0.3-0.4-0.5-0.6c-0.6-0.7-1.2-1.4-1.7-2.2c-0.8-1.2-1.1-2.7-2-3.9 c-0.6-0.7-0.1-2.2-1.7-2c-0.1-1.7-0.8-3.5-0.3-5.1c1.5-5.1,4.7-9,8.9-12c3.8-2.8,8.1-4.6,12.8-5.5c1.6-0.3,3.2-1.1,3.4-3.2 c0.5-0.3,0.6-1.1,1.2-1.2c0.9,2.3,0.5,2.7-0.9,4.2c-4.5,4.6-10.5,7.1-14.6,12.2c-2.4,2.9-3.8,6.2-3.8,10c0,0.6,0.1,1.2,0.4,1.7 c1.6,3.4,3,7,5.5,9.9c0.3,0.4,0.6,0.9,1.1,0.6c0.6-0.4,0-0.9-0.2-1.2c-2-2.7-3-5.8-4.5-8.7C205.4,62.4,205.1,61.5,205.1,60.6z" fill="#EFBB81"/></g><g><path d="M211.9,25c0.2,0.5,0.3,1,0.5,1.7c-2.5-0.1-4.9-0.5-7.3,0.1c-0.7,0.2-1.4-0.4-1.9-0.8 c-3.3-2.6-6.9-2.5-10.6-1.3c-1.7,0.6-3.4,1.4-5.1,2.1c-2.9,0.6-5.1,2.4-7.3,4.3c-1.5,1.3-2.2,2.9-2.2,4.8c0.1,2.2,0,4.5,0.4,6.7 c0.4,2.3,1,4.8,3.3,6.6c-0.3-1.8,0.5-3,1.3-4.1c0.7-1,1.2-2,1.2-3.2c1,0.1,1.6-1,2.5-1.1c-1,2.5-2.6,4.6-3.9,7 c-0.7,1.2-1.2,2.2,0.5,3.3c1.6,1,2.7,2.6,4.4,3.7c1.7,1.2,2.9,3.4,3.8,5.5c-1,0.2-1.4-0.7-2.1-1c-1.7-1-3.6-1.7-5.5-2.2 c-0.2-0.9-0.5-1.7-1.6-1.9c-0.9-1.2-2.6-1.4-3.4-3c-1.4-3-3.1-5.8-4.7-8.7c-0.1-0.1-0.2-0.2-0.4-0.4c0-0.1,0-0.2,0-0.3 c-0.1-3.5-0.1-7.1,1.4-10.4c2-3.5,4.9-6.1,8.4-8.1c2.3-1.3,3.9-3.6,6.3-4.6c0.3,0,0.6,0,0.9,0c4.6-0.5,9.1-0.4,13.3,1.8 C206.6,22.7,209.2,23.9,211.9,25z" fill="#EFBB81"/></g><g><path d="M237.1,22.4c-2.6,0.1-5.2,0.2-7.4,2c-0.8,0.7-1.6,1.6-2,2.4c-1.1,2.3-3.3,2.6-5.3,3.2 c-0.9,0.3-1.9-1.5-2.3-2.9c-1.2-5.3,2.4-8.3,5.6-11.2c2-1.8,4.6-2.7,7.4-2.9c0.5,0,0.9-0.1,1.4-0.2c1.2-0.2,1.8-0.6,1.1-1.9 c1.5-0.2,3,0.4,4.3,1c3.9,1.8,8.1,3.2,10.5,7.1c0.6,0.9,1,1.9,1,3c-3.5-0.9-7-1.8-10.6-1.1C239.6,21.3,238.1,21.3,237.1,22.4z" fill="#F8CB90"/></g><g><path d="M253,134.8c0.8-1.2,1.5-2.4,2.3-3.6c2.2-3.1,5.5-4.5,9-4.9c4.1-0.5,8.2-1.2,12.2,0.5c1,0.4,1.9,1,2.8,1.5 c0.3,0.2,0.5,0.4,0.8,0.1c0.1-0.1,0.2-0.5,0.2-0.6c-1.4-4.2-2.8-8.5-6.9-11c-3.2-1.9-6.5-3.5-10.1-4.5c-0.2-0.1-0.4-0.2-0.6-0.3 c8.9,0.4,14.5,5.4,18.1,13.1c1.1,2.4,2.4,4.8,3,7.5c0.2,0.9,1.1,1.4,1.7,2c5.3,4.4,7,10.7,5,17.3c-1.7,5.8-4.8,10.6-9.5,14.5 c-0.2,0.2-0.5,0.3-0.8,0.4c0-1.4,0.5-2.6,1.6-3.6c1.7-1.6,2.3-3.9,3.2-5.9c1.6-3.5,3.2-6.9,4.1-10.6c0.6-2.2-0.1-4.4-0.7-6.4 c-0.4-1.5-1.3-1.4-2.9-0.1c-2.5-1.5-5.1-3.1-7.6-4.6c-1.8-1.1-3.9-1.6-5.9-2.3c-2-0.7-4,0.1-5.9-0.6c1-0.8,2.2-0.8,3.3-1.3 c0.5-0.3,1.4-0.3,1.3-1.2c-0.1-0.8-0.6-1.3-1.5-1.6c-2.2-0.7-4.1,0.1-6,0.9c-1.4,0.7-2.9,1.4-4.3,2c-1.5,0.6-3,1-4,2.4 C254.6,134.4,253.8,134.9,253,134.8z M281.1,129.3c0,0,0.1-0.1,0.1-0.1c0,0-0.1-0.1-0.1-0.1c0,0-0.1,0.1-0.1,0.1 C281,129.3,281,129.3,281.1,129.3z" fill="#E2B37C"/></g><g><path d="M57.5,163.2c-0.4-1.9-1.8-3.5-2.1-5.4c1.6,0.3,2.9,1.5,4.5,1.9c2.3,0.6,4.5,1.5,6.5,2.6c2,1.1,4,2,6.3,2.6 c5.3,1.3,10.5,0,15.8,0.1c0.8,0,1.2-0.6,1.4-1.4c0.3-0.8,0-1.1-0.6-1.4c-1.3-0.7-2-2-2.4-3.3c-0.7-2.4-3-3.3-4.8-4.3 c-2.1-1.2-4.7-1.6-7.1-2.3c-3.8-1.1-5.7-3.8-7.1-6.9c-1.8-4,0.6-7.7,3-10c1.3-1.1,2.7-2.1,4-3.2c0.4,0,0.8-0.1,1.5-0.1 c-1.3,1.1-2.4,2.1-3.6,3.1c-0.4,0.3-0.7,0.6-0.9,1.1c-0.9,2-0.8,2.3,1.5,2.4c0,0.8-0.6,1.1-1,1.6c-1.6,2.1-0.4,6,2,6.8 c3.7,1.1,7.4,2.2,11.2,2.7c0.2,0.1,0.5,0.2,0.6,0.4c1.6,2.4,3.4,4.8,4.5,7.5c0.1,0.3,0.2,0.7,0.2,1c-0.2,2.7,0.3,5.4,0.4,8.2 c-2.9,0.3-5.8,0.2-8.8,0c-0.8,0-1.5-0.1-2.3,0c-7.3,0.6-14.4-0.5-21.3-2.7C58.7,164,58,163.8,57.5,163.2z" fill="#E2B37C"/></g><g><path d="M125.5,29.6c-1.7,0.2-3-1.3-4.7-1.1c-0.4-0.5-0.9-0.6-1.4-0.8c-4.9-1.5-9.9-1.8-15-1.2 c-3.7,0.4-7.3,1-10.2,3.7c-0.5,0.4-1.1,0.9-1.9,0.8c0.9-2.7,2-5.4,3.7-7.8c0.5-0.7,1.1-1.5,2-1.6c0,1-1,1.3-1.2,2.1 c-0.1,0.7-1.4,1.3-0.3,1.9c0.6,0.3,0.8-0.8,1.2-1.2c0.3-0.3,0.6-0.6,0.8-1c0.6-1.3,2.2-1.9,2.4-3.4c3.4-2,6.3-4.9,10.2-6.1 c1.5-0.5,2.8-1.6,4.2-2.4c1.5,4.1,2.8,8.4,5.1,12.1c1.2,1.9,3.1,3.5,4.7,5.3C125.4,29.2,125.4,29.4,125.5,29.6L125.5,29.6z" fill="#F3C891"/></g><g><path d="M138.8,27.8c0.1,1.2-0.1,2.2-1,3.1c-0.7,0.7-1.3,1.6-1.2,2.7c0,1.5-1.1,1.7-2.2,2.1 c-0.7,0.2-0.6-0.3-0.8-0.6c-2.4-5.1-6.1-9.2-9.8-13.2c-1-1.1-1.7-2.4-2.4-3.7c-1.3-2.5-2.6-5.1-3.9-7.6c3.6-1.7,7.8-1,10.6,1.8 c1.9,1.9,4.1,3.2,7,2.6c0,0.5-0.2,0.9-0.2,1.4c-0.1,2.8-0.2,5.5-0.4,8.3c-0.2,2.5-1.1,4.9-0.8,7.4c0.1,0.5-0.4,1.4,0.4,1.5 c0.6,0.1,0.9-0.6,1.3-1.1C136.5,31,137.1,29,138.8,27.8z" fill="#E2B37C"/></g><g><path d="M62.9,67.8c0.2,0,0.5,0,0.7,0c1.6,0.8,3.3,0.6,5.1,0.7c-0.5,1-1,1.9-1.4,2.9c-0.6,1.4-1.4,2-3.1,2.3 c-3.8,0.7-7.6,2-11,3.9c-0.4,0.2-0.6,0.6-0.6,1c-0.7-0.1-0.8,0.8-1.4,0.9c-3,0.8-5.4,2.5-7.3,4.9c-0.7-1.6-0.2-3.2,0.5-4.5 c2.2-3.9,2.4-8.1,2.1-12.3c0-0.4,0.1-0.8,0.1-1.2c0.6-0.1,1.3-0.3,1.9-0.3C53.2,66.1,58.2,66.2,62.9,67.8z" fill="#F8CB90"/></g><g><path d="M175.2,32.2c-1.6,3.3-1.5,6.9-1.4,10.4c-1-0.4-1.8-1.1-2.6-1.7c-2-1.6-4.1-3.1-6.5-3.9 c-3.3-1-6.8-1-10.3-0.5c-2.4,0.4-4.7,0.9-7.2,0.7c-0.3-1.6,0.3-2.7,1.8-3.2c2.7-0.1,5.3-1.1,7.8-2.1c2.4-0.9,4.5-2.9,7.2-3.2 c0.2,0,0.3-0.3,0.5-0.5c0.4,0.1,0.7,0.2,1.1,0.4c0.1,0,0.2,0,0.4,0c1.1,0.5,2.3,0.9,3.2-0.3C171.8,28.6,173.6,30.3,175.2,32.2z" fill="#F3C891"/></g><g><path d="M271.7,155.7c1.2-0.1,1.9,0.9,2.6,1.5c1.3,1.2,2.4,2.6,3.3,4.1c0.7,1.1,0.5,2-0.1,3 c-1.4,2.1-2.7,4.3-4.1,6.4c-0.7,1.1-1,2.1-0.7,3.4c-7.7,4.7-15.6,9-24.9,9.4c-0.1-0.8-0.7-1.6,0-2.3c0.3-0.1,0.8,0,1-0.2 c3.6-2.5,7.5-3.9,11.8-4.7c1.3-0.2,2.6,0.1,3.8-0.8c1.9-1.4,3.1-3.1,3.8-5.2c1-3,1.3-6.2,3.8-8.6c0.9-0.8,0.6-2.2,0.2-3.4 C272.1,157.5,271.2,156.7,271.7,155.7z" fill="#E2B37C"/></g><g><path d="M43.7,84.4c1.9-2.4,4.3-4.1,7.3-4.9c0.6-0.2,0.7-1,1.4-0.9c0.3,0.4,0.7,0.4,1.1,0.2 c1.9-1.2,4.1-1.4,6.3-1.9c3-0.7,6.1-1.6,8.9-2.9c1.1-0.5,1.4-1.6,1.8-2.7c1-2.4,3.3-3,4.9-1.2c-1.1,0.1-1.7,0.7-1.8,1.7 c0,0.5-0.2,0.8-0.7,0.8c-0.4-0.5-0.8-0.4-1.2,0c-2.3,2.4-4.6,4.6-7.1,6.7c-2.2,1.8-4.5,3.4-7.4,4.1c-3.4,0.9-6.5,2.5-8.9,5.3 c-0.9,1-1.6,2.2-2.8,3C44.5,89.3,43.7,87,43.7,84.4z" fill="#EFBB81"/></g><g><path d="M227.4,39c-0.1-0.8,0.2-1.7-0.2-2.5c-1.1-1.9,0.1-1.8,1.4-1.9c2-0.1,3.8,0.5,5.6,0.9 c2.8,0.7,3.3,3.5,3.6,6c0.2,1.7,0.4,3.3,1.2,4.7c1.2,2.1,0.9,4.5,1.3,6.7c-2.4,1-4.6,2.5-7.2,2.9C234.2,49.3,232.7,43.5,227.4,39z" fill="#F8CB90"/></g><g><path d="M92.4,31.1c0.8,0.2,1.5-0.3,1.9-0.8c2.9-2.7,6.4-3.3,10.2-3.7c5.1-0.6,10.1-0.3,15,1.2 c0.5,0.2,1,0.3,1.4,0.8c-2.5,0.9-5,0.5-7.7,0.2c-5.8-0.7-11.5,0-15.5,5.1c-0.1,0.2-0.4,0.3-0.6,0.4c-0.3,0.1-0.4,0.4-0.4,0.7 c-1.6,0.6-1.9,2.3-3,3.3c-1.6,1.6-3.1,3.2-5.4,3.8c-0.8,0.2-2,0.8-1.4,2.2c0.2,0.5,0.5,1.3-0.1,1.6c-0.6,0.3-1.2-0.3-1.5-0.9 c-0.2-3.6,1.1-6.6,3.8-8.9C90.6,34.8,91.4,32.9,92.4,31.1z" fill="#E2B37C"/></g><g><path d="M83,44.8c-1,1.3-0.2,3-0.7,4.4c-0.2,0.4-0.1,0.9-0.7,1c-0.1-0.4-0.1-0.8-0.2-1.2c-0.2-0.6-0.7-1.2-1.4-1.2 c-0.7,0-1,0.6-1.2,1.3c-0.7,4.5-1.4,9-0.4,13.6c0.3,1.3-0.3,2.7-0.5,4c-2.7-2-3.9-4.6-3.5-8c0.1-1.1-0.6-2-1.3-2.5 c-2.5-1.4-4.3-3.3-4.9-6.2c2.4-1.2,4.6-2.7,6.8-4.3C77.5,44.1,80.2,43.9,83,44.8z" fill="#EFBB81"/></g><g><path d="M211.9,25c-2.7-1.1-5.3-2.3-7.9-3.7c-4.1-2.2-8.7-2.3-13.3-1.8c-0.3,0-0.6,0-0.9,0 c1.5-1.3,3.3-2.1,5.2-2.7c2.4-0.8,4.6-1.9,6-4.1c0.3-0.5,0.8-0.9,1.4-1.1c0.1,0.3,0.2,0.8,0.5,0.7c1.8-0.6,3.4,0.6,5,0.9 c1,0.2,1.7,0.8,1.8,1.9c0.1,1.2,0.8,2.3,1.6,2.9c1.6,1.4,1.5,3,1,4.7C212.1,23.4,212.3,24.2,211.9,25z" fill="#F8CB90"/></g><g><path d="M138.8,27.8c-1.7,1.2-2.3,3.1-3.4,4.7c-0.3,0.5-0.6,1.2-1.3,1.1c-0.8-0.2-0.3-1-0.4-1.5 c-0.3-2.5,0.6-5,0.8-7.4c0.2-2.8,0.3-5.5,0.4-8.3c0-0.5,0.3-0.9,0.2-1.4c3-0.7,6.1-0.8,9.2-0.4c1.1,0.1,2.2,0.4,2.8,1.6 c-0.2,0.2-0.3,0.6-0.5,0.7c-3.4,1.3-4.7,4.3-6,7.3c-0.4,0.9-0.7,1.7-1.1,2.6C139.1,27,138.8,27.3,138.8,27.8L138.8,27.8z" fill="#F3C891"/></g><g><path d="M96.8,166.5c0-3.4-0.5-6.8-1.1-10.1c0-0.1,0-0.3-0.1-0.3c-2.1-2-1.8-5.1-3.3-7.3c-1-1.5-0.9-3.2-1.5-4.7 c-0.2-0.6,0.1-1.2,1-0.9c0.4,0.2,1,0.3,1.3,0.6c1.5,1.9,3.6,3.4,4.9,5.6c1.6,2.8,2.5,5.7,3.3,8.7c0.5,2.1,0.5,4.3,1.4,6.3 C100.7,165.4,98.8,166.2,96.8,166.5z" fill="#E2B37C"/></g><g><path d="M231,29.6c2.7,1,5.4,2,7.7,3.8c0.6,0.4,1.1,0.8,1.4,1.5c0.9,2.1,2.8,3.5,3.8,5.6c1.2,2.6,1.9,5.3,2.6,8 c0.2,0.9,0.4,1.7,0.8,2.5c-1.5,0.7-3.1,0.9-4.6,1.2c-0.2-3-0.8-5.8-2.3-8.4c-0.3-0.5-0.5-1.1-0.4-1.7c0.4-2.1-0.8-3.9-1.4-5.6 c-0.6-1.9-3.2-2.2-5.1-2.3c-2.4-0.2-4.7-0.7-7.1-0.4c-1.2,0.1-1.8-0.7-2.5-1.7C226.6,31.8,228.8,30.6,231,29.6z" fill="#EFBB81"/></g><g><path d="M58.6,55.6c-0.3,2.4,1.1,3.9,2.7,5.3c2.9,2.5,6.5,3.9,10,5.7c-2.7,0-5.3,0.3-8-0.5 c-4.9-2.3-10.2-2.7-15.5-2.9c1.8-1.4,2.8-3.3,4-5.1c1.5-2.2,3.9-3.4,6.4-4.3C58.3,54.4,58,55.1,58.6,55.6z" fill="#F8CB90"/></g><g><path d="M259.1,112.1c-0.5,1-1,1.9-1.4,2.9c-0.3,0.6-0.6,1.1-1.4,1c-0.2-1,0.6-2.5-0.8-2.8 c-1.4-0.3-1.9,1.2-2.2,2.1c-1.2,3.1-3.2,5.3-6,7.1c-3.4,2.1-3.1,5.5-2.3,8.8c0.4,1.7,0.3,3.4,0,5.6c-1.6-2.9-3.1-5.4-3.4-8.3 c-0.2-1.6-0.2-3.3-0.4-4.9c1.5-2,3.2-3.7,4.9-5.6c1.1-1.2,2.6-2.3,3-4C252.2,112.4,255.6,112.1,259.1,112.1z" fill="#E2B37C"/></g><g><path d="M52.8,134.8c-0.8,1.8-1.5,3.6-2.3,5.3c-0.8,1.7-1.2,3.4-1,5.3c0.2,3.4,0.2,6.8,0.9,10.1 c0.3,1.7,0.9,3.3,1.4,5c-4.7-2.5-8.5-6.1-11.4-10.6c0.7-0.1,0.6-0.6,0.7-1c0.2-2.3,0.5-4.6,0.7-7c0-0.2,0.2-0.4,0.3-0.6 c0.3,1.4,0.7,2.7,0.9,4.1c0.6,3.6,2.9,5.7,5.7,7.8c0.3-0.9,0.3-1.4-0.2-1.9c-0.5-0.5-0.9-1.2-1-1.9c-0.8-5.5,1.5-10.1,4.7-14.3 C52.3,134.9,52.6,134.9,52.8,134.8z" fill="#E2B37C"/></g><g><path d="M58.6,55.6c-0.6-0.5-0.3-1.2-0.4-1.8c2.8-1.4,5.6-2.6,8.6-3.2c-0.1,2.2,0.5,4.1,1.9,5.7 c1,1.2,1.7,2.3,1.4,4.1c-0.2,1.3-0.1,2.8,0.8,4c-3.6-1.3-6.8-2.8-8.9-6.1C61.3,56.9,60.2,55.9,58.6,55.6z" fill="#EFBB81"/></g><g><path d="M164.5,25.6c-5.4-0.2-10.1,2.1-14.9,4.1c-2.6,1-4.7,2.6-6.9,4.1c-0.7,0.4-1.7,1.4-2.3,0.6 c-0.4-0.5-0.3-1.8,0.5-2.6c0.9-0.9,1.1-2.6,2.7-2.9c0.3,1.1,0.7,0.2,0.9,0c2-1.6,4-3.2,6.5-3.6c3.9-0.6,7.7-1.9,11.7-1.8 C163.6,23.9,164.3,24.6,164.5,25.6z" fill="#E2B37C"/></g><g><path d="M45.6,91.6c1.2-0.8,1.9-2,2.8-3c2.4-2.8,5.5-4.4,8.9-5.3c2.9-0.7,5.2-2.3,7.4-4.1c2.5-2.1,4.9-4.3,7.1-6.7 c0.4-0.4,0.8-0.5,1.2,0c-1.6,2.1-3,4.4-4.9,6.3c-2.9,2.9-6.6,4.7-10.2,6.5c-3.4,1.7-6.4,3.7-8.7,6.8c-0.8,1.2-1.5,2.6-3,3 C46,93.9,45.8,92.8,45.6,91.6z" fill="#ECAD6F"/></g><g><path d="M162.6,23.5c-4-0.1-7.8,1.2-11.7,1.8c-2.5,0.4-4.5,2-6.5,3.6c-0.2,0.2-0.6,1.1-0.9,0 c2-3.1,3.1-6.7,5.7-9.4c0.3-0.3,0.6-0.5,1-0.7c3.5,1.1,7,2.3,10.6,3.5C161.4,22.5,162.2,22.8,162.6,23.5z" fill="#F3C891"/></g><g><path d="M210.5,168.9c0.5-0.8,1.3-1.5,1.5-2.4c0.6,0,1,0.5,1.2,0.9c2.1,3.2,5.2,5.4,7.8,8.1 c1.1,1.1,2.4,1.9,3.7,2.8c0.5,0.3,1,0.5,1.3-0.2c0.8,1.9,2.5,3.2,3.6,5c-4.2-0.8-7.5-3.3-10.8-5.7c-2.8-2-5.2-4.6-7.1-7.5 C211.4,169.4,211.1,168.9,210.5,168.9z" fill="#E2B37C"/></g><g><path d="M105.8,163.3c-0.4-3-1-6-1.1-9.1c1.7,1.8,1.8,4.3,2.6,6.5c0.3,0.9,0.5,1.4,1.7,0.9c1.3-0.6,2.8-0.8,4.3-1 c3.5-0.5,5.9-2.2,7.4-5.4c0.7-1.5,1.2-3.1,2.5-4.2c0.5,1.5,1.1,2.9,0.7,4.6c-1,0.6-1.6,1.6-2.4,2.4c-3,3.2-6.5,5.3-11,4.9 C108.8,162.7,107.3,163.1,105.8,163.3z" fill="#E2B37C"/></g><g><path d="M216.2,19.9c-0.2-0.4-0.5-0.7-0.7-1.1c0.6-2.4,1.1-4.6-0.6-7c-0.9-1.3-2.2-1.9-3-3.1 c2-0.4,3.8,0.1,5.4,1.1c2.1,1.4,4.1,1.6,6.4,0.9c0.7-0.2,1.5-0.3,2.3-0.1c0,0.3,0,0.7-0.5,0.9C221.6,13.5,218.6,16.4,216.2,19.9z" fill="#F8CB90"/></g><g><path d="M249,114c-0.5,1.7-2,2.8-3,4c-1.7,1.8-3.4,3.6-4.9,5.6c0.1-1-0.7-1.8-1-2.6c-0.5-1.1-0.9-2.2-0.8-3.4 c0-1.1-0.4-2-1.5-2.6c-0.5-0.3-1.2-0.5-1.4-1.3c1.2,0.1,2.4,0.1,3.5,0.5C243,115,246,114.8,249,114z" fill="#F3C891"/></g><g><path d="M211.9,8.8c0.8,1.2,2.1,1.8,3,3.1c1.7,2.4,1.2,4.6,0.6,7c-1.1-2.2-3.7-3.1-4.7-5.5 c-0.6-1.5-2.3-2.5-4.2-2.4c-0.6,0-1.2-0.2-1.7-0.5C207,8.8,209.4,8.7,211.9,8.8z" fill="#EFBB81"/></g><g><path d="M47.7,63.1c5.3,0.2,10.6,0.6,15.5,2.9c-0.8,0.5-0.5,1.1-0.3,1.8c-4.7-1.6-9.7-1.7-14.6-1.8 c-0.6,0-1.3,0.2-1.9,0.3C46.5,65.1,46.7,63.9,47.7,63.1z" fill="#EFBB81"/></g><g><path d="M216.2,19.9c2.4-3.6,5.4-6.4,9.3-8.3c0.4-0.2,0.4-0.5,0.5-0.9c1.7-0.3,3.3-0.2,5-0.1c0,0.2,0,0.4,0,0.7 c-2.1,0.9-4.3,1.4-6.1,2.8c-1,0.8-1.9,1.7-2.6,2.7c-1.6,2.3-4,3.9-5.3,6.6C216.3,22.3,216.8,21,216.2,19.9z" fill="#EFBB81"/></g><g><path d="M227.4,39c5.3,4.5,6.8,10.3,5.8,17c-0.3,0.6-0.8,0.7-1.4,0.8c-0.1-0.5,0.1-0.9,0.1-1.4 c0.3-2.4,0.3-4.8-1.7-6.7c0-3.5-0.6-6.7-3.6-9C226.7,39.3,226.9,39,227.4,39z" fill="#EFBB81"/></g><g><path d="M237.1,22.4c1-1.2,2.5-1.1,3.8-1.4c3.7-0.8,7.1,0.2,10.6,1.1c0.2,1.4,0.5,2.9,0.7,4.3 c-1.7-0.2-3-1-4.3-2.1c-0.3-1.8-1.8-1.7-3-1.8C242.4,22.4,239.7,21.9,237.1,22.4z" fill="#EFBB81"/></g><g><path d="M230.3,48.7c2,1.9,2,4.3,1.7,6.7c-0.1,0.5-0.2,0.9-0.1,1.4c-0.9,0.8-1.9,1.3-3,1.7 c0.3-0.9,0.6-1.8,0.9-2.7c0.7-1.9,1-3.7,0.3-5.7C229.9,49.6,229.8,49.1,230.3,48.7z" fill="#ECAD6F"/></g><g><path d="M101,20.1c-0.2,1.5-1.8,2.2-2.4,3.4c-0.2,0.4-0.5,0.6-0.8,1c-0.4,0.5-0.7,1.6-1.2,1.2 c-1-0.6,0.2-1.3,0.3-1.9c0.2-0.8,1.2-1.2,1.2-2.1C98.9,20.8,100,20.5,101,20.1z" fill="#E2B37C"/></g><g><path d="M231,11.3c0-0.2,0-0.4,0-0.7c1.1,0.1,2.2-0.3,3.2,0.4C233.2,11.6,232.1,11.1,231,11.3z" fill="#F8CB90"/></g><g><path d="M280,167.6c0-0.3,0-0.6,0.4-0.7C280.4,167.2,280.3,167.4,280,167.6z" fill="#E2B37C"/></g><g><path d="M174.4,85.2c0.6-0.1,1.1-0.1,1.6,0.2c1.1,0.7,2.3,0.9,3.6,0.8c4.1-0.3,7.1,2.3,10.3,4.3 c0.9,0.6,1.9,1.1,2.8,1.7c1.7,1.2,2.8,2.7,3.9,4.3c0.5,0.8,1.3,1.2,2,1.7c0.6,0.5,1.1,0,1.3-0.6c0.4-1.1,0.2-2.2-0.2-3.1 c-0.7-1.7-1.7-3.3-3.2-4.4c-3-2.3-6.1-4.6-9.4-6.5c-2.6-1.5-5.6-1.9-8.2-3.4c4-3,8.5-3.9,13.4-3.4c3,0.3,6,0.8,8.8,2.1 c0.2,0.1,0.4,0.1,0.5,0.1c1.4-0.3,1.4-0.4,2.2,0.7c4.9,6.7,6,13.9,2.6,21.6c-1,2.2-1.7,4.6-2.8,6.8c-1.1,2.2-2.4,4.1-4.9,4.8 c-2.8,0.8-5.2,2.4-7.8,3.7c-2.2,1.1-4.5,2.4-7.2,1.2c-1.7-0.7-3.4,0-5.1,0.3c-1.5,0.2-2.9,0.2-4.4,0c-2.4-0.3-4.7,0.4-7.1,0.7 c-0.4,0.1-0.9,0.5-1.1,0c-0.2-0.4,0.1-0.9,0.5-1c1.5-0.5,1.4-1.7,1.5-2.9c0.2-4.6,0.5-9.1,0.7-13.7c0.3-5.3-0.1-10.6-1.8-15.7 c-0.3-1-1-2.7-0.1-3.1c1-0.4,1.6,1.3,2.2,2.1c1.8,2.4,3.3,5,5.1,7.5c1.4,2.1,3.1,4.1,4.3,6.2c1.3,2.3,2.9,4.5,3.4,7.3 c0.6,3.5,0.8,7.2,3.1,10.3c0.2,0.3-0.1,1,0.6,0.9c0.6-0.1,0.6-0.7,0.6-1.2c0-2.6,0-5.2-0.1-7.9c-0.2-4.8-2.4-8.8-5.1-12.6 C178.5,91.8,176.6,88.5,174.4,85.2z" fill="#F3C891"/></g><g><path d="M86.3,72.5c2.8-1,5.7-1.3,8.6-1.5c2.5-0.1,4.8,0.5,6.9,1.8c1.1,0.7,1.4,2,2.3,2.9c1.8,1.6,3.1,3.6,5.1,5.1 c2.8,2,3.7,5.3,4.6,8.5c0.9,3.3,1.8,6.5,2.3,9.9c0.1,0.9,0.8,1.4,1.5,1.6c1,0.1,0.6-0.9,0.8-1.4c0.2-0.4,0.1-1,0.2-1.6 c0.8,1.5,2,2.9,2.3,4.7c0.1,0.6,0,1.8,1.3,1.8c-0.3,0.9-1.1,1.3-1.7,2c-0.7,0.8-2,0.2-2.6,1.3c-1.9-0.1-3.3-1.9-2.8-3.9 c0.3-1.1,0.2-1.7-0.8-2.2c-0.4-0.2-0.7-0.8-1.1-1.2c-1.1-1.7-2.6-2.7-4.7-2.5c-0.4-0.9-0.8-1.8-1.3-2.6c-1.2-1.9-1.2-4.4-2.9-6.1 c-0.6-0.6-1.1-1.3-2.1-0.7c-1.1,0.7-0.1,1.3,0.2,1.8c1.8,2.8,3.5,5.6,3.6,9c-0.2,0-0.5,0-0.7,0c-3.3-0.6-5,0.2-6.3,3.4 c-0.8,1.9-2,3.5-2.9,5.3c-0.8,1.6-1.3,3.3-1.4,5c-0.1,2.7-2,4.5-3.1,6.7c-0.3,0.5-1.8-0.3-2.7-0.6c-0.4-0.1-0.7-0.5-1-0.8 c-0.4-1.8-1.8-3.1-2.6-4.6c-1.3-2.7-3.1-5.2-2.7-8.7c0.2-1.2-0.6-2.7,0.1-4.2c0.3-0.6-0.2-0.9-0.7-1.1c-0.6-0.2-1.3-0.3-1.6,0.4 c-0.5,1.5-1.2,3-0.8,4.7c0.2,0.6,0.4,1.2,0.1,1.7c-0.9,2.3,0,4,1.6,5.7c0.8,0.8,1.8,1.8,1.7,3.2c-1.1,0.2-1.8-0.8-2.5-1.3 c-1.7-1.3-3.5-2.3-5.4-3.2c-2.6-1.3-3.2-3.7-3.8-6c-0.5-1.9-1.2-3.5-2.4-5c0.4-0.7,1-1.1,1.8-1.1c1.3,0,1.9-0.7,2.4-1.8 c0.4-1,0.9-2,1.3-2.9c1.9-4,2.6-8.4,5.5-12c1.7-2.2,1.3-4.2-0.5-5.6c-0.1-1.2,0.8-2,1.6-2.3c0.9-0.4,1.4,0.8,1.6,1.3 c1.1,2.3,2.6,4,4.6,5.5c0.7,0.6,0.8,1.7,0.8,2.7c-0.2,0.1-0.5,0.2-0.6,0.4c-1.2,4-0.7,8,0.3,12c0.2,0.6,0.7,1,1.3,1 c0.5,0.7,1,1.4,1.5,2.2c0.1,0.7-0.2,1.7,1,1.8c1.6,0,3.2,0.1,4.7,0.7c0.4,0.2,1.5,0.5,1.3-0.8c-0.3-1.8-0.6-3.7-1.7-5.1 c-1.5-1.8-2.4-3.8-3.7-5.7c-0.4-0.6-0.4-1.4-0.3-2.2c0.2-1.6,1.4-3.1,1-4.6c-0.7-2.8-1.9-5.4-3.8-7.5c-0.7-0.8-1.4-2.1-2.9-1.7 c0,0,0,0,0,0C86.5,73.4,86.4,73,86.3,72.5z" fill="#F8CB90"/></g><g><path d="M184.9,174.7c-0.1,1.5-0.8,3-0.7,4.6c0,0.4-0.1,0.7-0.5,0.9c-2.7,1.1-4.9,3-8.2,3c-2.1,0-4.3,0.3-6.4,0.4 c-4,0.1-8,0.7-11.9-0.3c-1.1-0.3-2.4-0.7-3.6-0.2c-1.1-0.5-2.5-0.1-3.6-0.7c-0.6-2.6-2.2-3.9-5.2-3.9c-1.4,0-1.6-0.8-0.9-1.7 c0.7-0.9,0.9-2,1.1-3c0.9-4.1,2.5-8,4-11.9c1.5-3,3.6-5.7,4.7-9c0.3-1,0.7-1.9,1-2.9c0.4-1,0.9-1.8,1.8-2.4 c2.1-1.4,3.7-3.5,5.9-4.9c0.9-0.6,1.7-0.6,2.7-0.5c-2.1,3.9-1.7,8.3-2.8,12.4c-1.3,2.6-1.9,5.4-2.2,8.2 c-0.6,5.4-0.2,10.9-1.6,16.2c-0.6,2.2,1.2,2.7,2.1,3.8c0.6,0.7,1.4-0.1,2.1-0.3c0.3-0.1,0.6-0.3,1-0.5c0,0.6,0,1.3,0.8,1.4 c0.6,0.1,1-0.4,1.3-0.9c1.2-1.9,1.7-3.9,1.7-6.1c0-3.4-0.1-6.8-0.7-10.1c-0.5-2.7,0.7-5,0.6-7.5c0-0.8,0.3-1.8,0.2-2.5 c-0.6-3.8,0.1-7.6,0.5-11.4c0.3,0.3,3.1,1.5,3.6,1.6c0.1,0,0.2,0.1,0.3,0.2c0.5,1.7,0.5,3.6,1.6,5.2c0.4,0.6,0.9,1.2,1.4,1.4 c2.3,0.9,3.5,2.7,5,4.6c1.8,2.3,3.2,4.7,4.2,7.4C185.3,168.3,185.3,171.5,184.9,174.7z" fill="#F8CB90"/></g><g><path d="M94.9,66.7c-2.7-0.1-5.3,0.1-8,0.6c-0.5,0.1-1.2,0.3-1.5-0.2c-0.3-0.5,0.2-1,0.7-1.3 c0.5-0.3,0.9-0.8,1.1-1.4c2.1-4.5,6.5-6.2,10.7-7.7c2.2-0.8,4.7-0.8,7.2-0.2c1.6,0.4,3.2,0.9,4.9,0.4c0.3,0.1,0.7,0.1,1,0.2 c1.7,0.1,3.2,1.5,5.1,0.9c1.3,0.9,1.8,2.4,2.6,3.7c0.4,0.6,0.4,1.5,1.4,1.7c0,0.6,0.2,1,0.6,1.4c0.7,0.7,1.3,0.9,1.6-0.3 c1.1-4.1,3.1-7.7,5.6-11.1c2.2-3,4.3-6.1,6.1-9.4c0.4-0.8,0.7-0.9,1.6-0.4c1.5,1,2.1,2,1.5,3.9c-0.6,2.1-0.2,4.4-0.9,6.6 c-0.8,2.3-1.3,4.8-1.9,7.2c-0.9,3.7-0.7,7.4-0.4,11.1c0.3,3.5,0.1,6.8-1.7,9.9c-0.6,1-1.4,1.3-2.4,1.1c-1-0.2-2.1-0.3-3-0.9 c-0.3,1-0.1,1.9-0.2,2.8c0,0,0,0,0,0c-0.3-0.1-0.6-0.1-0.8-0.3c-2.5-2.5-4.8-5.3-6.5-8.5c-1.9-3.6-4.9-6-8.4-7.7 c-3.6-1.8-7.4-3.2-11.6-2.8C97.9,66.3,96.3,66,94.9,66.7z" fill="#F8CB90"/></g><g><path d="M271.7,155.7c-0.4,1,0.4,1.8,0.7,2.7c0.4,1.2,0.7,2.6-0.2,3.4c-2.6,2.3-2.8,5.6-3.8,8.6 c-0.7,2.1-1.9,3.9-3.8,5.2c-1.2,0.9-2.5,0.5-3.8,0.8c-4.2,0.8-8.2,2.3-11.8,4.7c-0.3,0.2-0.7,0.1-1,0.2c0.1-0.5-0.1-1-0.4-1.4 c0.4-0.3,0.4-0.7,0.4-1.1c-0.1-3.2-0.7-6.2-1.9-9.2c-1.4-3.4-3.2-6.6-6-9.1c-0.1-1.6-1.7-3-1-4.6c1.3-3.1,0.5-7,3.2-9.6 c1.3-1.2,3.6-0.9,4.1,0.7c1,3.3,3.8,3.7,6.4,4.7c3.4,1.2,6.8,2.1,10.1,3.5c1.4,0.6,3.2,1.6,5.2,0.2 C268.8,154.6,270.4,155.4,271.7,155.7z" fill="#F3C891"/></g><g><path d="M196.8,147.7c1.5,3.5,4.4,5.3,7.7,6.6c0.4,0.2,1,0,1.6-0.1c0.9-0.2,1.9-1.1,2.7,0c0.7,1,0.1,2.4-0.4,2.9 c-1.8,1.9-2.9,4.2-4.2,6.4c-1.3,2.2-2.2,4.5-3.4,6.7c-1,1.8-2.5,2.8-3.9,4c-1.9,1.8-3.6,4-6.6,4.3c-0.2,0-0.3,0-0.6,0.1 c0.8-3.4,0.8-6.7-1-9.8c-0.4-0.6-0.2-1.3-0.2-1.9c-0.2-2.6-1.3-4.6-3.6-6c-0.3-0.2-0.3-0.4-0.4-0.7c0.2-1.9-0.8-3.2-2.2-4.3 c-0.8-3.2-2.8-5.2-5.8-6.4c-1.4-0.6-1.7-2.4-1.6-3.7c0.1-0.8,1.5-1.3,2.6-1.2c2.5,0.3,5.1-0.2,7.6-0.2c2,0,3.3,0.7,4.8,1.4 c0.7,0.3,1.5,0.2,2.2,0.3C193.8,146.5,195.3,147,196.8,147.7z" fill="#F8CB90"/></g><g><path d="M75.1,132.3c-1.3,1.1-2.8,2-4,3.2c-2.5,2.2-4.9,6-3,10c1.4,3.1,3.4,5.8,7.1,6.9c2.4,0.7,4.9,1.1,7.1,2.3 c1.8,1,4,1.8,4.8,4.3c0.4,1.3,1.1,2.5,2.4,3.3c0.6,0.3,0.9,0.7,0.6,1.4c-0.3,0.7-0.6,1.4-1.4,1.4c-5.2-0.1-10.5,1.2-15.8-0.1 c-2.3-0.6-4.3-1.4-6.3-2.6c-2-1.1-4.3-2-6.5-2.6c-1.7-0.4-2.9-1.6-4.5-1.9c0.1-3.7-1.4-7.4-0.4-11.1c0.9-3.3,3-5.9,5.5-8.1 c2.1-1.8,4.7-3,7.1-4.3c1.7-0.9,3.6-1.2,5.5-1.6C73.7,132.4,74.4,132.4,75.1,132.3z" fill="#F3C891"/></g><g><path d="M123,151c-1.3,1.1-1.8,2.8-2.5,4.2c-1.5,3.2-3.9,4.9-7.4,5.4c-1.5,0.2-3,0.4-4.3,1c-1.2,0.5-1.4,0-1.7-0.9 c-0.7-2.2-0.9-4.6-2.6-6.5c-0.9-2-2-4-2.7-6.1c-1.5-4.1-4.5-6.9-7-10.2c-0.8-1.1-2.1-1.5-3-2.4c-0.9-0.8-1.3-1.7-0.6-2.9 c0.2-0.4,0.3-0.7,0.3-1.2c0-2.4,0.5-2.9,2.7-3.4c0.4-0.1,0.7-0.1,0.9,0.2c1.5,2,3.8,2,5.9,2.5c3.1,0.7,6.2,1.1,8.5,3.8 c0.8,0.9,2.5,0.7,3.6,1.5c0.3,0.2,0.5,0.4,0.7,0.7c2.2,3.7,4.8,7.2,7.8,10.4C122.6,148.1,123.3,149.5,123,151z" fill="#F3C891"/></g><g><path d="M157.1,79.3c-0.4,1.7-1.4,2.4-2.1,3.2c-3.7,4.1-6,8.7-7.2,14.1c-1.3,5.9-2.5,11.7-2.8,17.7 c-0.1,2.1,0.1,4.2,0.5,6.2c0.1,0.7-0.1,0.9-0.7,1.1c-1.5,0.5-3.1,1-4.6,1.5c-1.4,0.5-2.6-0.6-3.1-1.4c-1.3-2.3-3.6-3.6-4.8-5.9 c-1.3-2.6-3.1-5.1-2.2-8.2c1-3.3,1.8-6.6,3.6-9.6c0.5-0.8,0.6-1.8,1.1-2.6c3.4-5.4,7.8-9.9,13.2-13.3c2.1-1.3,4.6-1.5,7-1.9 C155.7,80,156.3,80,157.1,79.3z" fill="#F3C891"/></g><g><path d="M52.8,134.8c-0.2,0.1-0.5,0.1-0.6,0.3c-3.2,4.2-5.5,8.7-4.7,14.3c0.1,0.7,0.4,1.4,1,1.9 c0.5,0.5,0.5,1,0.2,1.9c-2.7-2.1-5.1-4.2-5.7-7.8c-0.2-1.4-0.6-2.7-0.9-4.1c-0.4-7,1.8-13.4,4.4-19.6c1.2-2.8,3.2-5.2,5.6-7 c1.8-1.3,3.9-2.4,6.1-2.2c1.8,0.2,3.6,1.3,5.3,2.1c0.9,0.4,1.9,0.7,2.5,1.5c0.6,0.8,0.9,1.5-0.5,2c-2.6,1-4.8,2.8-7.6,3.4 c-0.2,0-0.5,0.2-0.6,0.4c-2.3,3.3-6,3.3-9.3,4.3c-0.6,0.2-1.3,0.4-1.8,0.7c-0.6,0.3-1,1-0.7,1.6c0.3,0.5,0.5,1.3,1.6,1 c2.4-0.6,4.9-1,7.4-1.2c0.3,0,0.6-0.1,0.8-0.3c2.4-2.4,6-2.7,8.6-4.8c3.4-2.7,7.2-3.1,11.3-2c0.6,0.2,1.2,0.2,1.7,0.3 c1.5,0.9,3.3,1.4,4.7,2.5c0,0.1-0.1,0.1-0.1,0.2c0-0.1,0.1-0.1,0.1-0.2c0.4,0,0.8-0.1,1.1,0.4c-1.2,0.7-2.6,0.4-3.9,0.7 c-2.8,0.7-5.7,1.3-8.5,2.1c-2.6,0.8-5.2,1.3-7.9,1.8C58.5,129.8,55.5,132,52.8,134.8z" fill="#F3C891"/></g><g><path d="M191.4,60.3c-0.8-2.1-2-4.3-3.8-5.5c-1.6-1.1-2.7-2.7-4.4-3.7c-1.6-1-1.2-2-0.5-3.3c1.3-2.3,2.9-4.5,3.9-7 c1.5-1.8,3.9-2.2,5.9-3.2c2.8-1.4,5.8-1.1,8.7-1.1c3.3,0,6.6,0.1,9.8-0.1c1.7-0.1,3.3,0.7,5,0.5c1.9-0.2,3.7-0.3,5.4-1.2 c-0.2,2.1-1.7,2.8-3.4,3.2c-4.7,0.9-9,2.7-12.8,5.5c-4.2,3-7.4,7-8.9,12c-0.5,1.7,0.2,3.4,0.3,5.1c1.6-0.2,1.1,1.3,1.7,2 c1,1.2,1.2,2.7,2,3.9c0.5,0.8,1.1,1.5,1.7,2.2c0.2,0.2,0.7,0.1,0.5,0.6c-0.2,0.5-0.5,0.2-0.9,0.2c-1.1,0-1.9-0.5-2.6-1.3 c-0.5-0.6-0.9-1.3-1.8-1.3C195.3,65.4,193.9,62.4,191.4,60.3z" fill="#F8CB90"/></g><g><path d="M266.3,132.6c1.9,0.7,3.9-0.1,5.9,0.6c2,0.7,4.1,1.2,5.9,2.3c2.5,1.5,5.1,3.1,7.6,4.6 c-0.9,3.3-1.6,6.7-3.3,9.8c-0.8,1.4-0.7,3-0.7,4.5c0,1.2-0.2,2.4-0.7,3.5c-0.3,0.7-0.7,1.1-1.3,0.1c-0.7-1.2-1.7-2.1-2.8-3 c-1-0.8-1.9-1.7-2.6-2.9c-1-1.8-3.1-2.2-4.8-3.2c-2.8-1.8-6-2.2-9.2-2.8c-2-0.3-4-0.8-6-1c-0.8-0.1-1.5-0.4-2.1-0.8 c-0.8-0.5-1.5-1.1-1.4-2.1c0.1-1,1.2-0.7,1.8-0.8c3.9-1.2,7.5-2.9,10.8-5.3C264.6,135.1,264.8,133.3,266.3,132.6z" fill="#F3C891"/></g><g><path d="M148.9,161.8c-1.5,3.9-3.1,7.8-4,11.9c-0.2,1-0.4,2.1-1.1,3c-0.7,0.9-0.5,1.6,0.9,1.7c3,0,4.7,1.3,5.2,3.9 c-5.7-0.7-10.4-3-14-7.6c-3.2-4.2-6.4-8.4-8.1-13.3c-1.5-4.2-1.9-8.7-1.3-13.2c0.2-1.5,0.9-2.8,2.3-3.6c0.5-0.3,0.8-0.9,1.1-1.4 c1.1-2,3-2.9,5-3.8c2.6-1.1,5.1-2.2,7.9-2.6c3.6-0.4,7.3-0.9,10.9-0.4c0.3,0,0.4,0.3,0.4,0.5c-5.7,0.1-10.6,2.1-14.9,5.8 c-2.2,1.9-4.8,3.3-6.8,5.4c-0.3,0.3-1.1,0.6-0.6,1.2c0.4,0.5,1,0,1.5-0.2c0.7-0.3,1-1.1,1.8-1.1c-0.7,1.2-0.8,2.5-1.2,3.8 c-0.4,1.3-0.7,2.5-1.8,3.6c-0.7,0.7-1.4,1.8-1.7,2.9c-0.2,0.7-0.2,1.2,0.2,1.8c1.7,2.9,3.7,5.5,5,8.6c0.5,1.1,0.6,2.5,1.6,3.3 c0.4,0.3,0.4,1.2,1,1.1c0.7-0.1,0.6-0.9,0.8-1.4c2-5.5,3.4-11.2,6.3-16.3c1.7-3,3.5-5.9,5.1-8.9c1.4-2.5,3.7-3.6,6-5 c0,0.8-0.6,1.3-1.1,1.7c-2.6,2.1-3.4,5-3.8,8.1c-0.3,2.4-1.4,4.5-2.6,6.5c-0.4,0.7-0.7,1.5-1.1,2.2 C147.3,161.4,147.8,161.8,148.9,161.8z" fill="#EFBB81"/></g><g><path d="M149.3,119.3c-0.6-1.8,0-3.5,0.1-5.3c0.4-5,1.1-9.9,2.4-14.7c1.2-4.4,2.9-8.6,6.2-12 c1-1.1,1.9-2.3,2.9-3.6c1.5,2.3,1.6,4.8,1.8,7.2c0.5,4.2,0,8.4,1,12.6c0.5,2.1,0.3,4.5,0.3,6.8c0,2.4,0.2,4.6,0.9,6.9 c0.3,0.8,0.5,1.7-0.9,1.7c-0.9,0.3-2.5-1-2.5,1.1c0,0.1-0.6,0.3-1,0.3c-3,0.1-5.9-0.5-8.9-0.4C151,119.9,150.3,118.9,149.3,119.3z" fill="#F3C891"/></g><g><path d="M156.5,141.6c-2.3,1.3-4.6,2.5-6,5c-1.6,3-3.4,5.9-5.1,8.9c-2.9,5.1-4.3,10.8-6.3,16.3 c-0.2,0.5-0.1,1.3-0.8,1.4c-0.6,0.1-0.6-0.8-1-1.1c-1-0.9-1.1-2.2-1.6-3.3c-1.3-3.1-3.4-5.7-5-8.6c-0.3-0.6-0.4-1.2-0.2-1.8 c0.3-1.1,1-2.2,1.7-2.9c1.1-1.1,1.5-2.3,1.8-3.6c0.4-1.3,0.5-2.6,1.2-3.8c3.5-2.3,7.1-4.3,11-5.6c1.2-0.4,2.6-0.5,3.8-0.5 c1.8-0.1,3.3-1.7,5.2-1.1c0.6,0.2,1.3,0.1,2,0.2C157.2,141.5,156.9,141.6,156.5,141.6z" fill="#F8CB90"/></g><g><path d="M211.9,152.4c-1.4-1.8-2.8-3.3-5.5-2.7c-1.2,0.3-2.1-0.6-2.8-1.3c-1.9-2-3.6-4.1-5.4-6.1 c-1.6-1.7-3.8-2.4-5.7-3.5c-1.4-0.9-2.9-1.5-4.4-2.2c3.2-1.1,5.9,0.2,8.6,1.6c0.8,0.4,1.6,0.7,2.5,1.1c0.5,0.2,1.1,0.5,1.4-0.1 c0.4-0.6,0-1.2-0.5-1.5c-1.5-0.9-3.1-1.8-4.6-2.7c-1.8-1.1-3.8-1.3-5.8-1.2c-1.2,0.1-2.4,0.1-3.6,0c-2.9-0.3-5.6,0.2-7.6,2.5 c0-0.2,0-0.5,0-0.7c0.6-2,2.1-3.5,3.1-5.2c0.2-0.3,0.5-0.5,0.5-0.9c0.5,0,0.7-0.3,0.7-0.7c0,0,0,0,0,0c1.5-0.9,3.2-1.1,4.9-1.5 c1.7-0.3,3.4-0.6,4.5-2.1c1,0.1,1.9,0.2,2.9,0.4c1.5,1,3,2,4.5,3.1c0.8,0.6,1.6,1.2,2,2.2c1.4,3,3.6,5.2,6.5,6.9 c1.6,2.1,2.7,4.2,3.2,7C211.6,147.2,211.8,149.8,211.9,152.4z" fill="#F8CB90"/></g><g><path d="M113.3,100.2c0.4,0.4,0.6,0.9,1.1,1.2c1,0.5,1.1,1.1,0.8,2.2c-0.5,2,0.9,3.7,2.8,3.9 c0.7,1,1.7,1.5,2.6,2.1c3.7,2.9,6.9,6.2,8.9,10.4c-1-0.1-1.7-0.8-2.4-1.5c-1.7-1.6-4-2.8-6.2-3c-3.3-0.2-6.7,0.1-9.8,1.6 c-3.9,1.9-8.1,3.1-12.1,4.9c-1,0.5-1.6,0.2-1.7-1c3.4-3.8,5.4-8.1,5-13.3c1-0.8,1.3-2.2,2.2-3.1 C107.1,102.2,110.3,101.5,113.3,100.2z" fill="#F3C891"/></g><g><path d="M226,178c-0.3,0.8-0.8,0.6-1.3,0.2c-1.3-0.9-2.7-1.7-3.7-2.8c-2.6-2.7-5.7-4.9-7.8-8.1 c-0.3-0.4-0.6-0.9-1.2-0.9c2-2.7,2.6-5.9,3.2-9.1c0.8-4.1,0.3-8.2-0.9-12.2c-0.3-1.1-0.3-2.4-1.1-3.3c-0.3-0.4-0.2-0.9,0.3-1.2 c1.8-1.3,3.8-2,6.1-1.6c1.3,0.2,2.7,0.4,4,0.2c1.5-0.2,2.7,1.1,4.2,1.3c0.8,0.1,2,0,2.7,1.1c-2,1.9-4.3,3.7-5.8,6.2 c-1.5,1.3-2,3.3-3.1,4.9c-2.5,3.7-3,7.6-1.2,11.7c-0.2,2,0.4,3.8,1.5,5.5C223.2,172.5,224.5,175.2,226,178z" fill="#F3C891"/></g><g><path d="M177.7,56.3c-1.4,0.7-2.7,0.6-3.8-0.4c-1.7-1.5-3.8-2-5.9-2.4c-2.1-0.4-3.6,1.1-4.7,2.8 c-1.1,1.8-2.5,2.1-4.6,2.1c-2.2,0-3-1.3-4.1-2.4c-1.6-1.6-3-3.4-4.6-5c-1.5-1.4-2.8-3-3-5.3c-0.1-1.2-1-2-1.8-2.7 c-0.9-0.8-1.7-1.7-2.1-2.8c3.1,0.3,6.1,1.3,9.3,1.2c3.7-0.2,6.8,1.1,9.3,4c1,1.2,2.2,2.2,3.4,3.1C169.4,51,173.6,53.6,177.7,56.3z" fill="#F3C891"/></g><g><path d="M177.7,56.3c-4.2-2.7-8.4-5.3-12.5-8c-1.3-0.8-2.4-1.9-3.4-3.1c-2.5-2.9-5.7-4.1-9.3-4 c-3.2,0.2-6.2-0.8-9.3-1.2c0.1-1.9,1.1-2.5,4-2.9c2.4,0.2,4.8-0.3,7.2-0.7c3.5-0.5,7-0.6,10.3,0.5c2.4,0.7,4.5,2.3,6.5,3.9 c0.8,0.7,1.6,1.4,2.6,1.7c0,0.1,0,0.2,0,0.4c0.1,0.1,0.2,0.2,0.4,0.4c1.6,2.9,3.2,5.8,4.7,8.7c0.7,1.6,2.5,1.8,3.4,3 c0,0.5,0,1,0,1.6C180.7,56.7,179.2,56.6,177.7,56.3z M158.6,41.2c4.9,1.6,7.7,6.1,12.5,6.9C167.1,45.7,164.4,41.2,158.6,41.2z" fill="#E2B37C"/></g><g><path d="M220.5,126.1c0-0.4,0-0.7,0-1.1c-0.1-0.1-0.2-0.2-0.3-0.4c0.4-1.2,0.8-2.4-0.3-3.6c-0.6-0.7-0.1-1.4,0.4-2 c1.9-2.5,4.5-3.4,7.5-3.2c2,0.1,4,0.4,5.9,0.9c1.1,0.3,1.7,1.1,1.6,1.9c-0.2,2.2,0.6,4.4,0,6.7c-0.6,2.2,0.6,4.2,1.3,6.3 c-1.1-0.4-2.2-0.8-3.4-1c-3.7-0.8-7.4-1.7-11.2-0.6c-1,0.3-1.1-0.2-1.2-0.9C220.8,128,221,127,220.5,126.1z" fill="#F3C891"/></g><g><path d="M138.2,64.5c0.5-2.2-0.8-4.3,0.2-6.4c0,0,0-0.1,0-0.2c-1.4-4.1,0.9-7.9,0.8-11.9c0-1.5,1.7-0.9,2.4-1.7 c0.5-0.5,0.7,0.4,1,0.7c1.2,1.3,1.5,2.9,1.7,4.7c0.3,2.8,2.3,4.7,4.3,6.5c0.3,0.3,0.8,0.5,1.2,0.8c0.8,0.7,2,1.4,2.2,2.3 c0.4,1.3-1.3,1.3-2,2c-1.4,1.4-2.7,2.7-3.7,4.3c-0.4,0.7-1.1,1.2-1.9,1.3c-1.6,0.3-3,0.9-4.3,1.8c-1,0.7-1.3,0.4-1.4-0.7 C138.7,66.9,138.4,65.7,138.2,64.5z" fill="#F3C891"/></g><g><path d="M152.9,133.7c-3,0.1-6-0.5-9,0.3c-2.7,0.7-5.4,1.6-7.9,2.9c-3.3,1.7-5.6,4.5-8.6,6.5 c-0.6,0-1.1-0.1-1.1-0.8c0-3.1,0.3-6.1,1.6-9c0.4-0.9,0.9-1.6,2-1.8c0.6-0.1,1.4-0.3,1.6-1c0.1-0.8-1-0.5-1.3-1 c2.3-2.5,5.7-2.6,8.5-3.9c1.3-0.6,2.7-1,4.1-1.4c-0.2,3.2,1.9,5.1,4.1,7.1C148.6,133,150.8,133.1,152.9,133.7z" fill="#F8CB90"/></g><g><path d="M167.6,121.1c4.5-1.5,9.1-2.1,13.8-1.7c1.7,0.1,3.5,0.5,4.9,1.7c0.6,0.5,0.9,1-0.2,1.2 c-4.4,0.8-7.3,4.2-10.4,6.9c-2.2,1.9-3.6,4.7-4.1,7.7c-0.6-0.1-0.9,0.6-1.5,0.8c0-2.7-2.3-4.4-2.7-7.1c-0.2-1.6-0.8-3.2-0.4-4.9 C167.6,124.2,167.6,122.7,167.6,121.1z" fill="#F8CB90"/></g><g><path d="M132.4,125.9c-1.3,1.4-2.5,2.9-4.2,3.8c-2.1,1.2-3.7,2.9-4.8,5.1c-2.7-3.6-6-6.6-10.5-8 c-2-0.6-4.1-1.3-5.7-2.8c3.4-0.7,6.9-1.4,10.3-2.2c1-0.2,2.2-0.6,1.9-2.1c0.5,0.1,1.1,0.5,1.5,0.3c2-0.9,3.2,0.5,4.6,1.5 c2.1,1.5,4.2,3.2,6.5,4.3C132.2,125.7,132.3,125.8,132.4,125.9z" fill="#F3C891"/></g><g><path d="M118.3,45.5c2.1,0.3,4.2-0.1,6.3-0.6c0.4-0.1,0.9-0.3,1.1,0.2c0.2,0.4-0.2,0.6-0.4,0.9 c-1.1,1.7-3.1,2.8-3.7,4.9c-2.1,1.6-3.9,3.5-5.7,5.4c-1.2,0-1.3-1.2-2.1-1.8c-4.1-3.3-9.2-3.8-14.1-4.7c0,0,0,0,0,0 c0.1-0.6,0.3-1.2,0.4-1.7c0.4-1.5,1.2-2.3,2.8-1.5c1,0.5,2,0.1,2.9-0.3c1.7-0.8,3.5-1,5.3-0.8c2.1,0.3,4.2,0.1,6.2,0 c0.2,0,0.5,0,0.7,0C118.1,45.5,118.2,45.5,118.3,45.5z" fill="#F3C891"/></g><g><path d="M85.9,149.9c-3.8-0.5-7.5-1.6-11.2-2.7c-2.5-0.8-3.6-4.7-2-6.8c0.4-0.5,1-0.9,1-1.6 c2.3-0.1,3.9-1.4,5.5-2.9c1.3-1.3,3.5-1.6,5.3-2.9C84.2,138.9,83.3,144.6,85.9,149.9z" fill="#F3C891"/></g><g><path d="M196.7,71.1c-8.6-1.4-16.8-0.7-24.1,4.8c0.1-1.6,0.3-2.1,1.5-2.5c1.8-0.5,2.9-1.8,3.8-3.3 c1.5-2.4,3.7-4.2,5.5-6.3c0.9-1.1,2.3-1.4,3.4-2.2c0.4-0.3,1-0.5,1.5,0c1.7,1.6,3.3,3.3,4.5,5.3C193.9,68.6,194.9,70.2,196.7,71.1 z" fill="#F3C891"/></g><g><path d="M163.7,181.9c-0.3,0.2-0.6,0.4-1,0.5c-0.7,0.2-1.5,1-2.1,0.3c-1-1.1-2.7-1.6-2.1-3.8 c1.5-5.3,1-10.8,1.6-16.2c0.3-2.8,0.9-5.6,2.2-8.2c0.9,0.4,0.7,1.3,0.7,2c0,2.1-0.1,4.1-0.2,6.2c-0.2,2.6,0.2,5,1.1,7.4 C165.2,174.1,165.3,178,163.7,181.9z" fill="#EFBB81"/></g><g><path d="M79.8,76.4c1.7,1.4,2.2,3.4,0.5,5.6c-2.8,3.6-3.6,8-5.5,12c-0.5,1-0.9,1.9-1.3,2.9 c-0.4,1.1-1.1,1.8-2.4,1.8c-0.7,0-1.4,0.3-1.8,1.1c-1.1,0.3-1.9,1-2.2,2.2c-0.9,0.4-1.2,1.5-2.4,1.7c0.1-1.5,0.2-2.9,0.2-4.3 c2.5-2.8,4.8-5.8,6.7-9c2.3-3.7,4.8-7.3,6.6-11.2C78.9,78.3,78.9,77.2,79.8,76.4z" fill="#EFBB81"/></g><g><path d="M129.5,120c1.4,1.7,2.2,3.6,2.6,5.7c-2.4-1.2-4.4-2.8-6.5-4.3c-1.4-1-2.6-2.3-4.6-1.5 c-0.4,0.2-1-0.2-1.5-0.3c-2.4-1.3-5-1.4-7.6-0.8c-2.9,0.6-5.6,1.7-8.3,3c-2.3,1.1-4.8,2.9-7.7,2.5c-0.5-0.1-1.3,0.3-1.3-0.4 c0-0.4,0.5-1.1,0.9-1.2c0.9-0.3,1.3-1.2,2.2-1.6c0.1,1.1,0.6,1.4,1.7,1c4-1.8,8.2-3,12.1-4.9c3.1-1.5,6.5-1.8,9.8-1.6 c2.2,0.1,4.4,1.3,6.2,3C127.8,119.2,128.5,119.9,129.5,120z" fill="#E2B37C"/></g><g><path d="M220.5,126.1c0.4,0.9,0.3,1.9,0.4,2.8c0.1,0.8,0.3,1.2,1.2,0.9c3.8-1.1,7.5-0.2,11.2,0.6 c1.2,0.2,2.3,0.7,3.4,1c1.4,1.3,2.1,3.1,3.2,4.7c0.3,0.4,0.6,1,0.2,1.5c-0.4,0.6-1,0.1-1.4-0.1c-0.8-0.4-1.6-0.8-2.3-1.4 c-1.5-1.2-3-2.4-5.2-1.6c-0.2,0.1-0.5,0-0.7-0.1c-3.6-1.7-7.4-1.8-11.4-2.1c1.1-1.8,1.2-3.6,0.7-5.5 C219.8,126.4,220,126.2,220.5,126.1z" fill="#E2B37C"/></g><g><path d="M107.2,124c1.6,1.5,3.7,2.2,5.7,2.8c4.5,1.4,7.7,4.3,10.5,8c0,2.3,0,4.6,0,7.4c-2.1-2-3.2-4.2-4.3-6.3 c-1.4-2.5-3.3-4.4-6-5.8c-3-1.6-6-2.6-9.5-3.4C104.7,125.5,105.9,124.7,107.2,124z" fill="#E2B37C"/></g><g><path d="M170.7,72.6c-0.1-1.9,0.5-3.6,0.9-5.4c0.7-2.5,1.4-5,2-7.6c0.2-0.7,0.4-1,1.4-1.1c2.4-0.2,4.6,0,6.8,0.8 c0.2,0.1,0.3,0.1,0.5,0.1c0.8,0.1,2.1-0.7,2.3,0.5c0.1,0.8-1.3,0.8-2,1.1c-3.8,1.8-6.5,4.8-8.7,8.2 C173.1,70.8,171.1,70.8,170.7,72.6z" fill="#F3C891"/></g><g><path d="M135.6,85.4c1.1-2.7,2.2-5.4,3.3-8.1c0.2-0.6,0.5-1.2,0.6-1.9c0.3-1.3,0.6-2.5,2.3-1.2 c0.6,0.4,1.1,0.1,1.4-0.3c0.9-0.9,1.8-1.2,3-0.4c0.6,0.4,1.4,0.4,2.1,0.2c2.2-0.6,4.4,0.2,6.7,0.1c0.3,0,1-0.2,0.9,0.5 c-0.1,0.6-0.6,0.4-1,0.4c-5.5,0.1-9.8,2.9-13.9,6.3C139.2,82.6,137.8,84.6,135.6,85.4L135.6,85.4z" fill="#F3C891"/></g><g><path d="M161.1,130.1c-0.1,0.4-0.2,0.7-0.3,1.1c0,0.1,0,0.2,0,0.3c0,0.1,0,0.2,0,0.4c-0.4,0-0.8,0-1.1,0.4 c-0.3,0-0.6-0.1-0.7-0.4c-0.9-2.3-3.1-3.2-5.1-4.3c0,0,0,0,0,0c0-0.6-0.5-0.9-0.9-1.2c-1-0.8-2.1-1.6-2.8-2.7 c-0.4-0.6-0.7-1.1,0.7-1.3c2.6-0.4,5.2,0.1,7.8,0.1c2.4,0,2.2,0.2,2.7,2.7c0.3,1.4-0.2,2.4-0.5,3.5 C160.9,129.1,160.1,129.7,161.1,130.1z" fill="#F8CB90"/></g><g><path d="M152.9,133.7c-2.1-0.5-4.2-0.7-6-2.3c-2.2-1.9-4.2-3.8-4.1-7.1c0.9-1,2.3-0.7,3.3-1.6 c0.5-0.4,0.7,0.3,0.6,0.7c-0.4,2.7,1,3.9,3.6,4.3c1.3,0.2,2.4,1,2.4,2.4c0,1.7,1.5,2.5,2,3.8l0,0 C154,134.5,153.5,133.9,152.9,133.7z" fill="#EFBB81"/></g><g><path d="M162.6,71.4c-0.1,0-0.3,0-0.3-0.1c-2.9-3.4-7.2-2.8-11-3.9c-0.7-0.2-1.6-0.2-1.8-0.9c-0.3-0.7,0.6-1,1-1.5 c1-1.2,2-2.3,3.4-3c1.5-0.8,2.7-0.6,3.5,0.7c1.3,1.9,3.3,3.5,3.7,5.9C161.4,69.7,162.8,70.2,162.6,71.4L162.6,71.4z" fill="#F3C891"/></g><g><path d="M115.8,56.3c1.8-1.9,3.6-3.8,5.7-5.4c1.1,2.3,0.5,2.1,3.6,1.1c-0.1,2-1.7,3.2-2.5,4.8 c-1.1,2.2-2.1,4.3-2.5,6.7c-1-0.2-1-1.1-1.4-1.7c-0.7-1.3-1.3-2.8-2.6-3.7C116,57.5,115.9,56.9,115.8,56.3z" fill="#E2B37C"/></g><g><path d="M83.4,115.4c0-1.4-0.9-2.4-1.7-3.2c-1.6-1.7-2.5-3.4-1.6-5.7c0.2-0.6,0-1.2-0.1-1.7 c-0.4-1.7,0.3-3.2,0.8-4.7c0.2-0.7,1-0.6,1.6-0.4c0.5,0.2,0.9,0.5,0.7,1.1c-0.7,1.4,0.1,2.9-0.1,4.2c-0.5,3.5,1.3,6,2.7,8.7 c0.8,1.6,2.2,2.8,2.6,4.6c-0.9,0.2-1.4-0.4-2-0.8C85.2,116.7,84.3,116,83.4,115.4z" fill="#E2B37C"/></g><g><path d="M161.1,130.1c-1-0.4-0.2-1-0.1-1.4c0.3-1.2,0.8-2.2,0.5-3.5c-0.6-2.5-0.3-2.7-2.7-2.7 c-2.6,0-5.1-0.5-7.8-0.1c-1.4,0.2-1,0.7-0.7,1.3c0.7,1.1,1.7,1.9,2.8,2.7c0.4,0.3,0.9,0.6,0.9,1.2c-1.5-0.6-2.8-1.5-4.5-1.6 c-1.3-0.1-1.7-2.2-0.7-3.4c0.8-1,0.8-1.9,0.2-2.9c0.1-0.1,0.2-0.2,0.4-0.4c0,0,0,0,0,0c1-0.4,1.7,0.6,2.4,0.6c3,0,5.9,0.6,8.9,0.4 c0.3,0,1-0.2,1-0.3c0.1-2.2,1.6-0.9,2.5-1.1c0,0.5-0.5,0.6-0.8,0.8c-0.6,0.6-1.4,1.2-1.1,2.3C162.8,124.9,162.7,127.6,161.1,130.1 z" fill="#EFBB81"/></g><g><path d="M117.2,45.5c-2.1,0.1-4.1,0.3-6.2,0c-1.8-0.2-3.6,0-5.3,0.8c-0.9,0.4-1.9,0.8-2.9,0.3 c-1.6-0.8-2.4-0.1-2.8,1.5c-0.1,0.6-0.3,1.2-0.4,1.7c-0.2,0-0.4,0-0.5,0c-1-0.5-2.2,0-3.2-0.6c0.7-1.2,1.3-2.5,2.1-3.6 c0.8-1.1,1.8-2,2.7-3c0.8,3.3,1.2,2.4,3.9,2c3.4-0.5,6.8-1.1,10.1,0.1C115.5,45,116.7,44.3,117.2,45.5z" fill="#E2B37C"/></g><g><path d="M113.3,100.2c-2.9,1.3-6.2,2-8.6,4.4c-0.9,1-1.2,2.3-2.2,3.1c0-2.6,1.1-4.8,2.3-7c0.3-0.5,0.7-1,0.6-1.6 c0.2,0,0.5,0,0.7,0c0.9-0.4,2.2-0.2,2.5-1.4C110.7,97.5,112.2,98.5,113.3,100.2z" fill="#E2B37C"/></g><g><path d="M167.6,121.1c0,1.6-0.1,3.2-0.5,4.7c-0.5,1.7,0.2,3.2,0.4,4.9c0.3,2.6,2.7,4.3,2.7,7.1 c0.6-0.3,0.8-0.9,1.5-0.8c0.1,1,0,2-0.5,2.9c-3.9-1.7-5-5-5.2-9c-0.1-3,0.5-6,0.2-9C166,120.4,167.2,121.4,167.6,121.1z" fill="#EFBB81"/></g><g><path d="M220.2,164.3c-1.8-4.1-1.3-8,1.2-11.7c1.1-1.6,1.6-3.6,3.1-4.9c0.5,2.8-1.4,5-1.8,7.6 C222.1,158.4,220.8,161.2,220.2,164.3z" fill="#E2B37C"/></g><g><path d="M130.2,129.7c0.3,0.5,1.4,0.3,1.3,1c-0.1,0.7-1,0.9-1.6,1c-1.1,0.2-1.6,0.9-2,1.8c-1.3,2.9-1.7,5.9-1.6,9 c0,0.8,0.5,0.8,1.1,0.8c-1.3,1.3-2.3,2.7-3.2,4.7c0-2.2,0.6-3.9,0.7-5.6c0.2-2.9,0-5.8,1-8.6C126.6,131.8,128,130.4,130.2,129.7z" fill="#EFBB81"/></g><g><path d="M164.4,28.2c-0.2,0.2-0.3,0.5-0.5,0.5c-2.8,0.3-4.8,2.2-7.2,3.2c-2.5,1-5.1,1.9-7.8,2.1 c2.7-1.4,5-3.6,7.9-4.6c2-0.7,3.9-2.1,6.2-1.9C163.6,27.5,164.3,27.3,164.4,28.2z" fill="#E2B37C"/></g><g><path d="M240,160.3c2.8,2.5,4.6,5.7,6,9.1c1.2,2.9,1.8,6,1.9,9.2c0,0.4,0.1,0.9-0.4,1.1c-0.7-0.6-0.3-1.5-0.4-2.2 c-0.4-5.2-3.5-9.2-5.7-13.6C240.8,162.8,240,161.7,240,160.3z" fill="#E2B37C"/></g><g><path d="M207.9,137.7c-2.8-1.7-5.1-3.9-6.5-6.9c-0.4-1-1.2-1.6-2-2.2c-1.5-1.1-3-2.1-4.5-3.1 c4.5,0.7,7.5,3.3,9.6,7.2c0.6,1.1,1,2.5,2.4,3.2C207.5,136.1,208.3,136.7,207.9,137.7z" fill="#EFBB81"/></g><g><path d="M192.1,125.1c-1.1,1.5-2.8,1.8-4.5,2.1c-1.7,0.3-3.4,0.6-4.9,1.5c0.2-1.2,0.6-2.3,2-2.6 c0.1,0,0.3,0,0.3-0.1C187.1,122.6,189.7,124.8,192.1,125.1z" fill="#EFBB81"/></g><g><path d="M82.7,124.3c-0.3-0.4-0.7-0.3-1.1-0.4l0,0c-1.4-1.1-3.1-1.6-4.7-2.5c0.6-0.6,1.3-0.4,2-0.1 c2.2,0.8,4.4,1.3,7,1.6C84.9,124.2,83.7,124.1,82.7,124.3z" fill="#E2B37C"/></g><g><path d="M172,146.7c-0.1-0.1-0.2-0.1-0.3-0.2c-0.6-0.1-3.3-1.3-3.6-1.6c0.4-1.2,1.6-1.9,2.4-1.5 C171.5,143.9,172.1,145.3,172,146.7z" fill="#EFBB81"/></g><g><path d="M154,127.6c2,1.1,4.1,2,5.1,4.3C156,131.7,154.9,130.8,154,127.6z" fill="#EFBB81"/></g><g><path d="M178.4,135.5c0,0.2,0,0.5,0,0.7c-0.4,1.4-1.7,2.5-1.4,4.3c0.1,0.7-1.2,0.5-1.9,0.6 C176.3,139.3,176.6,136.9,178.4,135.5z" fill="#EFBB81"/></g><g><path d="M187.8,136.6c-2.2-0.6-4.3,0.2-6.5,0C182.9,135,185.5,135,187.8,136.6z" fill="#F8CB90"/></g><g><path d="M182.4,156c1.3,1.1,2.3,2.4,2.2,4.3C183.5,159.1,182.3,157.9,182.4,156z" fill="#EFBB81"/></g><g><path d="M249.4,136.9c0.9,0.2,1.4-0.7,2.2-0.7C250.8,137.7,250.2,137.9,249.4,136.9z" fill="#E2B37C"/></g><g><path d="M251.9,135.8c0-0.7,0.4-1.1,1.1-1.1C253,135.6,252.7,135.9,251.9,135.8z" fill="#E2B37C"/></g><g><path d="M157.9,137c-0.5,0.3-0.8,0.8-1.3,0.4c-0.1-0.1,0-0.3,0-0.5C157.1,136.9,157.5,136.9,157.9,137z" fill="#EFBB81"/></g><g><path d="M159.7,132.2c0.3-0.4,0.7-0.3,1.1-0.4c0,0.3,0.2,0.7-0.3,0.8C160.2,132.8,159.9,132.5,159.7,132.2z" fill="#EFBB81"/></g><g><path d="M138.8,27.9c0-0.5,0.2-0.9,0.7-1.1C139.6,27.3,139.6,27.8,138.8,27.9z" fill="#E2B37C"/></g><g><path d="M162.6,71.4c0.4,0,0.7,0.1,0.7,0.6c0,0.1-0.1,0.2-0.2,0.2C162.6,72.1,162.6,71.8,162.6,71.4L162.6,71.4z" fill="#F3C891"/></g><g><path d="M154.7,134c0.4,0,0.7,0,1.2,0C155.3,134.6,155,134.4,154.7,134L154.7,134z" fill="#EFBB81"/></g><g><path d="M182.8,128.6c0,0.5-0.2,0.7-0.7,0.7C182.1,128.9,182.3,128.7,182.8,128.6z" fill="#EFBB81"/></g><g><path d="M157,74.5c-0.1,0.1-0.1,0.2-0.2,0.3c-0.1,0-0.2,0-0.3-0.1c0-0.1,0.1-0.2,0.1-0.3 C156.8,74.4,156.9,74.5,157,74.5z" fill="#F3C891"/></g><g><path d="M155.3,137c0,0-0.1,0-0.1,0c0-0.1,0-0.1,0-0.2c0,0,0.1,0,0.1,0C155.3,136.9,155.3,137,155.3,137z" fill="#EFBB81"/></g><g><path d="M171.7,76.3c0,0-0.1,0-0.1,0.1c0-0.1,0-0.1,0-0.2c0,0,0.1,0,0.1,0C171.7,76.2,171.7,76.3,171.7,76.3z" fill="#F3C891"/></g><g><path d="M96.7,35c0-0.3,0.1-0.6,0.4-0.7c0,0.2,0,0.5,0,0.7C97,35.1,96.8,35.1,96.7,35L96.7,35z" fill="#F3C891"/></g><g><path d="M125.5,29.6c0.2,0,0.3,0.1,0.5,0.1c0,0-0.1,0.1-0.1,0.1C125.8,29.8,125.7,29.7,125.5,29.6 C125.5,29.6,125.5,29.6,125.5,29.6z" fill="#F3C891"/></g><g><path d="M165.8,28.6c-0.1,0-0.2,0-0.4,0c0.1-0.2,0.1-0.3,0.2-0.5C165.7,28.2,165.8,28.4,165.8,28.6z" fill="#E2B37C"/></g><g><path d="M201.4,77.6c0,0-0.1,0-0.1,0c0,0,0-0.1-0.1-0.1c0.1,0,0.1,0,0.2,0C201.4,77.5,201.4,77.6,201.4,77.6z" fill="#F3C891"/></g><g><path d="M135.6,85.5c0,0.2-0.1,0.3-0.1,0.5c0,0-0.1-0.1-0.1-0.1C135.4,85.7,135.5,85.6,135.6,85.5 C135.6,85.4,135.6,85.5,135.6,85.5z" fill="#F3C891"/></g><g><path d="M154.3 136.9L154.5 137 154.4 137.1z" fill="#EFBB81"/></g><g><path d="M118.3,45.5c-0.1,0-0.2,0-0.4,0C118.1,45.3,118.2,45.3,118.3,45.5z" fill="#E2B37C"/></g><g><path d="M160.8,131.5c0-0.1,0-0.2,0-0.3C161,131.3,161,131.4,160.8,131.5z" fill="#EFBB81"/></g><g><path d="M125.2 52L125.2 51.8 125.3 51.9z" fill="#E2B37C"/></g><g><path d="M96.7,35.1c0.1,0,0.2,0,0.4,0c0,0.1,0,0.2,0,0.3C97,35.3,96.8,35.2,96.7,35.1z" fill="#E2B37C"/></g><g><path d="M149.3,119.3c-0.1,0.1-0.2,0.2-0.4,0.4C149,119.5,149.2,119.4,149.3,119.3z" fill="#F3C891"/></g><g><path d="M220.2,124.7c0.1,0.1,0.2,0.2,0.3,0.4C220.4,124.9,220.3,124.8,220.2,124.7z" fill="#E2B37C"/></g><g><path d="M126.6,85.5c0.2,5.7-1.3,11.1-2.9,16.5c-0.3,0.9-0.7,1.6-1.5,2.2c-1.2,0-1.2-1.2-1.3-1.8 c-0.3-1.8-1.5-3.2-2.3-4.7c-0.3-2.2-0.6-4.4-0.9-6.6c-0.4-3.4-0.6-7-2.9-9.8c-1.6-1.9-3.4-3.6-5.2-5.4c-1.2-1.2-2.6-2.4-3.7-3.7 c-2.2-2.6-5.6-2.9-8.4-4.2c-0.9-0.4-1.9-0.6-2.6-1.3c1.4-0.8,3-0.4,4.5-0.6c4.1-0.4,8,1.1,11.6,2.8c3.4,1.7,6.5,4.1,8.4,7.7 c1.7,3.2,3.9,5.9,6.5,8.5C126,85.3,126.4,85.4,126.6,85.5z" fill="#EFBB81"/></g><g><path d="M115.8,56.3c0.1,0.6,0.2,1.2,0.4,1.8c-1.8,0.6-3.3-0.8-5.1-0.9c-0.3,0-0.7-0.1-1-0.2 c0.1-1.2-0.9-1.6-1.6-1.8c-3.5-1-7.1-1.8-10.8-1c-3.2,0.7-5.8,2.3-8.3,4.3c-0.7,0.6-1.4,1.1-2.4,1.1c-1.4,0-2.1,0.9-2.5,2.1 c-0.6,2-2.1,3.4-3.1,5.1c0-3.6-1.9-7.2-0.2-10.8c0.4,0.2,0.3,0.7,0.5,1.3c0.2-0.3,0.4-0.5,0.4-0.7c1.9-3.8,4.8-5.1,9.2-4.3 c2.2,0.4,4.2-0.8,6.2-1.3c0.7-0.2,1.8,0,2-1.1c4.9,0.9,10,1.3,14.1,4.7C114.5,55.1,114.6,56.3,115.8,56.3z" fill="#EFBB81"/></g><g><path d="M86.7,73.9c1.5-0.4,2.2,0.9,2.9,1.7c1.9,2.1,3.1,4.8,3.8,7.5c0.4,1.6-0.8,3-1,4.6 c-0.1,0.8-0.1,1.6,0.3,2.2c1.2,1.9,2.2,3.9,3.7,5.7c1.2,1.4,1.5,3.3,1.7,5.1c0.2,1.3-0.9,0.9-1.3,0.8c-1.5-0.6-3.1-0.7-4.7-0.7 c-1.2,0-0.9-1-1-1.8c1.6,0.1,1.5-0.9,1.1-1.9c-1.1-2.6-1.2-5.2-0.9-8c0.5-4.9-0.2-9.6-3.5-13.5C87.2,75.2,86.9,74.6,86.7,73.9z" fill="#EFBB81"/></g><g><path d="M89.5,97c-0.7,0-1.2-0.4-1.3-1c-1-4-1.5-7.9-0.3-12c0-0.2,0.4-0.2,0.6-0.4c0.8,2,0.6,4.1,0.3,6 C88.3,92.2,88.7,94.6,89.5,97z" fill="#EFBB81"/></g><g><path d="M65.8,95.5c-0.3-1.7,0.5-3.1,1.3-4.4c1.1-1.8,2.3-3.7,4.5-4.6C70,89.8,68.3,92.9,65.8,95.5z" fill="#EFBB81"/></g><g><path d="M68.7,68.5c-1.7-0.1-3.5,0.1-5.1-0.7c1.7-0.4,3.4,0.1,5.1,0.2C68.9,68,68.8,68.3,68.7,68.5z" fill="#EFBB81"/></g><g><path d="M86.3,72.5c0.1,0.5,0.3,1,0.4,1.4c-0.6-0.3-1.3-0.7-2.1-1.1C85.2,72.3,85.8,72.6,86.3,72.5z" fill="#EFBB81"/></g><g><path d="M81.6,53.4c0.3,0.7,0.6,1.4-0.4,1.8C81.3,54.6,81,53.9,81.6,53.4z" fill="#EFBB81"/></g><g><path d="M81.6,50.9c0.2,0.1,0.3,0.1,0.5,0.2c-0.2,0.1-0.3,0.1-0.5,0.2C81.6,51.1,81.6,51,81.6,50.9z" fill="#EFBB81"/></g><g><path d="M184.2,41.9c0.1,1.2-0.4,2.2-1.2,3.2c-0.8,1.1-1.6,2.2-1.3,4.1c-2.4-1.8-2.9-4.3-3.3-6.6 c-0.4-2.2-0.3-4.5-0.4-6.7c-0.1-1.9,0.6-3.6,2.2-4.8c2.2-1.8,4.4-3.6,7.3-4.3c-0.5,0.4-1,0.9-1.4,1.3c-0.2,0.2-0.5,0.6-0.2,1 c0.3,0.3,0.7,0.1,1,0c1.3-0.6,2.6-1.2,3.8-1.9c4-2.1,7.8-2.1,11.5,0.7c2.6,2,5.9,2,8.9,2.8c1.5,0.4,3.7-0.3,4.5,1.9 c-1.2,0.4-2.3-0.4-3.5-0.3c-4.1,0.1-8.1-0.4-12.2,0.1c-3.4,0.4-6.1,1.8-8.5,4.2c-1.8,1-3.6,2-5.4,3.1 C185.2,40.1,184.4,40.8,184.2,41.9z" fill="#F8CB90"/></g><g><path d="M191.4,36.5c2.3-2.4,5.1-3.9,8.5-4.2c4.1-0.4,8.1,0,12.2-0.1c1.2,0,2.3,0.7,3.5,0.3c0.7,0.2,1,0.5,0,0.7 c-3.2,0.8-6.4,1.4-9.7,1.4c-3.7,0-7.4,0.3-11.1,0.7C193.6,35.5,192.6,36.3,191.4,36.5z" fill="#EFBB81"/></g><g><path d="M174.1,43.3c-0.1-0.1-0.2-0.2-0.4-0.4C173.9,43.1,174,43.2,174.1,43.3z" fill="#F3C891"/></g><g><path d="M281.1,129.3c0,0-0.1,0-0.1,0c0,0,0.1-0.1,0.1-0.1c0,0,0.1,0.1,0.1,0.1 C281.1,129.2,281.1,129.3,281.1,129.3z" fill="#F3C891"/></g><g><path d="M108.6,97.7c-0.4,1.3-1.6,1.1-2.5,1.4c-0.1-3.4-1.8-6.2-3.6-9c-0.3-0.4-1.3-1.1-0.2-1.8 c1-0.6,1.5,0.1,2.1,0.7c1.7,1.7,1.7,4.2,2.9,6.1C107.8,95.9,108.2,96.8,108.6,97.7z" fill="#EFBB81"/></g><g><path d="M81.6,124c0,0.1-0.1,0.1-0.1,0.2C81.5,124.1,81.6,124,81.6,124C81.6,124,81.6,124,81.6,124z" fill="#E2B37C"/></g><g><path d="M158.6,41.2c5.8-0.1,8.6,4.5,12.5,6.9C166.2,47.3,163.5,42.8,158.6,41.2z" fill="#F3C891"/></g></g></g></svg>