<?xml version="1.0" encoding="UTF-8"?><svg xmlns="http://www.w3.org/2000/svg" xmlns:xlink="http://www.w3.org/1999/xlink" height="391.1" preserveAspectRatio="xMidYMid meet" version="1.0" viewBox="-9.4 -8.7 444.9 391.1" width="444.9" zoomAndPan="magnify"><g><path d="m201.94 214.23c48.798 1.663 96.207 6.063 142.95 20.892 39.663 12.584 90.662 61.324 37.097 94.581-76.46 47.47-190.28 52.691-276.44 32.095-29.087-6.954-60.334-13.974-84.571-32.668-25.827-19.921-30.347-54.6 0.923-72.926 27.14-15.905 55.476-26.627 86.396-32.778 30.477-6.064 64.656-2.623 93.647-9.196" fill="inherit"/></g><g><path d="m203.66 218.26c47.8 1.7 93.731 6.744 139.38 21.568 20.345 6.606 41.558 18.913 53.315 37.004 13.944 21.457-6.199 42.004-23.811 52.698-78.25 47.517-193.24 43.214-279.39 24.069-26.848-5.966-54.329-15.797-75.386-33.849-25.349-21.733-8-50.771 15.495-64.549 51.15-29.991 112.44-34.879 170.39-36.941" fill="#ffbf00"/></g><g><path d="m204.81 225.72c40.011 0.935 99.173 1.231 130.61 30.558 46.481 43.364-34.467 68.754-68.068 73.421-49.411 6.862-97.056 5.996-145.94-4.364-20.189-4.279-43.267-12.788-55.627-30.098-14.422-20.195 9.37-40.551 26.704-48.175 36.168-15.91 75.315-18.963 112.32-21.342" fill="inherit"/></g><g><path d="m205.95 230.32c43.676 1.088 96.188 3.896 130.79 33.875 43.481 37.673-67.273 61.553-86.551 63.79-45.05 5.229-93.32 1.751-137-10.299-15.296-4.22-50.663-16.5-46.387-37.896 4.637-23.2 33.414-32.207 53.261-38.367 27.412-8.507 59.351-10.193 85.894-11.103" fill="#ffdc73"/></g><g><path d="m33.605 256.74 207.09 66.7c4.306 1.387 12.244 6.409 15.813 2.806l35.369-35.727 76.668-77.438c-111.52 14.561-223.07 32.223-334.94 43.659" fill="inherit"/></g><g><path d="m368.54 236.06-79.568 80.369-33.208 33.542c-2.955 2.984-18.826-4.76-22.372-5.902l-134.74-43.399-55.069-17.736c-14.511-4.674-9.639-9.742-8.824-25.621l206.01 66.165c4.301 1.381 12.179 6.364 15.739 2.769l35.369-35.727 76.668-77.438v22.978" fill="inherit"/></g><g><path d="m54.863 258.47 185.6 58.464c4.647 1.463 11.385 5.991 15.116 2.176l32.27-32.994 68.058-69.589c-100.24 13.992-200.47 30.699-301.04 41.943" fill="#fffad9"/></g><g><path d="m39.928,258.472c-.687,20.487.336,17.531 18.825,23.544l71.797,23.349 120.792,39.281c0-20.389-.931-17.535-19.35-23.491l-75.802-24.514c-26.393-8.535-52.786-17.069-79.178-25.604-11.533-3.73-27.129-6.564-37.084-12.565" fill="#cc7a29"/></g><g><path d="m256.52 325.68v17.235l63.307-63.981 36.111-36.495c9.242-9.341 8.586-10.716 8.586-24.763l-54.002 54.288c-16.652 16.74-35.761 41.319-54.002 53.716" fill="#e6a145"/></g><g><path d="m343.261,237.787c-20.717,16.777-.803,9.147-5.172,21.83-3.255,9.448-33.893,9.469-33.893,16.373 0,12.857-4.238,10.311-12.064,18.097-10.096,10.044-8.775,27.104-25.855,32.169-5.672,1.683-19.827,2.003-24.699-2.869-9.29-9.29-7.917-8.406-22.405-8.043-10.726.269-21.694,1.559-31.263-3.392-8.69-4.496-15.384-13.287-24.675-14.835-12.739-2.123-22.583-1.761-34.96-1.971-24.521-.418-33.088-1.455-51.2-17.162-9.51-8.248-14.104-4.577-26.231-4.577-15.571,0-8.133-13.966-3.254-20.063 3.926-4.905 22.714-4.146 28.481-4.93l75.133-10.192c53.555-7.265 107.108-14.53 160.662-21.796l33.03-4.48c1.919-.261 22.766,2.535 22.366,1.335 2.992,8.979-.968,18.369-12.512,15.889 9.113,9.031-5.309,16.023-11.489,8.617" fill="inherit"/></g><g><path d="m343.833,225.719c4.51,1.435 8.108,4.765 9.768,9.195-5.215,3.019-7.137-2.09-12.062-1.15-4.452.849-10.814,7.568-14.542,10.177-6.243,4.369 2.533,4.322 2.474,8.208-.063,4.119 3.714,4.427-.86,7.468-3.441,2.288-9.006,6.24-12.352,7.473-3.593,1.324-13.645.164-16.085,2.872-.909,1.009.091,4.596-.572,5.745-2.557,4.434-.629,7.202-4.022,10.912-2.575,2.815-8.572,3.495-10.918,6.323-6.415,7.735-4.613,18.797-13.784,25.274-6.367,4.497-17.951,5.99-25.28,1.722-3.181-1.853-3.942-6.745-6.895-8.617-3.628-2.301-7.075-1.723-12.926-1.723-8.948,0-19.599,2.55-28.439.578-9.696-2.163-18.156-9.538-24.956-16.338-5.725-5.725-26.32-5.813-34.276-4.218-18.869,3.783-35.76.075-51.872-8.814-4.794-2.646-8.772-14.85-15.369-14.167-8.432.872-19.531,4.872-25.19-3.578 15.753-10.5 30.17-10.462 49.065-12.988 37.105-4.963 74.21-9.925 111.315-14.887l105.522-14.112 29.79-3.983c7.966-1.065 15.832,4.725 22.574-.562 2.728,11.738-12.167,9.19-20.108,9.19" fill="#8ede51"/></g><g><path d="m136.44 252.73c0.312 29.706-100.29 30.354-105.13-1.156-3.875-25.248 25.602-18.162 39.961-15.799 9.989 1.644 69.362 5.42 65.17 16.955" fill="inherit"/></g><g><path d="m35.333 243.53c-4.152 38.413 100.46 30.308 97.665 6.322-23.688 12.643-78.84 17.282-97.665-6.322" fill="#e61919"/></g><g><path d="m131.27 245.25c-17.867 10.36-76.005 18.665-90.194-2.583-5.358-8.024 14.714-9.445 18.064-8.911l72.13 11.494" fill="#e62e2e"/></g><g><path d="m57.163,233.764c-10.148.622-15.355,7.243-2.873,9.768 7.82,1.581 14.608-7 21.258-4.022v1.149c-29.261-.472 21.962,23.486 12.634,2.295l4.022-.572c-5.993,14.724 26.786,9.42 27.575,3.444 .82-6.207-55.881-11.051-62.616-12.062" fill="#ff8080"/></g><g><path d="m265.7 267.09c-1.952 12.492-1.48 20.315-12.637 27.288-11.453 7.159-23.655 10.054-37.059 10.054-26.306 0-58.289-9.256-76.122-29.303-2.868-3.224-6.998-7.772-8.04-12.067-0.498-2.051 1.833-17.312 2.488-17.203l38.042 6.286c21.163 3.497 42.326 6.995 63.489 10.492 8.24 1.362 23.909 5.413 29.839 4.453" fill="inherit"/></g><g><path d="m261.68 269.38c-8.004 35.224-49.599 32.597-78.707 24.702-14.354-3.893-33.753-12.521-42.509-25.28-5.175-7.54-2.603-10.642-2.3-20.107 9.36 22.896 36.402 34.258 59.172 38.498 19.208 3.577 55.442 3.243 64.344-17.813" fill="#e61919"/></g><g><path d="m258.24 266.51c-29.488 37.348-92.41 12.679-115.48-18.957 37.864 0.748 78.821 21.034 115.48 18.957" fill="#e62e2e"/></g><g><path d="m164.595,251.571c-14.056-6.416-6.451,7.039 1.436,11.781 2.833,1.704 7.91,6.949 11.776,5.454 3.09-1.194-.408-10.553 4.595-9.189 5.069,1.382-.198,7.593 1.722,10.345 3.706,5.312 11.466,6.285 17.813,7.462 4.938.916 17.007,4.047 18.957-1.145 .648-1.727-4.642-9.238-5.173-11.49 7.382,1.513 8.488,11.49 14.938,11.49 4.918,0 17.811-1.892 17.811-8.906 0-9.317-74.248-15.094-83.875-15.802" fill="#ff8080"/></g><g><path d="m354.75 180.92c31.292 24.671-6.523 50.766-31.812 57.998-9.493 2.715-29.74 2.622-15.773-10.878 13.199-12.758 41.051-31.294 47.585-47.12" fill="inherit"/></g><g><path d="m356.474,201.022c-5.775,20.868-33.916,26.291-52.277,28.147-.431,1.985-.149,6.142.572,8.039 20.147-2.012 42.342-7.214 54.261-25.084 7.698-11.541 3.446-21.379-6.578-28.337 5.385,3.794 7.048,11.913 4.022,17.235" fill="#e61919"/></g><g><path d="m349.58 186.66c22.967 15.075-25.687 36.274-37.342 36.765 11.916-11.553 28.477-24.831 37.342-36.765" fill="#e62e2e"/></g><g><path d="m309.36 222.27c32.578 21.42-5.462 53.849-29.809 60.347-4.485 1.196-15.073 5.163-19.596 3.42-4.692-1.809-7.855-7.721-2.604-12.86l52.009-50.907" fill="inherit"/></g><g><path d="m311.09 242.95c-4.392 13.652-15.801 20.22-28.516 25.107-9.064 3.484-30.396-0.177-27.212 13.391 24.627-0.651 89.135-29.159 51.127-56.877 5.483 3.26 8.518 13.799 4.601 18.379" fill="#e61919"/></g><g><path d="m303.62 228.02c24.514 15.211-27.059 38.468-39.638 38.492 12.613-12.072 30.284-25.849 39.638-38.492" fill="#e62e2e"/></g><g><path d="m34.184,222.274c.706,18.416 2.418,15.265 20.041,18.415l73.85,13.202c33.674,6.021 65.067,14.174 98.013,23.646 8.976,2.58 31.424,14.487 38.745,7.019l47.011-47.958c10.579-10.791 22.445-20.097 34.004-29.83l24.944-21.005c4.625-3.895.867-11.943.045-17.493l-336.653,54.004" fill="inherit"/></g><g><path d="m38.206 233.19c63.466 11.167 125.16 22.372 187.12 39.284 5.233 1.428 32.854 12.521 36.061 9.248 14.063-14.357 28.125-28.715 42.188-43.073 9.148-9.34 18.459-17.658 28.441-26.138 8.378-7.116 41.303-25.667 35.949-39.071-24.986 21.567-50.486 42.452-73.535 66.067-11.161 11.435-22.577 22.638-33.895 33.897-3.744 3.726-36.59-8.99-42.348-10.56-58.717-16.001-119.58-29.439-179.98-37.7 0 2.414-0.604 5.723 0 8.046" fill="#ffb34d"/></g><g><path d="m367.39 172.3-164.02 26.711-112.76 18.363c-15.672 2.553-36.313 9.411-51.829 7.775 61.377 10.197 122.59 22.216 182.54 38.555 5.532 1.507 35.635 13.266 39.213 9.705 11.659-11.6 23.808-22.974 34.972-35.064 9.679-10.481 20.281-19.863 31.07-29.176 9.797-8.456 37.814-25.385 40.816-36.869" fill="#fc6"/></g><g><path d="m38.778 225.15c40.397 6.711 80.361 15.65 120.64 22.979 17.952 3.266 35.134 8.545 52.799 13.149 11.093 2.893 51.415 7.183 48.31 21.32-32.744-9.246-65.793-21.862-99.207-27.742l-89.701-15.782c-8.947-1.574-37.532 0.305-33.417-13.925 74.964 10.253 148.93 28.902 221.75 48.832l-221.18-48.831" fill="#f93"/></g><g><path d="m354.18 170c1.19-17.45-24.585-6.809-35.685-5.373l-97.028 12.558c-53.739 6.955-107.48 13.91-161.22 20.865-18.519 2.396-17.626 15.34-5.386 20.782 18.978 8.438 45.391 9.919 65.706 14.578 24.396 5.594 48.747 11.305 73.029 17.374 13.871 3.468 50.261 17.37 63.626 9.57 38.021-22.185 66.297-59.012 96.955-90.354" fill="inherit"/></g><g><path d="m49.696 207.34 179.85 40.9c23.394 5.32 36.642-2.426 52.863-18.405l67.744-66.732-153.02 20.424-101.32 13.523c-16.688 2.228-30.993 3.088-46.115 10.29" fill="#ff8080"/></g><g><path d="m349.58 162.52c4.331 8.98-12.979 20.091-18.36 25.556-14.662 14.888-29.325 29.774-43.987 44.662-16.427 16.68-31.729 27.711-56.442 22.104l-103.89-23.568-55.003-12.478c-8.465-1.921-19.437-1.348-22.195-11.461l179.85 40.9c23.394 5.32 36.642-2.426 52.863-18.405l43.02-42.377c6.756-6.657 21.101-16.962 24.145-24.933" fill="#e65c73"/></g><g><path d="m97.95,205.612 17.366,3.805c3.138.687-1.101,3.553-.131,4.813 1.702,2.213.544,5.257 4.022,8.045 10.255,8.221 26.886-3.028 34.47,4.598 2.356,2.37 3.326,8.62 7.181,8.62 5.362,0 15.608-1.068 20.394,1.145 12.182,5.635 12.825,27.787 32.176,25.853 19.872-1.987 24.196-25.993 43.087-30.447 14.466-3.411 26.325,6.888 32.293-13.413 3.345-11.377 16.85-12.38 24.578-18.185 10.646-7.994 12.517-18.707 18.15-29.981 1.736-3.474 6.081-3.233 8.853-5.639 4.595-3.987 6.242-6.741 9.189-12.634-18.422-6.152-36.163-1.115-55.41,1.212l-120.078,14.515-90.491,10.939c-8.116.981-9.547,3.642-16.871,8.033-8.878,5.324-6.9,6.066-4.697,16.204 1.04,4.786 14.44-2.216 16.962-3.226 0,9.896-1.184,11.138 8.045,11.489 5.202.196 7.841-.521 10.912-5.746" fill="inherit"/></g><g><path d="m336.366,152.19c2.785-.041 5.87,1.169 8.617,1.717-5.063,9.672-15.28,10.46-20.449,20.792-5.106,10.21-6.525,20.08-18.043,25.746-5.315,2.615-8.511.347-12.74,5-4.467,4.913-8.141,8.409-10.523,14.533-2.711,6.969-10.641,9.615-18.099,7.756-20.112-5.016-28.555,17.438-41.939,25.566-4.185,2.541-16.081,8.756-20.831,3.165-4.402-5.182-11.668-22.259-15.934-25.001-4.144-2.664-15.566-.572-20.394-.572-6.03,0-5.165-2.418-8.334-7.181-5.298-7.961-10.258-2.667-20.104-2.581-3.292.029-9.771-.232-12.64-1.728-5.828-3.038-2.161-2.706-5.173-7.468-4.03-6.372 7.691-5.947-8.814-8.57-3.575-.567-12.825-3.936-15.815-1.444-4.26,3.55-6.813,6.436-12.713,3.692-.025-4.553 2.117-8.739 5.745-11.49l-21.83,4.601c-.65-1.707-.855-5.085-.572-6.896 6.306-.352 9.351-7.495 15.367-8.233l21.332-2.619 90.278-11.083c47.037-5.775 98.807-10.33 143.608-17.702" fill="#8ede51"/></g><g><path d="m39.351 161.38 204.6 57.453c4.483 1.259 12.538 6.011 15.979 2.093l31.559-35.917c23.578-26.835 47.157-53.67 70.735-80.506-53.812 9.575-107.62 19.15-161.43 28.725l-112.63 20.041c-14.55 2.587-34.984 9.355-48.807 8.111" fill="inherit"/></g><g><path d="m365.09 125.18-72.945 82.859c-10.605 12.047-21.211 24.095-31.816 36.142-2.787 3.166-19.083-3.963-22.683-4.962l-135.69-37.65-51.884-14.396c-14.697-4.078-10.143-9.288-10.143-25.222l203.7 56.819c4.514 1.259 12.826 6.104 16.297 2.154l31.559-35.917c23.578-26.835 47.157-53.67 70.735-80.506 0.842 6.24 2.104 16.543 2.871 20.679" fill="inherit"/></g><g><path d="m60.608 162.52c61.03 16.775 122.06 33.55 183.09 50.325 3.219 0.885 11.938 5.329 14.471 2.449 9.742-11.072 19.483-22.146 29.225-33.218l62.185-70.683-146.38 26.244-99.383 17.818c-12.921 2.317-30.452 8.498-43.207 7.065" fill="#fffad9"/></g><g><path d="m45.095 163.1c0.686 20.452 1.592 17.52 20.308 22.787 24.214 6.815 48.429 13.629 72.644 20.444l117.89 33.177c-0.672-20.899-1.255-17.998-20.303-23.307l-72.646-20.245-117.89-32.856" fill="#cc7a29"/></g><g><path d="m259.96 219.97 1.15 17.234 56.978-64.88 34.217-38.961c8.772-9.99 8.033-10.763 6.47-24.842l-49.121 56.013-34.861 39.752c-4.08 4.652-10.188 13.606-14.833 15.684" fill="#e6a145"/></g><g><path d="m154.828,127.482c0,15.102-1.978,23.033 9.768,33.326 10.227,8.961 24.771,13.177 38.113,14.012 15.309.958 31.634,1.645 46.384-3.519 11.152-3.905 33.774-11.213 38.441-23.711 1.057-2.83.926-15.521-1.15-17.807-4.56-5.019-34.486-1.15-41.915-1.15-28.342-.001-62.173,4.114-89.641-1.151" fill="inherit"/></g><g><path d="m158.85 133.8c0 36.346 43.099 39.419 72.161 36.89 15.292-1.331 31.294-6.584 43.883-15.626 9.745-7 9.954-10.64 8.618-21.263-21.364 33.248-108.66 43.509-124.66-1e-3" fill="#e61515"/></g><g><path d="m280.639,132.083c-24.871,34.741-95.775,33.976-120.066,0l62.229.296c17.774.085 41.295,3.519 57.837-.296" fill="#e62e2e"/></g><g><path d="m174.357,133.227c.094,6.69 8.338,12.656 14.94,12.64 8.055-.019 9.25-7.738 17.807-9.195-1.19,5.083-8.009,9.417-5.167,13.218 3.388,4.531 30.137,3.181 33.895-.575 3.384-3.382.563-13.272 6.893-11.487 6.106,1.722-4.501,11.112 9.768,7.461 2.962-.758 17.462-8.098 16.085-12.062-1.235-3.557-28.856-1.145-32.644-1.145-18.651.001-45.56-3.602-61.577,1.145" fill="#ff8080"/></g><g><path d="m323.73 344.65c19.645-5.118 47.818-16.661 62.05-31.597 20.363-21.371 2.244-40.539-16.091-54.005 5.05 6.299 11.873 11.151 13.218 20.107-2.377-2.859-5.21-5.494-8.045-7.474 6.283 15.602 6.106 25.545-5.172 39.07-11.731 14.069-28.601 27.769-45.96 33.899" fill="#ffe79e"/></g><g><path d="m161.14 358.43c-35.992-3.994-70.139-10.494-104.28-22.789-14.313-5.154-59.65-29.173-44.511-50.746 1.529 25.233 30.988 38.039 51.127 46.532 31.544 13.303 64.615 18.991 97.665 27.003" fill="#ffe79e"/></g><g><path d="m34.184,260.189c-12.712,8.346-22.11,17.72-14.363,32.753-.157-4.674.281-11.189 3.734-14.654 8.12-8.148 10.05-3.952 10.629-18.099" fill="#ffe79e"/></g><g><path d="m104.27 302.13c-7.851-1.551-15.574 5.94-12.64 14.362 2.874 8.249 13.029 6.084 18.542 13.105 9.632 12.266 33.979 2.898 44.366-3.591 14.798-9.245 1.219-31.207-10.631-35.939-16.105-6.431-30.478 2.584-39.637 12.063" fill="inherit"/></g><g><path d="m97.378 306.15c2.989 3.727 3.388 8.424 1.15 12.646-2.877-3.743-2.958-8.229-1.15-12.646" fill="#f30"/></g><g><path d="m103.7 313.62-1.15 5.172c9.627-0.72 7.005-13.617-2.294-13.218 1.56 2.336 3.118 7.357 3.444 8.046" fill="#f30"/></g><g><path d="m111.74,317.066c-8.345,6.084 4.412,11.521 9.476,13.734 4.706,2.058 16.784-1.356 21.543-3.389 6.835-2.919 12.456-6.067 13.218-13.79 1.349-13.68-11.851-19.504-22.875-21.079-6.053-.864-13.979,2.732-19.426,5.249-7.896,3.649.531,13.337-1.936,19.275" fill="#59b300"/></g><g><path d="m119.78 297.53c14.037-3.124 15.805 13.9 1.728 12.067-10.584-1.378-1.024-7.822-1.728-12.067" fill="#91f279"/></g><g><path d="m238.7 94.74c5.67-6.181 16.206-3.423 18.385 5.167 2.2 8.674-7.397 12.043-8.438 20.877-1.936 16.435-26.904 20.488-39.839 20.488-17.642 0-17.259-25.98-9.746-36.198 9.528-12.955 27.359-15.465 39.638-10.334" fill="inherit"/></g><g><path d="m247.32 94.163c-1.098 4.848 1.396 9.005 5.745 11.49 0.337-4.768-2.252-8.538-5.745-11.49" fill="#f30"/></g><g><path d="m245.597,103.93 4.022,3.444c-7.946,6.355-13.43-7.439-5.173-12.634-.627,3.531.891,7.787 1.151,9.19" fill="#f30"/></g><g><path d="m240.424,111.397c10.301-.119 2.434,11.845-.337,16.466-2.749,4.583-13.856,6.646-18.996,8.359-7.479,2.493-14.177.834-19.156-4.144-8.271-8.268-1.75-21.949 5.384-28.19 4.594-4.02 11.386-7.173 17.533-7.581 13.084-.867 8.17,7.341 15.572,15.09" fill="#59b300"/></g><g><path d="m223.19 99.33c-12.971 2.245-10.046 13.887 4.31 11.188 11.286-2.123-2.811-9.798-4.31-11.188" fill="#91f279"/></g><g><path d="m211.699,5.116c.615,2.893-2.599,9.035-1.723,10.912 1.487,3.187 7.246,3.229 9.195,5.745 4.497,5.802 5.301,16.575-.577,21.263 7.04,6.708-.203,15.44.359,23.586 .564,8.179 7.326,29.425-4.382,30.991l-6.784-27.635c-1.257-5.122-.663-5.01-5.939-5.965-3.481-.63-4.53-7.525-5.756-10.592-1.552-3.881 3.808-9.233 2.395-12.685-1.042-2.546-7.674-3.323-9.19-5.745-1.544-2.468.076-7.8-.864-10.629-1.939-5.837 2.45-5.148 3.736-8.906 1.066-3.116 1.587-12.826 6.895-14.935 5.29-2.102 9.487,2.712 12.635,4.595" fill="inherit"/></g><g><path d="m211.127,64.86 6.317,28.725c-.762-9.965-1.896-19.919-2.872-29.869-1.17,1.186-2.832.962-3.445,1.144" fill="#fc6"/></g><g><path d="m198.487,11.438c-2.106-20.144 21.207,7.103 2.3,7.461 3.231-3.771 1.839-4.81 2.295-9.189-1.008.659-4.841,1.885-4.595,1.728" fill="#6680ff"/></g><g><path d="m196.765,17.183c-7.692,3.595-4.891,21.732 3.647,17.752 7.217-3.364 11.297-13.863-.202-11.435 12.808,9.941-13.35,4.858-1.145-3.445-.767-.957-1.534-1.914-2.3-2.872" fill="#6680ff"/></g><g><path d="m209.977,21.772c18.048,7.781 2.689,26.721-2.872,16.09l3.45-4.022 1.145,4.022c4.543-1.83 5.82-9.959-1.145-8.617 .034-2.481-.951-5.169-.578-7.473" fill="#6680ff"/></g><g><path d="m217.444,53.37c3.3-12.509-14.109-9.075-8.617-1.716l4.601-3.451c.169,4.549-6.009,10.632-7.92,4.256-1.667-5.561 2.265-9.511-.698-14.596-15.373,13.923 8.186,32.973 12.634,15.507" fill="#6680ff"/></g></svg>