<?xml version="1.0" encoding="UTF-8"?><svg xmlns="http://www.w3.org/2000/svg" xmlns:xlink="http://www.w3.org/1999/xlink" height="500.9" preserveAspectRatio="xMidYMid meet" version="1.0" viewBox="-10.4 -0.4 418.4 500.9" width="418.4" zoomAndPan="magnify"><g id="change1_1"><path d="M81.483,485.755c-59.005-25.469-91.879-207.186-52.276-259.552c29.594-39.134,138.348-45.616,206.591-7.438 c36.549,20.444,86.597,76.157,62.232,128.366C252.371,444.966,115.683,500.514,81.483,485.755" fill="#EB8D96"/></g><g id="change2_1"><path d="M163.39,374.028c1.689,13.425-6.817,28.433-14.191,38.256c-3.091,4.116-16.2,8.273-23.559,0.526 c-13.223-13.92,5.604-40.875,14.138-47.24C152.435,356.135,162.807,369.413,163.39,374.028z M139.778,271.066 c-8.534,6.363-27.361,33.318-14.138,47.238c7.359,7.747,20.468,3.593,23.559-0.526c7.374-9.823,15.88-24.832,14.191-38.257 C162.807,274.906,152.435,261.63,139.778,271.066z M238.016,314.675c-0.583-4.615-10.955-17.893-23.612-8.458 c-8.531,6.365-27.359,33.32-14.138,47.24c7.359,7.747,20.468,3.593,23.562-0.526C231.202,343.109,239.705,328.1,238.016,314.675z M128.142,243.825c10.255-3.898,7.005-19.768-3.952-19.625c-28.65-3.041-56.454,11.219-70.849,36.145 c-5.804,10.85-7.918,23.157-10.004,35.158c-3.957,20.996-1.51,55.191,9.307,85.038c1.046,2.725,2.095,5.448,3.167,8.163 c1.089,2.578,1.115,2.642,0.078,0.2c0.559,2.064,1.957,3.847,3.79,4.929c5.512,3.443,12.757-1.427,12.419-7.497 c0.098-1.084,0.169-2.166,0.257-3.248c1.094-13.477,1.229-18.678,0.136-36.209c-1.729-19.676-3.745-52.925-1.277-61.183 c0.742-3.859,1.695-7.683,3.07-11.368c1.486-3.165,3.36-6.128,5.445-8.936c0.171-0.209,0.343-0.419,0.518-0.623 c8.767-8.962,6.513-7.031,15.449-12.724c7.828-3.902,3.65-2.444,14.02-5.438c9.1-1.955,3.876-1.217,11.756-1.817 C123.719,244.659,126.121,244.98,128.142,243.825z M89.494,428.647c-0.074-0.706-0.164-1.638-0.233-2.556 c-0.098-1.821-0.93-6.872-1.322-8.96c-0.445-4.456-0.93-8.924-4.359-12.239c-9.649-9.816-26.493-0.019-22.727,13.233 c1.37,6.91,3.498,13.639,7.298,19.634c2.004,3.31,4.413,6.753,8.401,7.702c8.042,2.372,16.138-5.65,13.71-13.711 C89.903,430.742,89.675,429.7,89.494,428.647z" fill="#FFD9DD"/></g><g id="change3_1"><path d="M360.571,227.118C340.5,249.71,307.79,259.36,276.05,261.54c-4.782-5.035-9.767-9.836-14.777-14.382 c-13.258-12.03-28.092-22.286-43.942-30.59c-29.032-15.209-61.404-22.84-94.021-24.293c-12.858-25.248-20.361-61.819-21.478-86.084 c-1.37-29.742,6.953-59.859,23.405-84.674c23.169,26.051,41.003,56.827,52.084,89.886c3.505-18.835,17.658-33.741,32.081-46.348 c23.852-20.853,50.283-38.754,78.499-53.163c20.292,46.127,25.856,98.601,15.686,147.957c28.103-5.086,55.308-15.111,79.994-29.475 C396.3,162.862,383.74,201.035,360.571,227.118z" fill="#97996A"/></g><g id="change4_1"><path d="M252.84,69.478c-6.213,0.064-10.955,4.829-15.934,7.97c-11.754,8.008-22.335,17.572-30.881,28.981 c-6.358,8.066-12.322,16.585-15.938,26.261c-3.433,7.901-5.83,16.221-6.993,24.763c-0.804,4.04-1.572,8.396,0.799,12.084 c5.086,9.147,19.627,7.267,22.204-2.903c4.297-15.482,3.945-14.041,10.869-26.603c10.783-18.747,17.72-26.306,37.313-42.831 c1.857-1.6,2.587-1.838,6.479-5.129c0.24-0.195,0.478-0.388,0.704-0.599c0.109-0.095,0.195-0.164,0.307-0.262 c-0.074,0.057-0.15,0.117-0.226,0.176c1.669-1.588,2.941-3.591,3.55-5.821C267.435,77.729,260.979,69.39,252.84,69.478" fill="#BBBF6B"/></g><g id="change5_1"><path d="M394.653,126.037c-1.266-3.232-3.881-5.75-7.159-6.892c-3.277-1.145-6.89-0.794-9.891,0.952 c-18.665,10.86-38.573,19.032-59.373,24.384c6.129-46.395-0.603-94.546-19.446-137.379c-1.318-2.995-3.811-5.315-6.894-6.411 c-3.083-1.103-6.482-0.88-9.396,0.611c-29.103,14.866-56.327,33.303-80.915,54.801c-8.242,7.203-16.747,15.377-23.522,24.923 c-11.231-24.47-26.148-47.41-43.936-67.412c-2.451-2.754-6.045-4.229-9.724-3.957c-3.68,0.26-7.03,2.216-9.069,5.29 c-17.847,26.92-26.858,59.52-25.372,91.79c0.853,18.539,5.885,49.248,16.008,75.634c-39.767,3.599-71.176,16.738-86.241,36.66 c-27.148,35.897-22.9,115.221-7.465,173.733c6.808,25.807,26.723,87.593,64.513,103.906c5.121,2.211,11.518,3.33,19.014,3.33 c27.997,0,71.231-15.507,110.144-39.507c47.371-29.216,83.906-67.691,102.873-108.334c11.872-25.439,9.793-53.761-5.944-82.223 c23.299-4.722,48.603-14.664,66.603-34.924C398.072,202.803,407.96,160.028,394.653,126.037z M287.256,342.103 C249.04,423.991,140.037,476.222,95.785,476.222c-5.555,0-8.394-0.866-9.591-1.384c-19.277-8.32-38.797-42.092-50.944-88.139 C18.663,323.817,20.141,257.9,38.689,233.372c12.967-17.146,48.293-28.225,89.996-28.225c37.126,0,74.051,8.745,101.309,23.991 C260.404,246.152,308.421,296.75,287.256,342.103z M351.684,219.221c-13.376,15.055-35.805,25.186-63.488,29.106 c-14.96-18.42-32.913-32.285-46.595-39.938c-30.039-16.805-70.098-26.59-110.285-27c-9.932-22.232-16.565-53.09-17.608-75.743 c-1.004-21.816,3.668-43.811,13.299-63.381c16.917,21.881,30.288,46.804,39.041,72.918c1.721,5.139,6.695,8.445,12.101,8.083 c5.404-0.378,9.87-4.36,10.86-9.685c2.92-15.69,15.903-28.81,28.219-39.575c19.865-17.367,41.558-32.609,64.629-45.422 c15.282,40.863,18.891,86.139,10.087,128.868c-0.797,3.866,0.378,7.878,3.137,10.702c2.759,2.826,6.742,4.101,10.625,3.395 c24.558-4.447,48.147-12.352,70.321-23.551C379.497,171.203,370.664,197.853,351.684,219.221z" fill="#BB7953"/></g></svg>